STARTFONT 2.1
COMMENT This font was automatically resized by bdfresize-1.4
COMMENT   mag_x = 3/5, mag_y = 3/5, blackness = 3
COMMENT HBF_START_FONT 1.0
COMMENT HBF_CODE_SCHEME CNS11643-1992-4
COMMENT
COMMENT   Plane 4 of CNS11643-1992
COMMENT
COMMENT	  Bitmaps provided by Central Bureau of Standards
COMMENT	  Ministry of Economy, Taiwan, ROC, March 9, 1994
COMMENT
FONT -CBS-Song-medium-r-normal-fantizi-24-240-75-75-c-240-CNS11643.1992-4
COMMENT
COMMENT An equivalent full X11R6 XLFD conforming font name is
COMMENT -CBS-Song-medium-r-normal-fantizi-40-400-75-75-c-400-CNS11643.1992.4-0
COMMENT which is formed from the first 15 properties listed in
COMMENT the STARTPROPERTIES section below.
COMMENT Any of these properties is optional, as in the simple HBF file.
COMMENT
SIZE 24 150 150
COMMENT HBF_BITMAP_BOUNDING_BOX 40 40 0 -6
FONTBOUNDINGBOX 24 24 0 -2
STARTPROPERTIES 23
FONTNAME_REGISTRY ""
FOUNDRY "CBS"
FAMILY_NAME "Song"
WEIGHT_NAME "medium"
SLANT "r"
SETWIDTH_NAME "normal"
ADD_STYLE_NAME "fantizi"
PIXEL_SIZE 24
POINT_SIZE 240
RESOLUTION_X 75
RESOLUTION_Y 75
SPACING "c"
AVERAGE_WIDTH 240
CHARS 1
CHARS 1
COPYRIGHT "1994, Central Bureau of Standards, Ministry of Economy, ROC"
WEIGHT 19329
RESOLUTION 110
X_HEIGHT 34
QUAD_WIDTH 40
FONT_ASCENT 22
FONT_DESCENT 2
DEFAULT_CHAR 32382
ENDPROPERTIES
CHARS 7299
COMMENT HBF_START_BYTE_2_RANGES 1
COMMENT HBF_BYTE_2_RANGE 0x21-0x7E
COMMENT HBF_END_BYTE_2_RANGES
COMMENT HBF_START_CODE_RANGES 1
COMMENT HBF_CODE_RANGE 0x2121-0x6E5C cns4040.w4.bin 0
COMMENT HBF_END_CODE_RANGES
COMMENT The rarely used characters, especially those appearing in names.
COMMENT Includes 7127 characters from ISO/IEC 10646-1:1993 (aka Unicode)
COMMENT and the second part of 171 characters which was on Plane 14
COMMENT of CNS 11643-1988. Totally 7298 characters, 2121--6E5C.
COMMENT There is a kind of profession, usually like a fortune teller or a
COMMENT medicine man, in designing names according to ones luck, birth

STARTCHAR C2121
ENCODING 8481
SWIDTH 400 0
DWIDTH 24 0
BBX 24 24 0 -2
BITMAP
00007C
0003FE
31FF80
3F0000
300000
300000
300000
300000
300000
300000
300000
300000
300000
300000
300000
300000
300000
300000
300000
600000
600000
400000
C00000
800000
ENDCHAR
STARTCHAR C2122
ENCODING 8482
SWIDTH 400 0
DWIDTH 24 0
BBX 24 24 0 -2
BITMAP
002000
00F000
03F000
0F3000
3C3000
F03800
601800
001800
001800
001800
001800
000C00
000E00
000600
000600
000300
000300
000180
0000C0
000060
000038
00001F
00000F
000007
ENDCHAR
STARTCHAR C2123
ENCODING 8483
SWIDTH 400 0
DWIDTH 24 0
BBX 24 24 0 -2
BITMAP
000000
007000
FFF800
003000
003000
003000
003000
001800
001800
001800
001800
000C00
000C00
000E00
000600
000700
000300
000180
0000C0
000060
000038
00001F
00000F
000007
ENDCHAR
STARTCHAR C2124
ENCODING 8484
SWIDTH 400 0
DWIDTH 24 0
BBX 24 24 0 -2
BITMAP
060000
060000
060000
060000
060000
060000
060000
060000
060000
060000
060000
060000
060000
060000
060000
060000
060000
060004
06000C
060008
060018
07FFFC
07FFF8
03FFE0
ENDCHAR
STARTCHAR C2125
ENCODING 8485
SWIDTH 400 0
DWIDTH 24 0
BBX 24 24 0 -2
BITMAP
000700
000700
000E00
000E00
000C00
001800
003800
007000
00E000
01C000
038000
030000
018000
00C000
006000
003000
001800
000C00
000E00
000600
000700
000700
000300
000300
ENDCHAR
STARTCHAR C2126
ENCODING 8486
SWIDTH 400 0
DWIDTH 24 0
BBX 24 24 0 -2
BITMAP
000004
00000E
FFFFFE
018000
030000
030000
060000
060030
0FFFF8
040038
000038
000038
000038
000038
000030
000030
000030
000060
000060
0000C0
0000C0
007F80
001F00
000600
ENDCHAR
STARTCHAR C2127
ENCODING 8487
SWIDTH 400 0
DWIDTH 24 0
BBX 24 24 0 -2
BITMAP
000060
040060
070060
060060
060060
060060
060060
060060
060060
060060
060060
060060
060060
060060
060060
0FFFE0
0400E0
000060
000060
000060
000060
000060
000060
000040
ENDCHAR
STARTCHAR C2128
ENCODING 8488
SWIDTH 400 0
DWIDTH 24 0
BBX 24 24 0 -2
BITMAP
000000
000300
3FFF80
000300
000300
000600
000E00
000C0C
001FFE
00080E
00000C
00000C
00000C
00000C
00000C
00000C
00000C
00000C
00000C
00000C
000018
0003F8
0000F0
000060
ENDCHAR
STARTCHAR C2129
ENCODING 8489
SWIDTH 400 0
DWIDTH 24 0
BBX 24 24 0 -2
BITMAP
000000
0601C0
07FFE0
0600C0
0600C0
0600C0
0600C0
0600C0
0600C0
0600C0
0600C0
0600C0
0600C0
0600C0
0600C0
0600C0
0600C0
0C00C0
0C00C0
0C00C0
1800C0
1000FE
20007F
40003F
ENDCHAR
STARTCHAR C212a
ENCODING 8490
SWIDTH 400 0
DWIDTH 24 0
BBX 24 24 0 -2
BITMAP
0001C0
0001C0
0001C0
0381C0
0381C0
0381C0
0381C0
0381C0
0381C0
0381C0
0381C0
0381C0
0381C0
0381C0
0381C0
0381C0
0381C0
0381C0
0101C0
0001C0
0001C0
003FC0
000F80
000300
ENDCHAR
STARTCHAR C212b
ENCODING 8491
SWIDTH 400 0
DWIDTH 24 0
BBX 24 24 0 -2
BITMAP
000000
100060
1FFFF0
180070
180060
180060
180060
180060
180060
180060
180060
180060
180060
180060
180FE0
1800C0
180000
180000
180004
18000C
180008
1FFFF8
1FFFFC
07FFF8
ENDCHAR
STARTCHAR C212c
ENCODING 8492
SWIDTH 400 0
DWIDTH 24 0
BBX 24 24 0 -2
BITMAP
007038
007038
00E038
00C030
00C060
0180E0
0300C0
060180
0C0300
180600
300C00
301C00
180600
0C0300
060180
0300C0
018060
01C060
00C070
00E030
006038
007018
00701C
003018
ENDCHAR
STARTCHAR C212d
ENCODING 8493
SWIDTH 400 0
DWIDTH 24 0
BBX 24 24 0 -2
BITMAP
200000
30000C
3FFFFE
30000C
30000C
30000C
30000C
30000C
30000C
30004C
3000EC
37FFEC
30000C
30000C
30000C
30000C
30000C
30000C
30000C
30000C
30000C
3000FC
30003C
200018
ENDCHAR
STARTCHAR C212e
ENCODING 8494
SWIDTH 400 0
DWIDTH 24 0
BBX 24 24 0 -2
BITMAP
200000
38000E
30000E
30000C
30000C
30000C
30000C
30000C
30000C
30000C
30006C
37FFEC
30000C
30000C
30000C
30000C
30000C
30000C
30000C
30000C
30000C
30000C
7FFFFC
20000C
ENDCHAR
STARTCHAR C212f
ENCODING 8495
SWIDTH 400 0
DWIDTH 24 0
BBX 24 24 0 -2
BITMAP
060000
060000
060000
0E0000
0C000C
1FFFFE
18000C
30000C
20000C
40000C
80000C
00010C
0FFF8C
00000C
00000C
00000C
00000C
00000C
00000C
00000C
00001C
000FF8
0001F0
000060
ENDCHAR
STARTCHAR C2130
ENCODING 8496
SWIDTH 400 0
DWIDTH 24 0
BBX 24 24 0 -2
BITMAP
000040
0000E0
7FFFE0
000060
01C060
018060
018060
018060
018060
018260
018760
FFFF61
018061
018063
01807F
01803E
018000
018000
018000
018000
018000
018000
018000
018000
ENDCHAR
STARTCHAR C2131
ENCODING 8497
SWIDTH 400 0
DWIDTH 24 0
BBX 24 24 0 -2
BITMAP
000020
060070
07FFF8
060030
060030
062030
061030
061830
060C30
060630
060630
060230
060030
060030
060030
060FF0
0601E0
060040
060000
060000
060000
060000
060000
060000
ENDCHAR
STARTCHAR C2132
ENCODING 8498
SWIDTH 400 0
DWIDTH 24 0
BBX 24 24 0 -2
BITMAP
000020
000070
3FFFF8
0000E0
0001C0
000700
000C00
001800
001800
001800
001800
001806
001FFF
001800
001800
001800
001800
001800
001800
001800
001800
03F800
00F000
006000
ENDCHAR
STARTCHAR C2133
ENCODING 8499
SWIDTH 400 0
DWIDTH 24 0
BBX 24 24 0 -2
BITMAP
000000
000038
1FFFFC
000070
0000E0
000380
000700
000C00
000C00
000C00
000C00
000C00
00FC00
0F8C00
FC0C00
600C00
000C00
000C00
000C00
000C00
000C00
00FC00
007800
001000
ENDCHAR
STARTCHAR C2134
ENCODING 8500
SWIDTH 400 0
DWIDTH 24 0
BBX 24 24 0 -2
BITMAP
003800
003800
003000
003000
003000
003004
7FFFFE
003E00
003E00
003E00
003E00
007E00
006E00
006E00
00EE00
00CE00
00CE00
018E00
030E01
060E01
0C0E03
180FFF
3007FF
E003FE
ENDCHAR
STARTCHAR C2135
ENCODING 8501
SWIDTH 400 0
DWIDTH 24 0
BBX 24 24 0 -2
BITMAP
001800
001800
201808
38180E
30180C
30180C
30180C
30180C
30180C
30180C
30180C
30180C
7FFFFC
20381C
003008
003000
003000
006000
006000
00C000
018000
030000
060000
380000
ENDCHAR
STARTCHAR C2136
ENCODING 8502
SWIDTH 400 0
DWIDTH 24 0
BBX 24 24 0 -2
BITMAP
001800
001800
001800
001800
001800
011900
011880
0318C0
031860
071860
061860
061820
001800
001800
001800
001800
001800
001800
001800
001800
001800
001800
001800
001000
ENDCHAR
STARTCHAR C2137
ENCODING 8503
SWIDTH 400 0
DWIDTH 24 0
BBX 24 24 0 -2
BITMAP
001800
001800
001800
001800
001800
00181C
3FFFFC
001800
001800
001800
001838
001BE0
007E00
03F800
3F9800
301800
001800
001800
001800
001800
001800
03F800
00F000
006000
ENDCHAR
STARTCHAR C2138
ENCODING 8504
SWIDTH 400 0
DWIDTH 24 0
BBX 24 24 0 -2
BITMAP
0000C0
0601C0
01C380
007F00
001E00
003E00
006300
018300
0E0180
0001C0
0003C0
0006C0
000CC0
0030C0
00E0C0
01C0C0
0600C0
3C00C0
0001C0
000180
000380
00FF00
003E00
000C00
ENDCHAR
STARTCHAR C2139
ENCODING 8505
SWIDTH 400 0
DWIDTH 24 0
BBX 24 24 0 -2
BITMAP
000000
00000C
3FFFFE
00700C
00700C
0C700C
07700C
00F00C
00600C
00700C
00780C
00EC0C
00CE0C
00C40C
01800C
03000C
06001C
0C0038
1807F0
3000E0
E00040
000000
000007
FFFFFF
ENDCHAR
STARTCHAR C213a
ENCODING 8506
SWIDTH 400 0
DWIDTH 24 0
BBX 24 24 0 -2
BITMAP
001800
001800
001860
001BF0
003F00
01F800
0F1800
001800
001860
001BF0
003F00
01F800
0F1800
001800
001830
001BF8
003F80
01F800
1F1800
001800
001800
001800
001800
001000
ENDCHAR
STARTCHAR C213b
ENCODING 8507
SWIDTH 400 0
DWIDTH 24 0
BBX 24 24 0 -2
BITMAP
000020
000070
0FFFF0
000000
000000
000000
000000
000000
00000C
3FFFFE
000000
000000
000000
000000
000070
0FFFF0
000000
000000
000000
000000
000000
000000
00000C
3FFFFC
ENDCHAR
STARTCHAR C213c
ENCODING 8508
SWIDTH 400 0
DWIDTH 24 0
BBX 24 24 0 -2
BITMAP
001800
001800
003800
007400
006200
00C300
018180
0310E0
061C78
0C181F
30180E
E01800
001808
00381C
3FFFFC
001800
001800
001800
001800
001800
001800
001800
001800
001000
ENDCHAR
STARTCHAR C213d
ENCODING 8509
SWIDTH 400 0
DWIDTH 24 0
BBX 24 24 0 -2
BITMAP
001800
001800
001800
001808
00381C
7FFFFC
301800
301800
301800
301800
303000
3FFFFC
3FFFFE
007E00
006E00
00CE00
00CE00
018E00
030E01
060E01
0C0E03
180FFF
3007FF
E003FE
ENDCHAR
STARTCHAR C213e
ENCODING 8510
SWIDTH 400 0
DWIDTH 24 0
BBX 24 24 0 -2
BITMAP
200000
30000C
3FFFFE
30000C
30000C
30000C
30000C
30006C
3FFFFC
30000C
30000C
30000C
30000C
30000C
30006C
3FFFFC
30000C
30000C
30000C
30000C
30000C
3000FC
30003C
200018
ENDCHAR
STARTCHAR C213f
ENCODING 8511
SWIDTH 400 0
DWIDTH 24 0
BBX 24 24 0 -2
BITMAP
001800
001800
003000
003800
007C00
00E300
01C1C0
038060
070038
0E181C
18180E
601807
003000
003800
006800
006400
00C600
018300
030380
0601C0
0C00F0
18007F
30003F
E0000C
ENDCHAR
STARTCHAR C2140
ENCODING 8512
SWIDTH 400 0
DWIDTH 24 0
BBX 24 24 0 -2
BITMAP
000007
001807
7FFC06
0C1CE6
0C18E6
0C18C6
0C18C6
0C18C6
0C18C6
0C18C6
0C18C6
0C18C6
0C18C6
0C18C6
1C18C6
1C18C6
1818C6
1818C6
101806
301806
203806
67F07E
C0603C
804008
ENDCHAR
STARTCHAR C2141
ENCODING 8513
SWIDTH 400 0
DWIDTH 24 0
BBX 24 24 0 -2
BITMAP
000000
007007
FFF7FF
1C71C7
1C71C7
1C71C7
1C71C7
1C71C7
1C71C7
1C71C7
1C71C7
1C71C7
1C71C7
187187
187187
187187
107307
307307
307307
306207
20E60F
6FCCFE
C1881C
801008
ENDCHAR
STARTCHAR C2142
ENCODING 8514
SWIDTH 400 0
DWIDTH 24 0
BBX 24 24 0 -2
BITMAP
1C0000
1C0000
180000
180018
1FFFFC
180000
180000
180000
180000
1FFFFE
0FFFFE
001C00
001800
001800
001802
FFFFFF
003800
001800
001800
001800
001800
001800
001800
001000
ENDCHAR
STARTCHAR C2143
ENCODING 8515
SWIDTH 400 0
DWIDTH 24 0
BBX 24 24 0 -2
BITMAP
004004
E0EE0E
FFFFFF
E06E06
E06E06
E06E06
E06E06
E06E06
E06E06
E06E06
E06E06
E06E06
E7EE7E
E3CE3C
E08E08
E00E00
E00E00
E00E00
E04E01
E0CE01
EF0E03
FC0FFF
7007FF
6003FE
ENDCHAR
STARTCHAR C2144
ENCODING 8516
SWIDTH 400 0
DWIDTH 24 0
BBX 24 24 0 -2
BITMAP
00C000
01C0C0
01FFE0
0301E0
060180
0C0304
1FFFFE
7C0000
1C0000
1C0000
1C0000
1C0000
1C0000
1C0000
1C0000
1C0000
180000
180000
180000
300000
300000
300000
600000
C00000
ENDCHAR
STARTCHAR C2145
ENCODING 8517
SWIDTH 400 0
DWIDTH 24 0
BBX 24 24 0 -2
BITMAP
000000
040040
070070
060060
060060
060060
0C00C0
0C00C0
0C00C0
1C01C0
1C01C0
180180
180180
180180
318318
30830C
30C304
204206
606606
406407
FFFFFF
F87F83
402401
000000
ENDCHAR
STARTCHAR C2146
ENCODING 8518
SWIDTH 400 0
DWIDTH 24 0
BBX 24 24 0 -2
BITMAP
000E00
000E00
000E00
618E00
7FCE00
618E00
618E00
618E00
618E00
618E00
618E00
618E00
618E00
618E00
618E00
618E00
7F8E00
618E00
600E01
000E01
000E03
000FFF
0007FF
0003FE
ENDCHAR
STARTCHAR C2147
ENCODING 8519
SWIDTH 400 0
DWIDTH 24 0
BBX 24 24 0 -2
BITMAP
000000
000006
FFFFFF
000000
000000
000000
000000
000000
30001C
3FFFFC
30000C
30000C
30000C
30000C
30000C
30000C
30000C
30000C
30000C
30000C
30000C
3FFFFC
300008
000000
ENDCHAR
STARTCHAR C2148
ENCODING 8520
SWIDTH 400 0
DWIDTH 24 0
BBX 24 24 0 -2
BITMAP
000000
000060
001FF0
03FF00
3E1800
001800
001800
001800
001800
001800
001800
00181C
3FFFFC
001800
001800
001800
001800
001800
001800
001800
001800
001806
FFFFFF
000000
ENDCHAR
STARTCHAR C2149
ENCODING 8521
SWIDTH 400 0
DWIDTH 24 0
BBX 24 24 0 -2
BITMAP
1C0000
1C0000
180000
180000
180000
180000
181800
3FFC00
101C00
001800
001800
001802
FFFFFF
003C00
001C00
003600
003200
006300
00C180
0180C0
030070
0E003F
18000F
E00007
ENDCHAR
STARTCHAR C214a
ENCODING 8522
SWIDTH 400 0
DWIDTH 24 0
BBX 24 24 0 -2
BITMAP
000600
018300
01C100
038180
0300C0
070060
0E0038
1C001F
380107
E3FF82
030180
030180
030180
030180
030180
030180
030180
060180
060180
060181
0C0181
1801FF
3001FF
E0007E
ENDCHAR
STARTCHAR C214b
ENCODING 8523
SWIDTH 400 0
DWIDTH 24 0
BBX 24 24 0 -2
BITMAP
000600
018300
01C100
038180
0300C0
070060
0E0038
1C001F
380007
E381C2
0381C0
030180
030180
030180
030180
030180
030180
060180
060180
060181
0C0181
1801FF
3001FF
E0007E
ENDCHAR
STARTCHAR C214c
ENCODING 8524
SWIDTH 400 0
DWIDTH 24 0
BBX 24 24 0 -2
BITMAP
0001F0
000FF8
07FF00
3E1800
001800
001800
201808
30381C
3FFFFC
30180C
30180C
30180C
30180C
30180C
30180C
30180C
30180C
30180C
3019FC
301878
201830
001800
001800
001000
ENDCHAR
STARTCHAR C214d
ENCODING 8525
SWIDTH 400 0
DWIDTH 24 0
BBX 24 24 0 -2
BITMAP
000000
00000C
3FFFFC
0381C0
0381C0
0381C0
0381C0
0381C0
0381C0
0381C0
0381C7
FFFFFF
0381C0
0381C0
0381C0
0301C0
0301C0
0701C0
0601C0
0601C0
0C01C0
1801C0
3001C0
E00180
ENDCHAR
STARTCHAR C214e
ENCODING 8526
SWIDTH 400 0
DWIDTH 24 0
BBX 24 24 0 -2
BITMAP
000000
000007
7FFFFF
000C00
001800
001800
003800
003C00
007C00
007A00
00DB00
019980
0318C0
061870
0C183C
18181F
601807
801800
001800
001800
001800
001800
001800
001000
ENDCHAR
STARTCHAR C214f
ENCODING 8527
SWIDTH 400 0
DWIDTH 24 0
BBX 24 24 0 -2
BITMAP
000008
18001C
0C7FFC
0C0018
000030
010060
8100C0
E20180
720300
360600
060C00
041800
0C3800
083000
187000
186000
30C000
F0C000
30C001
30C001
38E003
387FFF
383FFF
100FFE
ENDCHAR
STARTCHAR C2150
ENCODING 8528
SWIDTH 400 0
DWIDTH 24 0
BBX 24 24 0 -2
BITMAP
000000
000000
000000
000000
000000
000000
000000
000000
000000
000008
21060C
218306
60C387
E0C183
C04183
800001
000000
000000
000000
000000
000000
000000
000000
000000
ENDCHAR
STARTCHAR C2151
ENCODING 8529
SWIDTH 400 0
DWIDTH 24 0
BBX 24 24 0 -2
BITMAP
000000
000000
000000
000000
000000
0003F8
03FFFC
3F8000
000000
000010
1C1008
18180C
300C0E
200E06
400600
000000
000000
000000
000000
000000
000000
000000
000000
000000
ENDCHAR
STARTCHAR C2152
ENCODING 8530
SWIDTH 400 0
DWIDTH 24 0
BBX 24 24 0 -2
BITMAP
200000
30000C
3FFFFE
30000C
3000CC
3000EC
3600CC
3180CC
30C18C
30618C
30330C
301E0C
300E0C
301E0C
30330C
30618C
30C0CC
31806C
33006C
3C000C
30000C
3000FC
30003C
200018
ENDCHAR
STARTCHAR C2153
ENCODING 8531
SWIDTH 400 0
DWIDTH 24 0
BBX 24 24 0 -2
BITMAP
000000
000000
000000
000000
000000
000000
060060
060060
060060
060060
0EC0E7
FFC3FF
060060
060060
060060
060060
000000
000000
000000
000000
000000
000000
000000
000000
ENDCHAR
STARTCHAR C2154
ENCODING 8532
SWIDTH 400 0
DWIDTH 24 0
BBX 24 24 0 -2
BITMAP
000000
000000
700000
380000
1C0000
000000
000000
000000
0C0000
FE0000
1C0000
180000
300000
3E0000
7F0000
460000
0C0000
0C0000
180000
380000
7F0000
E7FFFF
007FFC
001FF8
ENDCHAR
STARTCHAR C2155
ENCODING 8533
SWIDTH 400 0
DWIDTH 24 0
BBX 24 24 0 -2
BITMAP
0E0070
0E1070
0C1C60
0C1860
0C1860
0C1860
0C1860
0C1860
0C1862
FFFFFF
0C3870
0C1860
0C1860
0C1860
0C1860
0C1860
0C1860
0C1860
0C1860
0C1860
0C1060
0C0060
080007
FFFFFF
ENDCHAR
STARTCHAR C2156
ENCODING 8534
SWIDTH 400 0
DWIDTH 24 0
BBX 24 24 0 -2
BITMAP
180030
0C0060
0600C0
0701C0
1D8370
F0C61F
C06C07
000000
001C00
001800
001800
001800
001800
001800
001800
001800
001800
001800
001800
001800
001800
001800
001800
001000
ENDCHAR
STARTCHAR C2157
ENCODING 8535
SWIDTH 400 0
DWIDTH 24 0
BBX 24 24 0 -2
BITMAP
0E0000
0E0000
0C0010
0FFFF8
1C0000
181C00
101C00
2C1800
4E1800
0C1830
0C1FF8
7FF838
0C1838
0C1830
0C1830
0C1860
0C1840
0C1800
0C0004
0C0004
0C000C
0FFFFC
07FFFC
03FFF8
ENDCHAR
STARTCHAR C2158
ENCODING 8536
SWIDTH 400 0
DWIDTH 24 0
BBX 24 24 0 -2
BITMAP
0E0300
0E0180
0CC0C2
1CFFFF
18C000
18C000
30C000
30C000
70C000
70C000
F0C000
B0C000
30C000
30C000
30C000
30C000
30C000
30C000
30C000
30C000
318000
318000
330000
360000
ENDCHAR
STARTCHAR C2159
ENCODING 8537
SWIDTH 400 0
DWIDTH 24 0
BBX 24 24 0 -2
BITMAP
070000
072004
067FFE
067006
0C7006
0C7006
1C7006
1C7006
3C7006
7C7006
7C7006
DC7006
1C7006
1C7006
1C7006
1C7006
1C7006
1C7006
1C7006
1C7006
1C7006
1C7FFE
1C6004
180000
ENDCHAR
STARTCHAR C215a
ENCODING 8538
SWIDTH 400 0
DWIDTH 24 0
BBX 24 24 0 -2
BITMAP
071800
071800
061800
063800
0C3006
0C3FFF
1C6007
1C6007
3CC007
7CC007
7D8807
DC0607
1C0307
1C0387
1C0187
1C0007
1C0007
1C0007
1C0006
1C0006
1C000E
1C03FC
1C00F8
180030
ENDCHAR
STARTCHAR C215b
ENCODING 8539
SWIDTH 400 0
DWIDTH 24 0
BBX 24 24 0 -2
BITMAP
070008
07003C
0603FC
061F80
0CFE00
0C0E00
1C0E00
1C0E00
3C0E00
7C0E00
7C0E07
DDFFFF
1C0E00
1C0E00
1C0E00
1C0E00
1C0E00
1C0E00
1C0E01
1C0E01
1C0E03
1C0FFF
1C07FF
1803FE
ENDCHAR
STARTCHAR C215c
ENCODING 8540
SWIDTH 400 0
DWIDTH 24 0
BBX 24 24 0 -2
BITMAP
003800
003800
003000
003000
003038
003FF8
003000
003000
003000
003000
003007
FFFFFF
000000
010200
038380
038300
038300
030300
030300
060301
0C0301
1803FF
3003FF
E001FE
ENDCHAR
STARTCHAR C215d
ENCODING 8541
SWIDTH 400 0
DWIDTH 24 0
BBX 24 24 0 -2
BITMAP
000004
00000E
7FFFFE
000000
000000
180018
1FFFFC
180018
180018
180018
1801D8
1BFFD8
180018
180018
180018
FFFFFF
180018
180018
180018
180018
180018
1801F8
180078
180030
ENDCHAR
STARTCHAR C215e
ENCODING 8542
SWIDTH 400 0
DWIDTH 24 0
BBX 24 24 0 -2
BITMAP
003000
003000
003000
006006
FFFFFF
00C100
01C180
0180C0
030060
060038
0C001C
18700F
301E07
C00700
000380
000080
000000
000000
0000F0
0007C0
00FE00
07E000
070000
030000
ENDCHAR
STARTCHAR C215f
ENCODING 8543
SWIDTH 400 0
DWIDTH 24 0
BBX 24 24 0 -2
BITMAP
000000
300038
3FFFFC
301018
301C18
301818
301818
321898
3319D8
3319D8
3319D8
3319D8
3319D8
3319D8
3319D8
3319D8
3319D8
3319D8
3319D8
2339CD
63FFCD
60008F
C00007
800003
ENDCHAR
STARTCHAR C2160
ENCODING 8544
SWIDTH 400 0
DWIDTH 24 0
BBX 24 24 0 -2
BITMAP
000000
70100E
601C0E
60180C
60180C
60180C
60180C
6039CC
67FFCC
60180C
60180C
60180C
60180C
60180C
60180C
60180C
60186C
6FFFFC
60000C
60000C
60000C
60000C
7FFFFC
00000C
ENDCHAR
STARTCHAR C2161
ENCODING 8545
SWIDTH 400 0
DWIDTH 24 0
BBX 24 24 0 -2
BITMAP
000007
000007
002006
7FF386
070386
060306
060306
060306
060306
060306
060306
060306
060306
060306
060306
060306
063B06
0FC306
FE0006
E00006
000006
00007E
00003C
000008
ENDCHAR
STARTCHAR C2162
ENCODING 8546
SWIDTH 400 0
DWIDTH 24 0
BBX 24 24 0 -2
BITMAP
00000C
00700C
FFF20C
19838C
19830C
19830C
19830C
19830C
19830C
19830C
19830C
19830C
19830C
19830C
19830C
31820C
31800C
3180FC
318078
218011
618001
41FFFF
C0FFFF
807FFE
ENDCHAR
STARTCHAR C2163
ENCODING 8547
SWIDTH 400 0
DWIDTH 24 0
BBX 24 24 0 -2
BITMAP
1C00E0
1C00E0
3800C0
3000C0
3070C0
7FF0C2
4007FF
8000C7
0080C7
7FC0C7
01C0C7
0180C7
0300C7
0600C7
0C01C7
1801C7
300187
600187
C01307
C03307
C02606
FFF47E
3FE83C
001018
ENDCHAR
STARTCHAR C2164
ENCODING 8548
SWIDTH 400 0
DWIDTH 24 0
BBX 24 24 0 -2
BITMAP
0041C0
01E1C0
1FE1C0
7601C0
0601C0
0601C2
060FFF
0601C7
0611C7
FFF9C7
0601C7
0601C7
0601C7
060187
060187
060187
060307
060307
060307
060607
060606
060CFE
06183C
063018
ENDCHAR
STARTCHAR C2165
ENCODING 8549
SWIDTH 400 0
DWIDTH 24 0
BBX 24 24 0 -2
BITMAP
000004
60000E
7FFFFE
606000
606000
606180
60FFC0
60C180
618180
630300
660300
600300
600780
600680
600CC0
601860
603030
60601C
60C00F
638006
6E0000
600000
7FFFFF
000000
ENDCHAR
STARTCHAR C2166
ENCODING 8550
SWIDTH 400 0
DWIDTH 24 0
BBX 24 24 0 -2
BITMAP
200000
300007
3FFFFF
300000
300008
33FFFC
300600
300600
300600
300600
300600
300602
37FFFF
300600
300600
300600
200600
600600
600600
600600
400600
C00600
800600
000600
ENDCHAR
STARTCHAR C2167
ENCODING 8551
SWIDTH 400 0
DWIDTH 24 0
BBX 24 24 0 -2
BITMAP
200000
300007
3FFFFF
300020
3000F8
300FF8
33FC00
300C00
300C00
300C00
300C00
300C04
37FFFE
300C00
300C00
300C00
200C00
600C00
600C00
600C01
400C03
C00FFE
800FFE
0003FC
ENDCHAR
STARTCHAR C2168
ENCODING 8552
SWIDTH 400 0
DWIDTH 24 0
BBX 24 24 0 -2
BITMAP
001800
301818
38181C
301818
301818
301818
3FFFF8
001818
001840
0FFFE0
0600E0
0200C0
0301C0
018180
00C300
00E700
007E00
003C00
003E00
006700
01C1E0
0700FF
1C003F
F0000F
ENDCHAR
STARTCHAR C2169
ENCODING 8553
SWIDTH 400 0
DWIDTH 24 0
BBX 24 24 0 -2
BITMAP
001800
001800
001820
1FFFF0
003830
001830
001830
001830
001836
FFFFFF
001800
001840
0FFFE0
0300E0
0100C0
018180
00C300
007600
003C00
003E00
00F380
03C0FF
0E003F
F8000F
ENDCHAR
STARTCHAR C216a
ENCODING 8554
SWIDTH 400 0
DWIDTH 24 0
BBX 24 24 0 -2
BITMAP
001C38
001C38
001830
C31830
FF1830
E31830
E31830
E31830
E31830
E31830
E31830
E31830
E31830
E31830
E31830
E31830
FF1830
E31830
C03030
003031
002031
00603F
00C03F
01800E
ENDCHAR
STARTCHAR C216b
ENCODING 8555
SWIDTH 400 0
DWIDTH 24 0
BBX 24 24 0 -2
BITMAP
000600
018300
01C100
018080
0180C0
030060
030070
06003C
0C001F
18000F
600002
880070
0FFFF8
0C0030
0C0030
0C0030
0C0030
0C0030
0C0030
0C0030
0C0030
0FFFF0
0C0030
0C0020
ENDCHAR
STARTCHAR C216c
ENCODING 8556
SWIDTH 400 0
DWIDTH 24 0
BBX 24 24 0 -2
BITMAP
000000
0C0038
0FFFF8
0C0038
0C0038
0C0038
0C0038
0C0038
0FFFF8
080010
000000
00001C
3FFFFC
00700C
00700C
00600C
00C00C
00C00C
01C00C
03800C
070018
0E07F8
1801F0
E00060
ENDCHAR
STARTCHAR C216d
ENCODING 8557
SWIDTH 400 0
DWIDTH 24 0
BBX 24 24 0 -2
BITMAP
000000
60000C
7FFFFE
60100C
601C0C
60180C
60380C
60300C
60300C
60600C
60600C
60C00C
60C00C
60830C
61818C
6300CC
6600EC
6FFFEC
6FC06C
66002C
60000C
7FFFFC
60000C
600000
ENDCHAR
STARTCHAR C216e
ENCODING 8558
SWIDTH 400 0
DWIDTH 24 0
BBX 24 24 0 -2
BITMAP
000000
60000C
7FFFFE
60000C
60400C
60200C
60100C
60180C
60180C
601C0C
601C0C
60360C
60360C
60630C
60E38C
60C1CC
6181EC
6300FC
66006C
6C000C
60000C
7FFFFC
60000C
600000
ENDCHAR
STARTCHAR C216f
ENCODING 8559
SWIDTH 400 0
DWIDTH 24 0
BBX 24 24 0 -2
BITMAP
000000
60000C
7FFFFE
60000C
60000C
60000C
60060C
7FFF0C
60060C
60060C
60060C
60060C
60060C
60060C
60060C
60060C
7FFE0C
60060C
60000C
60000C
60000C
7FFFFC
60000C
600000
ENDCHAR
STARTCHAR C2170
ENCODING 8560
SWIDTH 400 0
DWIDTH 24 0
BBX 24 24 0 -2
BITMAP
001800
001800
001800
001800
003838
1FFFF8
001800
001800
001800
001800
003807
FFFFFF
018300
018300
018300
018300
038300
030300
030301
060301
0C0303
1803FF
3001FF
E000FE
ENDCHAR
STARTCHAR C2171
ENCODING 8561
SWIDTH 400 0
DWIDTH 24 0
BBX 24 24 0 -2
BITMAP
200000
300007
3FFFFF
300000
300F00
300E00
300E00
300E00
300E00
300E08
37FFFC
300E00
300E00
300E00
300E00
300E00
200E00
600E00
600E00
600E00
400E02
DFFFFF
800000
000000
ENDCHAR
STARTCHAR C2172
ENCODING 8562
SWIDTH 400 0
DWIDTH 24 0
BBX 24 24 0 -2
BITMAP
003800
003800
003000
007004
00600E
7FFFFE
00C180
0180C0
0380E0
030070
060038
0C001F
18000F
600022
87FFE0
000000
000000
000000
000000
000000
000000
00000C
7FFFFE
000000
ENDCHAR
STARTCHAR C2173
ENCODING 8563
SWIDTH 400 0
DWIDTH 24 0
BBX 24 24 0 -2
BITMAP
0E0000
0E0000
0C0000
0C0000
1C0004
1FFFFE
180C00
300C00
200C00
400C00
800C00
070C60
060C30
060C18
0C0C0C
180C0E
180C06
300C07
600C03
400C00
000C00
00FC00
007800
001000
ENDCHAR
STARTCHAR C2174
ENCODING 8564
SWIDTH 400 0
DWIDTH 24 0
BBX 24 24 0 -2
BITMAP
200000
30000C
3FFFFE
30000C
30000C
30000C
30000C
3FFFFC
30000C
300000
300000
300008
33FFFC
300000
300000
300000
600000
600000
600000
400000
C00000
800006
9FFFFF
000000
ENDCHAR
STARTCHAR C2175
ENCODING 8565
SWIDTH 400 0
DWIDTH 24 0
BBX 24 24 0 -2
BITMAP
000030
020070
010060
0080C0
00C180
08431C
1FFFFC
1C000C
1C000C
1C000C
1C000C
1C000C
1C000C
1FFFFC
1C0008
1C0000
1C0000
180000
180000
100000
300000
300000
600000
C00000
ENDCHAR
STARTCHAR C2176
ENCODING 8566
SWIDTH 400 0
DWIDTH 24 0
BBX 24 24 0 -2
BITMAP
001C00
301C0C
38180E
30180C
30180C
30180C
3FFFFC
000000
200002
3FFFFF
300000
300000
300000
300000
300000
300000
300000
200000
600000
600000
600000
C00000
800000
800000
ENDCHAR
STARTCHAR C2177
ENCODING 8567
SWIDTH 400 0
DWIDTH 24 0
BBX 24 24 0 -2
BITMAP
0E0000
0E0418
0C0FFC
0C8E1C
4DCE18
FFCE18
ECCE18
ECCE18
ECCE18
ECCE18
ECCE18
ECCE18
ECCE18
ECCE18
ECCE18
ECCC18
EDCC18
EF8C18
4D0818
0C1819
0C1819
0C301F
0C300F
0C6006
ENDCHAR
STARTCHAR C2178
ENCODING 8568
SWIDTH 400 0
DWIDTH 24 0
BBX 24 24 0 -2
BITMAP
040060
0600E0
0300C0
018180
018308
7FFFFC
001800
001800
001800
001800
001800
001800
001806
FFFFFF
001800
001800
001800
001800
001800
001800
001800
001800
001800
001000
ENDCHAR
STARTCHAR C2179
ENCODING 8569
SWIDTH 400 0
DWIDTH 24 0
BBX 24 24 0 -2
BITMAP
060000
061804
0C1FFE
0C1806
181806
301806
639806
439806
071806
061806
0C1806
1C1806
1C1806
3C180E
6C187E
CC180C
0C1800
0C1800
0C1800
0C1801
0C1801
0C1FFF
0C0FFF
0C07FE
ENDCHAR
STARTCHAR C217a
ENCODING 8570
SWIDTH 400 0
DWIDTH 24 0
BBX 24 24 0 -2
BITMAP
0E1004
0E1C07
0C1806
0C1806
0C1806
0C9806
FFD806
0C1806
0C1806
0C1806
0C1806
0F9806
3E1806
FC1806
EC1806
4C1806
0C1806
0C1806
0C1806
0C1806
0C1806
FC3FFE
3C1006
180006
ENDCHAR
STARTCHAR C217b
ENCODING 8571
SWIDTH 400 0
DWIDTH 24 0
BBX 24 24 0 -2
BITMAP
0E0007
0E1807
0C1C06
0C1806
0C1806
0C9806
FFD806
0C1806
0C1806
0C1806
0C1806
0F9806
3E1806
FC1806
EC1806
4C1FFE
0C0006
0C0006
0C0006
0C0006
0C0006
FC0006
3C0006
180006
ENDCHAR
STARTCHAR C217c
ENCODING 8572
SWIDTH 400 0
DWIDTH 24 0
BBX 24 24 0 -2
BITMAP
000000
300038
3FFFFC
300018
300018
300018
300018
3FFFF8
301818
301818
301818
301818
3FFFF8
383818
301800
001800
001800
001800
001800
001800
001800
001800
001800
001000
ENDCHAR
STARTCHAR C217d
ENCODING 8573
SWIDTH 400 0
DWIDTH 24 0
BBX 24 24 0 -2
BITMAP
001800
201808
38180E
30180C
30180C
30180C
30180C
7FFFFC
203808
007C00
007E00
00FF00
01DB80
0399C0
0318E0
061870
0C1838
18181F
30180F
601806
C01800
001800
001800
001000
ENDCHAR
STARTCHAR C217e
ENCODING 8574
SWIDTH 400 0
DWIDTH 24 0
BBX 24 24 0 -2
BITMAP
000038
0001FC
001FC0
001800
001800
001800
001800
001804
7FFFFE
003800
003C00
007C00
00DA00
00DB00
019980
0318C0
061860
0C1830
18181F
30180F
601806
801800
001800
001000
ENDCHAR
STARTCHAR C2221
ENCODING 8737
SWIDTH 400 0
DWIDTH 24 0
BBX 24 24 0 -2
BITMAP
000000
000000
60000C
7FFFFE
60C30C
60C30C
60C30C
60C30C
60C30C
60C30C
60C30C
60C30C
60C30C
60C30C
60C30C
60C30C
60C30C
60C30C
60C30C
61C70C
7FFFFC
60000C
000000
000000
ENDCHAR
STARTCHAR C2222
ENCODING 8738
SWIDTH 400 0
DWIDTH 24 0
BBX 24 24 0 -2
BITMAP
020000
E71830
FF9FF8
E31838
E61838
E61838
E41838
EC1838
EC1838
E41838
E61838
E31838
E31838
E39838
E39838
E39838
E39838
FF1038
E63038
E03039
E02039
E0603F
E0C01F
C1800E
ENDCHAR
STARTCHAR C2223
ENCODING 8739
SWIDTH 400 0
DWIDTH 24 0
BBX 24 24 0 -2
BITMAP
020E00
E70E00
FF8E00
E30E00
E60E00
E60E10
E47FF8
EC0E38
EC0E38
E40E38
E60E38
E30E38
E30E38
E38C38
E38C38
E38C38
E39838
FF1838
E61838
E03039
E02039
E0403F
E0801F
C1000E
ENDCHAR
STARTCHAR C2224
ENCODING 8740
SWIDTH 400 0
DWIDTH 24 0
BBX 24 24 0 -2
BITMAP
000000
000007
FFFFFF
001800
001800
201808
3FFFFC
30301C
30300C
30300C
30660C
30630C
30438C
30C1CC
3180EC
3300EC
36006C
3C000C
30000C
30000C
30000C
3FFFFC
30001C
200008
ENDCHAR
STARTCHAR C2225
ENCODING 8741
SWIDTH 400 0
DWIDTH 24 0
BBX 24 24 0 -2
BITMAP
0001F0
019FF8
01F800
018018
01FFFC
018018
018018
318018
39FFF8
318018
318018
31FFF8
318010
31800C
3FFFFE
31800E
03800C
03000C
03000C
06000C
0C000C
1803FC
300078
E00030
ENDCHAR
STARTCHAR C2226
ENCODING 8742
SWIDTH 400 0
DWIDTH 24 0
BBX 24 24 0 -2
BITMAP
000020
0001F8
003FF8
1FF800
1C0000
1C00F8
1C8FFC
1CFC00
1CC800
1CCC00
1CCC08
1CC418
1CC630
1CC260
1CC380
1CC300
18C180
18C0C0
18C060
30C338
30DC1C
60F00F
60E006
C04000
ENDCHAR
STARTCHAR C2227
ENCODING 8743
SWIDTH 400 0
DWIDTH 24 0
BBX 24 24 0 -2
BITMAP
0001F8
001FFC
07FE00
3E1800
001800
001800
001808
01981C
03983C
061870
0C1CC0
381F00
E01A00
001B00
009980
01D8C0
031860
0E183C
18181F
60180F
801802
001800
001800
001000
ENDCHAR
STARTCHAR C2228
ENCODING 8744
SWIDTH 400 0
DWIDTH 24 0
BBX 24 24 0 -2
BITMAP
000000
00C000
7FE000
01C004
03B00E
033FFF
0631C6
0631C6
0C31C6
1C31C6
1831C6
303FFE
3031C6
6031C6
6031C6
E031C6
C031C6
C03FFE
C02001
C00001
C00003
7FFFFF
3FFFFF
1FFFFE
ENDCHAR
STARTCHAR C2229
ENCODING 8745
SWIDTH 400 0
DWIDTH 24 0
BBX 24 24 0 -2
BITMAP
070380
070380
060300
060300
0C0300
0C4306
1C7FFF
1CC306
3CC30C
7C8308
7C0300
DC0380
1C07E0
1C07C0
1C07C0
1C0FC0
1C0DC0
1C1DC0
1C19C0
1C31C1
1C31C1
1C61FF
1CC0FF
1B807E
ENDCHAR
STARTCHAR C222a
ENCODING 8746
SWIDTH 400 0
DWIDTH 24 0
BBX 24 24 0 -2
BITMAP
070000
072007
067FFF
067000
0C7000
0C740E
1C77FF
1C7606
3C7606
7C7606
7C7606
DC7606
1C7606
1C7606
1C76FE
1C661C
1C6608
1C6600
1CC601
1CC601
1C8603
1D87FF
1D03FF
1B01FE
ENDCHAR
STARTCHAR C222b
ENCODING 8747
SWIDTH 400 0
DWIDTH 24 0
BBX 24 24 0 -2
BITMAP
071040
071C20
061830
063818
0C300C
0C700E
1C6007
1CC007
3DBFF8
7D0C00
7C1800
DC1808
1C3FFC
1C101C
1C000C
1C000C
1C000C
1C0018
1C0018
1C0018
1C0030
1C1FF0
1C03E0
1801C0
ENDCHAR
STARTCHAR C222c
ENCODING 8748
SWIDTH 400 0
DWIDTH 24 0
BBX 24 24 0 -2
BITMAP
001800
001800
001806
FFFFFF
001800
3FFFFC
30180C
30180C
30180C
3018FC
30183C
201818
001000
001000
001C00
003800
003800
006400
00C300
018180
0300E0
0E007F
18001F
E00007
ENDCHAR
STARTCHAR C222d
ENCODING 8749
SWIDTH 400 0
DWIDTH 24 0
BBX 24 24 0 -2
BITMAP
038004
03800E
077FFE
060E00
060E00
0C0E00
1C0C00
1C0C38
3C0FF8
3C0C38
6C1838
4C1838
8C1830
0C1830
0C1830
0C3FF0
0C1060
0C0060
0C0060
0C0060
0C0060
0C0062
0CFFFF
0C0000
ENDCHAR
STARTCHAR C222e
ENCODING 8750
SWIDTH 400 0
DWIDTH 24 0
BBX 24 24 0 -2
BITMAP
070000
070007
067FFF
067008
0C700C
0C740C
1C721C
1C7318
3C7198
7C70F8
7C70F0
DC7070
1C7070
1C7070
1C70F8
1C7198
1C710C
1C720C
1C740C
1C7800
1C7000
1C7FFE
1C3FFF
181FFF
ENDCHAR
STARTCHAR C222f
ENCODING 8751
SWIDTH 400 0
DWIDTH 24 0
BBX 24 24 0 -2
BITMAP
070000
072004
067FFE
067006
0C7006
0C7006
1C7006
1C7006
3C7606
7C7306
7C7186
DC70C6
1C7066
1C7066
1C7026
1C7006
1C7006
1C7006
1C7006
1C7006
1C7006
1C7FFE
1C6004
180000
ENDCHAR
STARTCHAR C2230
ENCODING 8752
SWIDTH 400 0
DWIDTH 24 0
BBX 24 24 0 -2
BITMAP
0381C0
0381C0
070180
060180
060186
0C01FF
1C0180
1C0180
3C0180
3C018C
6C7FFE
4C180C
8C080C
0C0818
0C0C18
0C0630
0C0360
0C03C0
0C01C0
0C03E0
0C0638
0C1C1F
0C700F
0DC007
ENDCHAR
STARTCHAR C2231
ENCODING 8753
SWIDTH 400 0
DWIDTH 24 0
BBX 24 24 0 -2
BITMAP
0E3860
0E3860
0C3060
1C7060
186060
186060
30C060
30C060
71C060
71C060
F3C0E0
B2C0E0
30C0F0
30C0F0
30C1D0
30C198
30C198
30C198
30C30C
30C30C
30C60E
30C407
30C807
30D003
ENDCHAR
STARTCHAR C2232
ENCODING 8754
SWIDTH 400 0
DWIDTH 24 0
BBX 24 24 0 -2
BITMAP
00C300
00C300
00C300
00C304
61C30E
7FC3FF
60C306
60C306
60C306
60C306
60C306
60C306
7FC3FE
61C306
018304
018300
018300
030300
030301
060301
0C0303
1803FF
3003FF
E001FE
ENDCHAR
STARTCHAR C2233
ENCODING 8755
SWIDTH 400 0
DWIDTH 24 0
BBX 24 24 0 -2
BITMAP
040000
060038
07FFF8
060000
060000
060040
07FFE0
060000
060000
060000
060006
FFFFFF
000000
010300
038380
038300
038300
030300
030301
060301
0C0303
1803FF
3001FF
E000FE
ENDCHAR
STARTCHAR C2234
ENCODING 8756
SWIDTH 400 0
DWIDTH 24 0
BBX 24 24 0 -2
BITMAP
000600
01C300
018180
0300C0
060060
0C003C
18001F
300007
EFFFF0
001800
001800
001800
001800
001806
FFFFFF
003000
006000
00E180
01C060
038038
07001C
0E000E
180006
600003
ENDCHAR
STARTCHAR C2235
ENCODING 8757
SWIDTH 400 0
DWIDTH 24 0
BBX 24 24 0 -2
BITMAP
000600
01C300
018180
0300C0
060060
0C1C3C
18181F
301807
E01810
1FFFF8
183838
181838
181838
181838
181838
1FFFF8
183830
101800
001800
001800
001800
001800
001800
001000
ENDCHAR
STARTCHAR C2236
ENCODING 8758
SWIDTH 400 0
DWIDTH 24 0
BBX 24 24 0 -2
BITMAP
040040
0600E0
07FFE0
060060
060060
063060
063FE0
063060
063060
063060
6E30EC
7FFFFE
60000C
60000C
60000C
60000C
60000C
60000C
60000C
60000C
60000C
6001FC
60003C
600018
ENDCHAR
STARTCHAR C2237
ENCODING 8759
SWIDTH 400 0
DWIDTH 24 0
BBX 24 24 0 -2
BITMAP
000000
200006
3FFFFF
600007
C00004
C00408
01C200
01C300
018180
0300C0
060060
0C403C
18701F
30600E
60E004
00C000
00C080
0180C0
030060
060030
0C3FF8
1FE038
1C0010
040000
ENDCHAR
STARTCHAR C2238
ENCODING 8760
SWIDTH 400 0
DWIDTH 24 0
BBX 24 24 0 -2
BITMAP
000000
000200
600100
300180
3800C0
1800E0
021860
061860
041800
0C1800
0C1800
189800
189800
109808
30980C
F19806
F19807
639803
33980B
331819
331C10
301FF8
300FF0
000000
ENDCHAR
STARTCHAR C2239
ENCODING 8761
SWIDTH 400 0
DWIDTH 24 0
BBX 24 24 0 -2
BITMAP
070007
070007
060006
0601C6
0611C6
FFF9C6
0601C6
0601C6
0601C6
0631C6
7FF9C6
3071C6
1071C6
0861C6
0CE1C6
06C1C6
0381C6
038186
03C006
06E006
0C7006
18387E
60183C
800008
ENDCHAR
STARTCHAR C223a
ENCODING 8762
SWIDTH 400 0
DWIDTH 24 0
BBX 24 24 0 -2
BITMAP
038007
038007
030006
0309C6
FFFDC6
0301C6
0301C6
6311C6
7FF9C6
6319C6
6319C6
6319C6
6319C6
6319C6
6319C6
6319C6
6319C6
631986
63F806
637006
636006
03007E
03003C
030008
ENDCHAR
STARTCHAR C223b
ENCODING 8763
SWIDTH 400 0
DWIDTH 24 0
BBX 24 24 0 -2
BITMAP
018007
08C007
1C6006
1C31C6
1819C6
181DC6
300DC6
300DC6
6021C6
DFF1C6
0C39C6
0C31C6
0C31C6
0C31C6
0C31C6
0C31C6
0C31C6
1C3186
183006
103006
307006
33E07E
61C03C
C08008
ENDCHAR
STARTCHAR C223c
ENCODING 8764
SWIDTH 400 0
DWIDTH 24 0
BBX 24 24 0 -2
BITMAP
1C7007
1C7007
1C7006
1C70E6
1C70E6
1C74C6
7FFCC6
1C70C6
1C70C6
1C70C6
1C70C6
1C70C6
1C70C6
FFFEC6
1C70C6
1C70C6
1870C6
1870C6
187006
307006
307006
30707E
60703C
C06008
ENDCHAR
STARTCHAR C223d
ENCODING 8765
SWIDTH 400 0
DWIDTH 24 0
BBX 24 24 0 -2
BITMAP
003007
603007
386006
0CC1C6
0781C6
03C1C6
06E1C6
0C71C6
1839C6
3019C6
C001C6
0021C6
0079C6
6071C6
3861C6
0C61C6
07C1C6
03C186
03E006
067006
0C3806
181C7E
300C3C
E00008
ENDCHAR
STARTCHAR C223e
ENCODING 8766
SWIDTH 400 0
DWIDTH 24 0
BBX 24 24 0 -2
BITMAP
038007
038007
033006
03F9C6
1F01C6
7301C6
0301C6
0301C6
0319C6
7FF9C6
0301C6
0301C6
0301C6
0309C6
FFFDC6
0301C6
0601C6
060186
060006
0C0006
0C0006
18007E
30003C
E00008
ENDCHAR
STARTCHAR C223f
ENCODING 8767
SWIDTH 400 0
DWIDTH 24 0
BBX 24 24 0 -2
BITMAP
0C00E0
0600E0
0600C0
FFF0C0
0000C0
0000C2
0007FF
30C0C7
3FE0C7
30C0C7
30C0C7
30C0C7
30C0C7
30C0C7
30C1C7
30C1C7
30C187
30C187
30DB07
30F307
60E606
60447E
C0083C
801018
ENDCHAR
STARTCHAR C2240
ENCODING 8768
SWIDTH 400 0
DWIDTH 24 0
BBX 24 24 0 -2
BITMAP
3000E0
3000E0
3020C0
3FF0C0
6000C0
4000C2
8067FF
7FE0C7
0000C7
0000C7
00C0C7
7FE0C7
01C0C7
0380C7
0601C7
0C01C7
180187
300187
601307
E03307
E02606
7FF47E
3FE83C
001018
ENDCHAR
STARTCHAR C2241
ENCODING 8769
SWIDTH 400 0
DWIDTH 24 0
BBX 24 24 0 -2
BITMAP
0040E0
03E0E0
7FE0C0
0600C0
0600C0
0600C2
0607FF
0770C7
7FF0C7
0600C7
0600C7
0600C7
0630C7
FFF8C7
0601C7
0601C7
060187
060187
060307
060307
060606
7E047E
1E083C
0C1018
ENDCHAR
STARTCHAR C2242
ENCODING 8770
SWIDTH 400 0
DWIDTH 24 0
BBX 24 24 0 -2
BITMAP
0060E0
03F0E0
3F80C0
3000C0
3000C0
3000C2
3003FF
3030C7
3FF0C7
30C0C7
30C0C7
30C0C7
30C0C7
30C0C7
30C1C7
30C1C7
30C187
20C187
60C307
60C307
60C606
C0C4FE
C0C83C
809018
ENDCHAR
STARTCHAR C2243
ENCODING 8771
SWIDTH 400 0
DWIDTH 24 0
BBX 24 24 0 -2
BITMAP
000004
60000E
7FFFFE
600000
602100
607080
6060C0
60C060
618038
631C1E
661C0C
6C1804
603800
603000
606080
604040
60C020
6181F0
63FF18
67C018
630008
600002
7FFFFF
000000
ENDCHAR
STARTCHAR C2244
ENCODING 8772
SWIDTH 400 0
DWIDTH 24 0
BBX 24 24 0 -2
BITMAP
001800
001800
001800
001800
003807
FFFFFF
001800
0C1860
0E1870
0C1860
0C1860
0D9866
FFDBFE
0C1860
0C1860
0C1860
0C1860
0C1860
0C1860
0C1860
0C1860
001800
001800
001000
ENDCHAR
STARTCHAR C2245
ENCODING 8773
SWIDTH 400 0
DWIDTH 24 0
BBX 24 24 0 -2
BITMAP
008004
01C01E
1FC0FE
7607E0
060060
060060
060060
060060
060062
FFE7FF
0E0070
060060
060060
060060
060060
060060
060060
0C0060
0C0060
180060
180060
300060
600060
C00060
ENDCHAR
STARTCHAR C2246
ENCODING 8774
SWIDTH 400 0
DWIDTH 24 0
BBX 24 24 0 -2
BITMAP
000104
F3C18E
E381FF
E38186
E38186
E38186
E38186
E38186
EB9986
FFFD86
E38186
E38186
E38186
E38186
E38186
E38186
E38186
E385FE
E7859C
FB8D88
F3FD80
E1FD80
400180
000180
ENDCHAR
STARTCHAR C2247
ENCODING 8775
SWIDTH 400 0
DWIDTH 24 0
BBX 24 24 0 -2
BITMAP
200000
300007
3FFFFF
300E00
300E00
300E00
301B00
301980
3030C0
306060
30C038
31C09F
3760EF
3C60C2
3060C0
3060C0
2060C0
60E0C0
60C0C0
60C0C0
4180C0
C300C0
8600C0
0C00C0
ENDCHAR
STARTCHAR C2248
ENCODING 8776
SWIDTH 400 0
DWIDTH 24 0
BBX 24 24 0 -2
BITMAP
003800
003800
007000
006000
00C080
0180C0
030060
060030
1FFFF8
1FC018
0C0008
000000
040000
070070
060070
0E0060
0C0060
1C00C0
180188
30810C
604206
FFE7FF
F07783
603603
ENDCHAR
STARTCHAR C2249
ENCODING 8777
SWIDTH 400 0
DWIDTH 24 0
BBX 24 24 0 -2
BITMAP
000030
3800E0
0783C0
00FF00
003E00
003FE0
00E0F8
03803C
3CC00C
60E000
00C000
00C006
FFFFFF
00C000
018F00
018E00
030C00
031C00
063830
0C7018
18E00C
31FFFE
E1F806
81C000
ENDCHAR
STARTCHAR C224a
ENCODING 8778
SWIDTH 400 0
DWIDTH 24 0
BBX 24 24 0 -2
BITMAP
060060
060060
0C0060
0C00C0
1800C0
31818C
60C306
C3E63F
FE7FE3
603603
000000
010100
03FF80
038180
038180
038180
038180
030180
030181
060181
0C0183
1801FF
3001FF
E0007E
ENDCHAR
STARTCHAR C224b
ENCODING 8779
SWIDTH 400 0
DWIDTH 24 0
BBX 24 24 0 -2
BITMAP
0003F0
007FF8
3FF800
004038
107038
0C3870
061860
0608C0
020000
0FFFC0
0600E0
0200C0
0301C0
018180
00C300
00E700
007E00
003C00
003E00
006700
01C1E0
0700FF
1C003F
F0000E
ENDCHAR
STARTCHAR C224c
ENCODING 8780
SWIDTH 400 0
DWIDTH 24 0
BBX 24 24 0 -2
BITMAP
003000
001800
001802
FFFFFF
1C0000
1C0000
1C0000
1C0000
1C0000
1FFFF0
0FFFF8
07FFF8
000000
080030
1FFFF8
1C0038
1C0038
1C0038
1C0038
1C0038
1C0038
1FFFF8
1C0030
180000
ENDCHAR
STARTCHAR C224d
ENCODING 8781
SWIDTH 400 0
DWIDTH 24 0
BBX 24 24 0 -2
BITMAP
000020
000070
3FFFF8
000030
000030
300030
3FFFF0
300000
300004
300004
38000C
1FFFFC
0FFFFC
000000
100010
1FFFF8
180038
180038
180038
180038
180038
1FFFF8
180030
180000
ENDCHAR
STARTCHAR C224e
ENCODING 8782
SWIDTH 400 0
DWIDTH 24 0
BBX 24 24 0 -2
BITMAP
000000
000007
FFFFFF
003000
003000
003F00
0033C0
0030E0
003030
003010
003000
003000
003000
100030
1FFFF8
180038
180038
180038
180038
180038
180038
1FFFF8
180030
180000
ENDCHAR
STARTCHAR C224f
ENCODING 8783
SWIDTH 400 0
DWIDTH 24 0
BBX 24 24 0 -2
BITMAP
003800
003800
003000
003000
003030
003FF8
003000
003000
003000
003000
003007
FFFFFF
000000
100030
1FFFF8
180038
180038
180038
180038
180038
180038
1FFFF8
180030
180000
ENDCHAR
STARTCHAR C2250
ENCODING 8784
SWIDTH 400 0
DWIDTH 24 0
BBX 24 24 0 -2
BITMAP
000008
00001C
001FFC
C30000
FF0000
E30000
E30006
E3FFFF
E30600
E30600
E30E00
E30C0C
E30FFE
E3080E
E3000C
E3000C
E3000C
FF000C
E2000C
40000C
00000C
0007FC
000078
000030
ENDCHAR
STARTCHAR C2251
ENCODING 8785
SWIDTH 400 0
DWIDTH 24 0
BBX 24 24 0 -2
BITMAP
00001C
1E007E
1C03F0
1C1F00
1C0300
1C0300
1C0300
1F0300
7F0300
1C0306
1C03FF
1C7F00
1C0300
1C0300
1C0300
1C8300
1F0300
3C0300
F00301
E00301
000303
0003FF
0001FF
0000FE
ENDCHAR
STARTCHAR C2252
ENCODING 8786
SWIDTH 400 0
DWIDTH 24 0
BBX 24 24 0 -2
BITMAP
000020
000070
1FFFF8
000030
000030
0FFFF0
000030
000037
FFFFFF
01C000
018030
03FFF8
030038
060070
0CE060
3830C0
601980
000300
000E00
001800
00F000
03C000
0E0000
F00000
ENDCHAR
STARTCHAR C2253
ENCODING 8787
SWIDTH 400 0
DWIDTH 24 0
BBX 24 24 0 -2
BITMAP
007000
007000
006002
FFFFFF
00E300
00C180
0180C0
038060
070030
0E1C1C
1C1C0F
381807
E01802
041800
061860
0E1830
0C1818
18180C
10180C
201804
401800
01F800
007800
003000
ENDCHAR
STARTCHAR C2254
ENCODING 8788
SWIDTH 400 0
DWIDTH 24 0
BBX 24 24 0 -2
BITMAP
003800
007000
01C080
0703C0
060700
031C00
00F800
00E060
018030
0603F8
3FFF0C
1FC00C
081804
001800
001802
FFFFFF
003000
007000
0061C0
00C060
01803C
06000E
1C0006
F00003
ENDCHAR
STARTCHAR C2255
ENCODING 8789
SWIDTH 400 0
DWIDTH 24 0
BBX 24 24 0 -2
BITMAP
000180
3800C0
3820C2
303FFF
323000
333000
FFB000
FB3000
333000
333000
333000
333000
733000
663000
663000
E63000
3C3000
1E3000
1F7000
336000
21E000
404000
80C000
018000
ENDCHAR
STARTCHAR C2256
ENCODING 8790
SWIDTH 400 0
DWIDTH 24 0
BBX 24 24 0 -2
BITMAP
000000
38000C
381FFC
3001C0
3201C0
3301C0
FF81C0
FB01C0
3301C2
337FFF
3301C0
3301C0
7301C0
6601C0
6601C0
E601C0
3C01C0
1E01C0
1F01C0
3301C0
2181C0
401FC0
800780
000300
ENDCHAR
STARTCHAR C2257
ENCODING 8791
SWIDTH 400 0
DWIDTH 24 0
BBX 24 24 0 -2
BITMAP
0001C0
3801C0
380180
300300
310300
338300
FFC600
FB8660
338670
338C60
338860
3398C0
7311C0
633180
676380
E60300
3E0300
0E0618
1F0C0C
138C06
21983F
403FF3
801C03
000801
ENDCHAR
STARTCHAR C2258
ENCODING 8792
SWIDTH 400 0
DWIDTH 24 0
BBX 24 24 0 -2
BITMAP
380000
380380
300388
30030C
33830C
3FDFFF
61830C
61830C
418318
C18618
838E18
039E30
030BF0
0300F0
0700DC
07038E
068E07
0CD800
186000
183000
301C00
600FFF
C003FF
80007C
ENDCHAR
STARTCHAR C2259
ENCODING 8793
SWIDTH 400 0
DWIDTH 24 0
BBX 24 24 0 -2
BITMAP
000000
380007
387FFF
300E38
320E38
330E38
FF8E38
FB0E38
330E38
330E38
330E38
330E38
730E38
660C38
660C38
E60C38
3C1838
1E1838
1F1838
333038
21B038
406038
80C038
018030
ENDCHAR
STARTCHAR C225a
ENCODING 8794
SWIDTH 400 0
DWIDTH 24 0
BBX 24 24 0 -2
BITMAP
003000
201806
3FFFFF
600007
E00004
C00000
9FFFF8
0F0000
070000
060008
0C001C
0FFFFC
18000C
10000C
20000C
40000C
00000C
00000C
00000C
00000C
000018
0003F8
0000F0
000060
ENDCHAR
STARTCHAR C225b
ENCODING 8795
SWIDTH 400 0
DWIDTH 24 0
BBX 24 24 0 -2
BITMAP
003000
001800
201802
3FFFFF
600007
E08006
C0E00C
00C000
00C000
01C0C0
01FFE0
018060
038060
030060
0300C0
0300C0
0600C0
07FFC0
0601C0
000180
000180
000180
000187
FFFFFF
ENDCHAR
STARTCHAR C225c
ENCODING 8796
SWIDTH 400 0
DWIDTH 24 0
BBX 24 24 0 -2
BITMAP
001800
001800
001800
001830
001FF8
001800
001800
001800
001806
FFFFFF
001000
001C00
001800
001800
0E1840
0C1870
0C1838
18181C
10180C
20180C
401804
83F800
00F000
006000
ENDCHAR
STARTCHAR C225d
ENCODING 8797
SWIDTH 400 0
DWIDTH 24 0
BBX 24 24 0 -2
BITMAP
1C0000
1C0004
1C0FFE
1C0060
1C0060
1C4060
FFE060
1F8062
1F9FFF
1F8060
1F8060
1F8060
1F8060
1B8060
1B8060
1B8060
338060
338FE0
3383C1
338081
638003
63FFFF
C1FFFF
80FFFE
ENDCHAR
STARTCHAR C225e
ENCODING 8798
SWIDTH 400 0
DWIDTH 24 0
BBX 24 24 0 -2
BITMAP
200008
30001C
3FFFFC
30000C
30000C
30000C
30000C
3FFFFC
300008
300000
300000
320008
33FFFC
33001C
33000C
33000C
63000C
63000C
63000C
43000C
C3000C
83FFFC
83001C
030008
ENDCHAR
STARTCHAR C225f
ENCODING 8799
SWIDTH 400 0
DWIDTH 24 0
BBX 24 24 0 -2
BITMAP
0601C0
0301C0
018180
018306
FFFFFF
001800
001800
301818
38181C
301818
301818
301818
301818
301818
3FFFF8
303018
003000
006000
006000
00C000
018000
030000
060000
380000
ENDCHAR
STARTCHAR C2260
ENCODING 8800
SWIDTH 400 0
DWIDTH 24 0
BBX 24 24 0 -2
BITMAP
000000
0E000C
0C0FFC
0C00C0
0C00C0
4C80C0
ECC0C0
ECC0C0
ECC0C0
ECC0C2
ECFFFF
ECC0C0
ECC0C0
ECC0C0
ECC0C0
ECC0C0
ECC0C0
ECC0C0
FFC0C0
0080C0
0000C0
0000C0
0000C0
0000C0
ENDCHAR
STARTCHAR C2261
ENCODING 8801
SWIDTH 400 0
DWIDTH 24 0
BBX 24 24 0 -2
BITMAP
001800
301818
38181C
301818
301818
301818
3FFFF8
000018
060080
07FFC0
0701C0
0601C0
0601C0
0641C0
0639C0
061DC0
060DC0
0601C0
0601C0
0C01C1
0C01C1
1801FF
3000FF
E0007E
ENDCHAR
STARTCHAR C2262
ENCODING 8802
SWIDTH 400 0
DWIDTH 24 0
BBX 24 24 0 -2
BITMAP
040C18
0C1818
081030
102060
103060
181830
0C1838
040810
000000
1FFFF8
18001C
180018
180018
180018
180018
1FFFF8
180018
180018
180018
180018
180018
1801F8
180078
180030
ENDCHAR
STARTCHAR C2263
ENCODING 8803
SWIDTH 400 0
DWIDTH 24 0
BBX 24 24 0 -2
BITMAP
000000
000038
01DFFC
FFC618
0C0618
0C0618
0C0618
0C0618
0C1E18
0C0E18
0C0718
0C0798
0C07D8
0C06D8
0C0658
0C0618
0C0E18
0DCE18
FF0C18
F00819
601819
00301F
00600F
00C006
ENDCHAR
STARTCHAR C2264
ENCODING 8804
SWIDTH 400 0
DWIDTH 24 0
BBX 24 24 0 -2
BITMAP
0E0000
0E0006
0C1FFE
0C80C0
4DC0C0
FFC0C0
ECC0C0
ECC0C0
ECC0C0
ECC0C2
ECFFFF
ECC0C0
ECC0C0
ECC0C0
ECC0C0
ECC0C0
EDC0C0
EF80C0
4D00C0
0C00C0
0C00C0
0C00C0
0C00C0
0C00C0
ENDCHAR
STARTCHAR C2265
ENCODING 8805
SWIDTH 400 0
DWIDTH 24 0
BBX 24 24 0 -2
BITMAP
0E0000
0E0007
0C0FFF
0C81C7
4DC1C7
FFC1C7
ECC1C7
ECD9C7
ECCDC7
ECC7C7
ECC7C7
ECC3C7
ECC187
ECC187
ECC387
ECC307
EDC307
EF8607
4D0E06
0C0C0E
0C180C
0C31FC
0C6078
0DC030
ENDCHAR
STARTCHAR C2266
ENCODING 8806
SWIDTH 400 0
DWIDTH 24 0
BBX 24 24 0 -2
BITMAP
003000
001800
000806
FFFFFF
1C0000
1C0000
1C0000
1C0000
1FFFF8
0FFFFC
003C00
001C00
001818
3FFFFC
301818
301818
301818
301818
301818
301818
301BF8
301870
301820
001000
ENDCHAR
STARTCHAR C2267
ENCODING 8807
SWIDTH 400 0
DWIDTH 24 0
BBX 24 24 0 -2
BITMAP
040000
070070
0E0070
0C00E0
1C00C0
180180
300180
20C304
E0E606
E0C60C
31830C
1981D8
0F0078
070030
060070
0E0060
0C00C0
1900C8
30818C
304306
67E67F
FC7FE3
E02601
000200
ENDCHAR
STARTCHAR C2268
ENCODING 8808
SWIDTH 400 0
DWIDTH 24 0
BBX 24 24 0 -2
BITMAP
001800
000C00
300C06
3FFFFF
300000
300004
37FFFE
300E00
300E00
300E00
300E00
300F00
300EC0
300E70
300E38
300E1C
300E0C
600E00
600E00
600E00
600E00
C00E00
800E00
000C00
ENDCHAR
STARTCHAR C2269
ENCODING 8809
SWIDTH 400 0
DWIDTH 24 0
BBX 24 24 0 -2
BITMAP
001800
000C00
300C06
3FFFFF
300000
300000
30000C
33FFFE
33800E
33800C
33800C
33800C
33800C
33800C
33800C
33800C
33800C
63800C
63800C
63800C
63FFFC
C3800C
810000
000000
ENDCHAR
STARTCHAR C226a
ENCODING 8810
SWIDTH 400 0
DWIDTH 24 0
BBX 24 24 0 -2
BITMAP
020000
07000C
FF8FFC
0300C0
0300C0
0300C0
0300C0
7F00C0
6200C0
6000C2
603FFF
E300C0
FF80C0
0380C0
0380C0
0380C0
0380C0
0380C0
0380C0
0300C0
0700C0
FE00C0
3C00C0
1800C0
ENDCHAR
STARTCHAR C226b
ENCODING 8811
SWIDTH 400 0
DWIDTH 24 0
BBX 24 24 0 -2
BITMAP
020000
07000C
FF8FFC
0300C0
0300C0
0300C0
0300C0
7F00C0
6200C2
601FFF
6000C0
E300C0
FF80C0
0380C0
0380C0
0380C0
0380C0
0380C0
0380C0
0300C0
0700C0
FE0FC0
3C03C0
180180
ENDCHAR
STARTCHAR C226c
ENCODING 8812
SWIDTH 400 0
DWIDTH 24 0
BBX 24 24 0 -2
BITMAP
008000
01C00C
FFC7FE
00C00C
00C00C
00C00C
00C20C
7FC3FC
608300
600300
600600
E0C60E
FFE7FF
00C006
00C006
00C006
00C006
00C006
00C006
00C00E
01C00C
3F83FC
0F0078
060030
ENDCHAR
STARTCHAR C226d
ENCODING 8813
SWIDTH 400 0
DWIDTH 24 0
BBX 24 24 0 -2
BITMAP
0600E0
0600E0
0C1CC0
0C18C0
1818C0
3018C2
6398FF
43BFC7
0778C7
0618C7
0C18C6
1C18C6
1C18C4
3C18CC
6C18C8
CC18C0
0C18C0
0C1800
0C1801
0C1801
0C1803
0C1FFF
0C1FFF
0C0FFE
ENDCHAR
STARTCHAR C226e
ENCODING 8814
SWIDTH 400 0
DWIDTH 24 0
BBX 24 24 0 -2
BITMAP
0601C0
0601C0
0C0180
0C0180
180180
300180
638180
438180
070184
067FFE
0C0180
1C0180
1C0180
3C0180
6C0180
CC0180
0C0180
0C0180
0C0180
0C0180
0C0180
0C0186
0CFFFF
0C0000
ENDCHAR
STARTCHAR C226f
ENCODING 8815
SWIDTH 400 0
DWIDTH 24 0
BBX 24 24 0 -2
BITMAP
000000
000038
1FFFFC
006018
006018
006018
00C018
00C018
018018
030018
060038
0C07F0
1800E0
600040
003800
039C00
038E00
23000C
230006
630023
E30063
C3FFC1
01FFE0
007FC0
ENDCHAR
STARTCHAR C2270
ENCODING 8816
SWIDTH 400 0
DWIDTH 24 0
BBX 24 24 0 -2
BITMAP
1C0E00
1C0E00
1C0C00
1C0C00
1C0C07
1C1FFF
3E1807
7F1807
7FB007
DD6007
DC0307
9C0187
1C01C7
1C0087
1C0007
1C0007
1C0007
1C0007
1C0006
1C0006
1C000E
1C03FC
1C0078
180030
ENDCHAR
STARTCHAR C2271
ENCODING 8817
SWIDTH 400 0
DWIDTH 24 0
BBX 24 24 0 -2
BITMAP
000000
000030
1FFFF8
000000
000000
000000
000000
000000
000000
000006
7FFFFE
000000
000000
001800
020C00
038E00
230400
23001C
63000E
630027
E30063
C3FFC3
01FFE0
007FC0
ENDCHAR
STARTCHAR C2272
ENCODING 8818
SWIDTH 400 0
DWIDTH 24 0
BBX 24 24 0 -2
BITMAP
0381C0
0381C0
0389D8
3FFDCC
0381CC
0381C4
0381C0
0381C7
FFFFFF
0001C0
0001C0
0001CE
0000CE
0000CC
0000DC
000078
000070
000070
0000F1
0001F1
0003BB
00061F
00180F
00F007
ENDCHAR
STARTCHAR C2273
ENCODING 8819
SWIDTH 400 0
DWIDTH 24 0
BBX 24 24 0 -2
BITMAP
1C0004
1C200E
1C7FFF
1C7006
1C7006
1D7006
FF7006
1C7006
1C7006
1C7006
1C7FFE
1F7006
1C7006
FC7006
FC7006
5C7006
1C7006
1C7006
1C7006
1C7006
1C7006
FC707E
38703C
306008
ENDCHAR
STARTCHAR C2274
ENCODING 8820
SWIDTH 400 0
DWIDTH 24 0
BBX 24 24 0 -2
BITMAP
1C01C0
1C01C0
1C01C0
1C01C0
1C21C6
1D7FFF
FF71C7
1C71C7
1C71C7
1C71C7
1C71C7
1F71C7
1C71C7
FC71C7
FC71C7
5C71C7
1C71C7
1C71C7
1C71DF
1C61C6
1C01C4
FC01C0
3801C0
300180
ENDCHAR
STARTCHAR C2275
ENCODING 8821
SWIDTH 400 0
DWIDTH 24 0
BBX 24 24 0 -2
BITMAP
1C0000
1C000C
1C3FFE
1C000C
1C000C
1D000C
FF100C
1C1FFC
1C1800
1C1800
1C3000
1F300E
1C3FFF
FC0006
FC0006
5C0006
1C0006
1C0006
1C0006
1C000C
1C001C
FC0FF8
3801F0
180060
ENDCHAR
STARTCHAR C2276
ENCODING 8822
SWIDTH 400 0
DWIDTH 24 0
BBX 24 24 0 -2
BITMAP
1C0038
1C0038
1C0038
1C0038
1C0038
1D0038
FF3FFF
1C0038
1C0038
1C0038
1C1838
1F0C38
1C0638
FC0638
FC0238
5C0038
1C0038
1C0038
1C0038
1C0038
1C0038
FC03F8
3800F0
180060
ENDCHAR
STARTCHAR C2277
ENCODING 8823
SWIDTH 400 0
DWIDTH 24 0
BBX 24 24 0 -2
BITMAP
0001C0
6001C0
700180
600180
600186
60FFFF
600180
638180
7F8180
60018C
603FFE
60180C
60080C
600818
600418
600630
618360
6601C0
7C01C0
7003E0
300638
001C1F
00700F
01C007
ENDCHAR
STARTCHAR C2278
ENCODING 8824
SWIDTH 400 0
DWIDTH 24 0
BBX 24 24 0 -2
BITMAP
000020
1C0070
1FFFF8
1C0030
1C0030
1C0030
1FFFF0
1C0030
1C0030
1C0030
0FFFF0
080020
1E0000
1C0000
1C0020
1FFFF0
1C0000
1C0000
1C0004
1C0004
1C000C
1FFFFC
0FFFFC
07FFF8
ENDCHAR
STARTCHAR C2279
ENCODING 8825
SWIDTH 400 0
DWIDTH 24 0
BBX 24 24 0 -2
BITMAP
0001C0
0001C0
410180
FF8180
E38180
E38182
E3BFFF
E38187
E38187
E38187
E38187
FF8387
E38307
E38307
E38307
E38307
E38607
E38607
FF8C07
C10C06
00180E
0031FC
006078
018030
ENDCHAR
STARTCHAR C227a
ENCODING 8826
SWIDTH 400 0
DWIDTH 24 0
BBX 24 24 0 -2
BITMAP
07000E
07000E
06000C
06038C
06638C
FFF30C
06030C
06030C
06030C
0F030C
0F830C
1EC30C
1E630C
16730C
36330C
36030C
66030C
46030C
86000C
06000C
06000C
0600FC
06003C
060018
ENDCHAR
STARTCHAR C227b
ENCODING 8827
SWIDTH 400 0
DWIDTH 24 0
BBX 24 24 0 -2
BITMAP
000020
1C0070
1FFFF8
1C0030
1C0030
1C0030
1C07F0
1C01E0
1C0044
1C0004
1C000C
0FFFFC
07FFFC
001000
001C00
001806
FFFFFF
001800
061840
061870
0C181C
18180E
601806
801000
ENDCHAR
STARTCHAR C227c
ENCODING 8828
SWIDTH 400 0
DWIDTH 24 0
BBX 24 24 0 -2
BITMAP
000000
010007
FFBFFF
180300
180300
190600
3F8600
3B8E00
338C04
338FFE
630806
730006
DF0006
8E0006
060006
060006
0C0006
0C000E
18000C
10000C
300018
600FF0
C003E0
8000C0
ENDCHAR
STARTCHAR C227d
ENCODING 8829
SWIDTH 400 0
DWIDTH 24 0
BBX 24 24 0 -2
BITMAP
000380
00C380
7FC300
1C0300
1C0300
1C8300
1FC300
19C300
30C300
31C380
218380
718380
DF87C0
8F06C0
070640
060E40
060C60
0C1C30
0C1830
183018
38601C
30C00F
618007
060003
ENDCHAR
STARTCHAR C227e
ENCODING 8830
SWIDTH 400 0
DWIDTH 24 0
BBX 24 24 0 -2
BITMAP
0007C0
00FFE0
07F000
003000
003030
1FFFF0
003008
00301C
3FFFFC
003001
003002
003FFE
001FFE
000000
03C380
038380
038300
030300
030300
060301
0C0301
1803FF
3001FF
E000FE
ENDCHAR
STARTCHAR C2321
ENCODING 8993
SWIDTH 400 0
DWIDTH 24 0
BBX 24 24 0 -2
BITMAP
0007C0
10FFE0
1FF800
181800
181830
1FFFF8
181800
180C00
180600
180304
18C1C4
1F007C
1C181C
081800
001800
001806
FFFFFF
001800
001800
001800
001800
001800
001800
001000
ENDCHAR
STARTCHAR C2322
ENCODING 8994
SWIDTH 400 0
DWIDTH 24 0
BBX 24 24 0 -2
BITMAP
000000
180007
0C7FFF
0C0307
000307
010307
810307
E22307
723307
361B07
061F07
040F07
0C0707
080307
180607
180607
300607
F00C07
300C06
30180E
38300C
3861FC
38C078
170030
ENDCHAR
STARTCHAR C2323
ENCODING 8995
SWIDTH 400 0
DWIDTH 24 0
BBX 24 24 0 -2
BITMAP
000008
18001C
0C0038
0C0070
0000C0
008380
808E00
E13800
71000E
33001C
020038
060060
0601C0
0C0300
0C1C00
183006
38000E
780018
300030
180060
1801C0
1C0700
181800
006000
ENDCHAR
STARTCHAR C2324
ENCODING 8996
SWIDTH 400 0
DWIDTH 24 0
BBX 24 24 0 -2
BITMAP
000040
0000E0
3FFFE0
018060
0180C4
0180FE
030086
030006
06000E
0C000C
1801FC
701C38
C01810
001818
181838
0E3060
0638C0
026400
00C200
018180
0300E0
0E007F
18001F
E00007
ENDCHAR
STARTCHAR C2325
ENCODING 8997
SWIDTH 400 0
DWIDTH 24 0
BBX 24 24 0 -2
BITMAP
001800
001800
003800
006400
00C200
018180
0300C0
060060
0C003C
18181F
301807
E01810
0C1838
061860
0338C0
013400
006200
00E300
01C180
0380E0
070070
0E003F
18000F
E00007
ENDCHAR
STARTCHAR C2326
ENCODING 8998
SWIDTH 400 0
DWIDTH 24 0
BBX 24 24 0 -2
BITMAP
06000E
06080E
360E0C
360C0C
360C0C
36CC0C
7FCC0C
660C0C
660C0C
C60C0C
860C0C
060C0C
07CC0C
0E0C0C
FE0C0C
F61FFC
46000C
06000C
06000C
06000C
06000C
06000C
06000C
04000C
ENDCHAR
STARTCHAR C2327
ENCODING 8999
SWIDTH 400 0
DWIDTH 24 0
BBX 24 24 0 -2
BITMAP
000E00
470E00
660C00
3C0C00
181C07
3C1FFF
6C1807
C63007
862007
064807
060C07
0F0707
1B0387
130187
2300C7
430007
830007
030007
030006
070006
06000E
7E01FC
3C0078
180030
ENDCHAR
STARTCHAR C2328
ENCODING 9000
SWIDTH 400 0
DWIDTH 24 0
BBX 24 24 0 -2
BITMAP
00001C
47007E
6603E0
3C3F00
180300
3C0300
6C0300
C60300
860300
060300
060387
0F7FFF
1B0300
130300
230300
430300
830300
030300
030301
070301
060303
7E03FF
3C01FF
1800FE
ENDCHAR
STARTCHAR C2329
ENCODING 9001
SWIDTH 400 0
DWIDTH 24 0
BBX 24 24 0 -2
BITMAP
00000E
00180E
011C0C
FF980C
1C180C
1C180C
1C180C
1C180C
1C180C
1C180C
7F180C
1C180C
1C180C
1C180C
1C180C
1C1FFC
1C000C
1F800C
FE000C
F0000C
60000C
00000C
00000C
00000C
ENDCHAR
STARTCHAR C232a
ENCODING 9002
SWIDTH 400 0
DWIDTH 24 0
BBX 24 24 0 -2
BITMAP
000000
0000C0
0100C0
FF8040
1C0060
1C0E60
1C0C60
1C0C60
1C0C20
1C0C20
7F0C30
1C1C30
1C1838
1C1838
1C1818
1C1818
1C1818
1FB00C
FE300C
F0600C
60600E
004007
00C007
018000
ENDCHAR
STARTCHAR C232b
ENCODING 9003
SWIDTH 400 0
DWIDTH 24 0
BBX 24 24 0 -2
BITMAP
00C000
01C000
018000
030000
060008
3FFFFC
30180C
30180C
30180C
30180C
30180C
30180C
30180C
3FFFFC
30180C
30180C
30180C
30180C
30180C
30180C
30180C
3FFFFC
300008
200000
ENDCHAR
STARTCHAR C232c
ENCODING 9004
SWIDTH 400 0
DWIDTH 24 0
BBX 24 24 0 -2
BITMAP
040060
0600E0
0300C0
018180
018304
7FFFFE
001800
001800
001800
001800
001800
001800
001818
3FFFFC
001800
001800
001800
001800
001800
001800
001800
001806
FFFFFF
000000
ENDCHAR
STARTCHAR C232d
ENCODING 9005
SWIDTH 400 0
DWIDTH 24 0
BBX 24 24 0 -2
BITMAP
000600
018300
01C100
038180
0300C0
070060
0E0038
1C001F
380007
E00062
07FFF0
060070
067060
061C60
060E60
060060
060060
061F60
06F860
06E060
0C4060
1807E0
3001E0
6000C0
ENDCHAR
STARTCHAR C232e
ENCODING 9006
SWIDTH 400 0
DWIDTH 24 0
BBX 24 24 0 -2
BITMAP
0700E0
0700E0
0660C2
FFE7FF
0600C0
0600C0
000040
0E0070
0C0060
0C0060
0C0060
0C0060
0C0060
0C0060
0C0060
0C0060
0C0060
0FFFE0
080060
000060
000060
000060
000060
000040
ENDCHAR
STARTCHAR C232f
ENCODING 9007
SWIDTH 400 0
DWIDTH 24 0
BBX 24 24 0 -2
BITMAP
0700E0
0700E0
0660C2
FFE7FF
0600C0
0600C0
000000
020180
03FFC0
0301C0
0301C0
0301C0
0301C0
0301C0
0301C0
0301C0
0301C0
0601C0
0601C1
0601C1
0C01C3
1801FF
3000FF
E0007E
ENDCHAR
STARTCHAR C2330
ENCODING 9008
SWIDTH 400 0
DWIDTH 24 0
BBX 24 24 0 -2
BITMAP
000000
000018
707FFC
380E3C
1C0E38
000E38
000E30
000E36
0C0E3F
FE0C06
1C0C06
181C06
301806
3E1806
7F300E
46300C
0C601C
0CC1F8
190030
380000
7F0000
E7FFFF
007FFC
001FF8
ENDCHAR
STARTCHAR C2331
ENCODING 9009
SWIDTH 400 0
DWIDTH 24 0
BBX 24 24 0 -2
BITMAP
060000
06060C
0607FE
06060C
060618
066618
FFE630
060620
060630
060618
06060C
07C604
1F0606
FE0606
E60607
460607
060606
06060E
0606FC
060618
060600
FE0600
3C0600
180600
ENDCHAR
STARTCHAR C2332
ENCODING 9010
SWIDTH 400 0
DWIDTH 24 0
BBX 24 24 0 -2
BITMAP
000000
03C60C
1FC7FE
76060C
060618
060618
060630
060620
060630
FFE618
0E060C
060604
060606
060606
060607
0E0607
0C0606
0C060E
0C06FC
180618
180600
300600
600600
C00600
ENDCHAR
STARTCHAR C2333
ENCODING 9011
SWIDTH 400 0
DWIDTH 24 0
BBX 24 24 0 -2
BITMAP
038000
03860C
0707FE
06060C
0C0618
188618
30E630
60C620
718630
1F8618
07060C
060604
0CE606
18E606
30C607
FFC607
F0C606
61860E
0306FC
060618
0C0600
180600
300600
E00600
ENDCHAR
STARTCHAR C2334
ENCODING 9012
SWIDTH 400 0
DWIDTH 24 0
BBX 24 24 0 -2
BITMAP
020000
E7000C
FF9FFC
E301C0
E601C0
E601C0
E401C0
EC01C0
EC01C0
E401C2
E67FFF
E301C0
E301C0
E381C0
E381C0
E381C0
E381C0
FF01C0
E601C0
E001C0
E001C0
E001C0
E001C0
C00180
ENDCHAR
STARTCHAR C2335
ENCODING 9013
SWIDTH 400 0
DWIDTH 24 0
BBX 24 24 0 -2
BITMAP
000004
00000E
7FFFFE
00C300
00C300
00C300
20C30C
3FC3FE
30C30E
30C30C
30C30C
30C30C
30C30C
31C38C
7FC3FC
00C30C
00C300
018300
018300
030300
070300
0E0300
1C0300
300300
ENDCHAR
STARTCHAR C2336
ENCODING 9014
SWIDTH 400 0
DWIDTH 24 0
BBX 24 24 0 -2
BITMAP
070380
070380
060300
060300
061300
FFFB00
060300
060300
060300
060300
073300
7FF300
000300
000300
606300
7FF300
607300
607300
607301
607301
607303
7FF3FF
6061FF
6000FE
ENDCHAR
STARTCHAR C2337
ENCODING 9015
SWIDTH 400 0
DWIDTH 24 0
BBX 24 24 0 -2
BITMAP
003000
001800
001806
FFFFFF
00E000
00C000
018000
030060
060030
0C03F8
3FFF1C
1FC01C
08000C
081020
1C1C38
1C1830
1C1830
1C1830
181830
181830
301830
30183E
60183F
C0100F
ENDCHAR
STARTCHAR C2338
ENCODING 9016
SWIDTH 400 0
DWIDTH 24 0
BBX 24 24 0 -2
BITMAP
0701C0
0701C0
060180
060180
0C0186
0CFFFF
1C0180
1C0180
3C0180
7C0180
7C018C
DC7FFC
1C03C0
1C03C0
1C07E0
1C0DA0
1C0DB0
1C1998
1C318C
1C618F
1CC187
1F8182
1C0180
180180
ENDCHAR
STARTCHAR C2339
ENCODING 9017
SWIDTH 400 0
DWIDTH 24 0
BBX 24 24 0 -2
BITMAP
0E7000
0E7000
0C6004
1C6DFE
186EC6
186F46
33FE46
33CE46
70CE46
70CE46
F0CE46
B0CC6C
30CC6C
30CC6C
31983C
31D838
31F838
303838
306C68
30666C
30C6C6
318187
330303
300E01
ENDCHAR
STARTCHAR C233a
ENCODING 9018
SWIDTH 400 0
DWIDTH 24 0
BBX 24 24 0 -2
BITMAP
001800
003800
003C00
006600
00C300
0181C0
0300F8
06003F
38000F
EFFFE2
0C1860
0C1860
0C1860
0FFFE0
0C1860
0C1860
0C1860
0FFFE0
0C1860
001800
001800
001800
001800
001000
ENDCHAR
STARTCHAR C233b
ENCODING 9019
SWIDTH 400 0
DWIDTH 24 0
BBX 24 24 0 -2
BITMAP
0000FC
100FFE
1FFE00
180E00
180E00
180E00
180E00
180E0C
180FFC
180E00
180E00
180E02
1BFFFF
184080
3870E0
3060E0
3060C0
3060C0
30C0C0
20C0C1
6180C1
4300FF
C6007F
9C003E
ENDCHAR
STARTCHAR C233c
ENCODING 9020
SWIDTH 400 0
DWIDTH 24 0
BBX 24 24 0 -2
BITMAP
004004
00600E
607FFF
306186
386186
186186
026186
027FFE
066186
066186
046186
0C6186
187FFE
186186
304184
F00180
F00180
600180
300180
300180
300180
300180
300180
000180
ENDCHAR
STARTCHAR C233d
ENCODING 9021
SWIDTH 400 0
DWIDTH 24 0
BBX 24 24 0 -2
BITMAP
004008
00601C
607FFC
30600C
38600C
18600C
02600C
027FFC
066188
066180
046180
0C6184
187FFE
1861C0
3061C0
F060C0
F060C0
606060
306060
306331
306E39
30781F
30700F
006007
ENDCHAR
STARTCHAR C233e
ENCODING 9022
SWIDTH 400 0
DWIDTH 24 0
BBX 24 24 0 -2
BITMAP
038007
038007
038006
0381C6
6399C6
7FFDC6
6399C6
6391C6
6381C6
6381C6
63B1C6
7FF9C6
6C31C6
6431C6
6661C6
6361C6
61C1C6
61C186
63E006
467006
CC3806
98387E
30183C
400008
ENDCHAR
STARTCHAR C233f
ENCODING 9023
SWIDTH 400 0
DWIDTH 24 0
BBX 24 24 0 -2
BITMAP
038007
038007
030006
0300E6
0300E6
030CC6
03FCC6
0300C6
0300C6
0300C6
0300C6
0300C6
C318C6
FFFCC6
E01CC6
E018C6
E018C6
E018C6
E01806
E01806
E01806
FFF87E
E0183C
C00008
ENDCHAR
STARTCHAR C2340
ENCODING 9024
SWIDTH 400 0
DWIDTH 24 0
BBX 24 24 0 -2
BITMAP
030007
070007
070006
06C1C6
0C71C6
0C39C6
1819C6
3009C6
2021C6
5FF1C6
8001C6
0001C6
0011C6
0039C6
3FF9C6
0071C6
0061C6
10C186
0D8006
070006
030006
01807E
01C03C
00C008
ENDCHAR
STARTCHAR C2341
ENCODING 9025
SWIDTH 400 0
DWIDTH 24 0
BBX 24 24 0 -2
BITMAP
380007
380007
300006
3000E6
2018E6
7FFCC6
C018C6
8018C6
0118C6
3F98C6
3398C6
3398C6
3398C6
3398C6
3398C6
3F98C6
3118C6
2018C6
001806
001806
003006
07F07E
01E03C
00C008
ENDCHAR
STARTCHAR C2342
ENCODING 9026
SWIDTH 400 0
DWIDTH 24 0
BBX 24 24 0 -2
BITMAP
003C07
00FC07
3FF006
3330E6
3330E6
3330C6
3330C6
3330C6
3330C6
3330C6
3330C6
3330C6
3318C6
3318C6
3318C6
3618C6
2618C6
6618C6
660C06
6C4C06
686E06
DFF67E
BC333C
981308
ENDCHAR
STARTCHAR C2343
ENCODING 9027
SWIDTH 400 0
DWIDTH 24 0
BBX 24 24 0 -2
BITMAP
038007
038007
030006
0301C6
0319C6
7FF9C6
0301C6
0301C6
0301C6
0301C6
0319C6
FFF9C6
0701C6
0781C6
0FE1C6
1F71C6
1B39C6
331986
330006
630006
C30006
83007E
03003C
030008
ENDCHAR
STARTCHAR C2344
ENCODING 9028
SWIDTH 400 0
DWIDTH 24 0
BBX 24 24 0 -2
BITMAP
1DC060
1DC060
1D8060
1DB060
7FF860
1D9862
1D9BFF
1D98E7
5D9867
FFF867
DD9067
DD8067
DD8067
DD9867
FFFCC7
1D98C7
1D98C7
1999C7
19F987
11BB07
319306
31867E
618C3C
C19818
ENDCHAR
STARTCHAR C2345
ENCODING 9029
SWIDTH 400 0
DWIDTH 24 0
BBX 24 24 0 -2
BITMAP
1C0380
1C0380
1C0300
1C0300
1C0306
1CDFFF
FFE300
1CE300
1CC300
1CC300
1CC300
1CC602
1CC7FE
1CC630
18CE30
18CC30
18CC30
30C830
30D830
30F030
20F030
7FE030
C78033
8307FF
ENDCHAR
STARTCHAR C2346
ENCODING 9030
SWIDTH 400 0
DWIDTH 24 0
BBX 24 24 0 -2
BITMAP
0001C0
0081C0
FFC180
180180
180180
300182
301FFF
300187
310187
7F8187
71C187
718387
F18307
F18307
318307
318307
318607
318607
3F8C07
318C06
30180E
2031FC
006078
01C030
ENDCHAR
STARTCHAR C2347
ENCODING 9031
SWIDTH 400 0
DWIDTH 24 0
BBX 24 24 0 -2
BITMAP
0001C0
0E01C0
0C0180
180180
118180
FFC184
E1DFFE
E18186
E18186
E18186
E18186
E18386
FF8306
E18306
E18306
E18306
E18606
E18606
FF8C06
E18C0E
C0180C
0031FC
006078
01C030
ENDCHAR
STARTCHAR C2348
ENCODING 9032
SWIDTH 400 0
DWIDTH 24 0
BBX 24 24 0 -2
BITMAP
000060
601860
7FF860
600060
601060
7FF862
6203FF
6380E7
630067
631067
633867
6FF867
631867
631867
6318C7
6318C7
6318C7
6619C7
661987
661B07
6C1B06
C9FE7E
907C3C
207818
ENDCHAR
STARTCHAR C2349
ENCODING 9033
SWIDTH 400 0
DWIDTH 24 0
BBX 24 24 0 -2
BITMAP
0000E0
0070E0
FFF0C0
2060C0
18C0C0
0EC0C2
0787FF
0380C7
07C0C7
0CE0C7
1870C7
73B0C7
C300C7
0300C7
0311C7
7FF9C7
030187
030187
030307
030307
03FE06
FF847E
E0083C
001018
ENDCHAR
STARTCHAR C234a
ENCODING 9034
SWIDTH 400 0
DWIDTH 24 0
BBX 24 24 0 -2
BITMAP
000004
60000E
7FFFFE
600000
600020
63FFF0
638030
638030
638030
638030
638030
638030
63FFF0
610020
60C080
60E040
60C020
618030
630018
660018
680008
600006
7FFFFF
000000
ENDCHAR
STARTCHAR C234b
ENCODING 9035
SWIDTH 400 0
DWIDTH 24 0
BBX 24 24 0 -2
BITMAP
000004
60000E
7FFFFE
600000
60E080
60C0C0
60C060
618030
610018
62001C
64006C
61FFF0
618070
618060
618060
618060
618060
618060
61FFE0
618060
600000
600006
7FFFFF
000000
ENDCHAR
STARTCHAR C234c
ENCODING 9036
SWIDTH 400 0
DWIDTH 24 0
BBX 24 24 0 -2
BITMAP
0011C0
0039C0
FFF9C0
0C19C0
0C19C0
0C19C0
1C19C0
1819C0
1839F0
13F1D8
30F1CC
6061C6
C001C7
0031C3
7FF9C3
6031C0
6031C0
6031C0
6031C0
6031C0
6031C0
7FF1C0
6031C0
600180
ENDCHAR
STARTCHAR C234d
ENCODING 9037
SWIDTH 400 0
DWIDTH 24 0
BBX 24 24 0 -2
BITMAP
001800
001800
001804
001FFE
001800
001800
201800
30380C
3FFFFE
30000C
3000EC
3381CC
30E18C
30330C
301E0C
300E0C
301B0C
30318C
30E0CC
31806C
36000C
30000C
3FFFFC
20000C
ENDCHAR
STARTCHAR C234e
ENCODING 9038
SWIDTH 400 0
DWIDTH 24 0
BBX 24 24 0 -2
BITMAP
000000
0300C7
0180FF
00DCC7
0CDCC7
0C18C7
0C18C7
0C30C7
0C30C7
0C60C7
0C60C7
2CD8C7
6CCCC7
6D86C7
6D86C7
CF06C7
CE00C7
8E00FF
0E08CE
1E18CC
3E10C0
37F8C0
63F0C0
C000C0
ENDCHAR
STARTCHAR C234f
ENCODING 9039
SWIDTH 400 0
DWIDTH 24 0
BBX 24 24 0 -2
BITMAP
001800
001800
001806
FFFFFF
001800
101830
1FFFF8
181838
181838
181838
1FFFF0
101800
001840
0FFFE0
0300C0
0181C0
00C180
006300
003E00
003C00
007F80
01E3FF
07007F
FC000E
ENDCHAR
STARTCHAR C2350
ENCODING 9040
SWIDTH 400 0
DWIDTH 24 0
BBX 24 24 0 -2
BITMAP
300018
3FFFFC
300018
33FF98
338198
338198
33FF98
338118
338018
31FF98
30FF98
300018
000040
0FFFE0
0300C0
0181C0
00C180
006300
003E00
003C00
007F80
01E3FF
07007F
FC000F
ENDCHAR
STARTCHAR C2351
ENCODING 9041
SWIDTH 400 0
DWIDTH 24 0
BBX 24 24 0 -2
BITMAP
0001C0
0001C0
000180
C60180
FF2180
E72186
E67FFF
E66186
E6E18C
E6C188
E60300
E60380
E603E0
E603C0
E606C0
E606C0
E60CC0
FE0CC0
C618C0
0018C1
0030C1
0060FF
00C07F
07003E
ENDCHAR
STARTCHAR C2352
ENCODING 9042
SWIDTH 400 0
DWIDTH 24 0
BBX 24 24 0 -2
BITMAP
000000
000007
007FFF
C601C0
FF01C0
E721C6
E67FFF
E671C7
E671C7
E671C7
E671C7
E671C7
E671C7
E671C7
E671C7
E671C7
E671C7
FE71C7
C671FE
0061CC
0001C0
0001C0
0001C0
000180
ENDCHAR
STARTCHAR C2353
ENCODING 9043
SWIDTH 400 0
DWIDTH 24 0
BBX 24 24 0 -2
BITMAP
000078
0003FC
003F80
C60300
FF0300
E70300
E60300
E6038C
E67FFC
E60300
E60300
E60300
E60300
E60387
E67FFF
E60300
E60300
FE0300
C60301
000301
000303
0003FF
0001FF
0000FE
ENDCHAR
STARTCHAR C2354
ENCODING 9044
SWIDTH 400 0
DWIDTH 24 0
BBX 24 24 0 -2
BITMAP
00003C
0001FE
007FC0
C60180
FF0180
E70180
E60180
E60180
E60186
E6FFFF
E60180
E603C0
E603C0
E60340
E60360
E60660
E60620
FE0C30
C61818
00181C
00300E
00600F
00C007
038000
ENDCHAR
STARTCHAR C2355
ENCODING 9045
SWIDTH 400 0
DWIDTH 24 0
BBX 24 24 0 -2
BITMAP
001C00
001C00
001800
C61800
FF1807
E73FFF
E67007
E66007
E6C407
E68707
E60607
E60C07
E60807
E61847
E633E7
E67F67
E63027
FE1007
C60006
000006
00000E
0003FC
0000F8
000030
ENDCHAR
STARTCHAR C2356
ENCODING 9046
SWIDTH 400 0
DWIDTH 24 0
BBX 24 24 0 -2
BITMAP
000840
000C20
000C30
C60C18
FF180C
E7180E
E63007
E66007
E6DFF8
E68E00
E60C00
E61C08
E61FFC
E6181C
E6000C
E6000C
E6000C
FE0018
C60018
000018
000030
000FF0
0003E0
0001C0
ENDCHAR
STARTCHAR C2357
ENCODING 9047
SWIDTH 400 0
DWIDTH 24 0
BBX 24 24 0 -2
BITMAP
00001E
00007E
003FC0
C63000
FF3000
E73006
E63FFF
E63007
E63007
E63007
E63007
E63007
E63FFF
E63002
E63000
E63000
E63000
FE7000
C66000
00C000
00C000
018000
030000
0E0000
ENDCHAR
STARTCHAR C2358
ENCODING 9048
SWIDTH 400 0
DWIDTH 24 0
BBX 24 24 0 -2
BITMAP
000000
003007
003FFF
C63000
FF3000
E73000
E6300C
E63FFE
E6320E
E6320C
E6320C
E6330C
E6331C
E63118
E671B8
E670F0
E66060
FE60E0
C641B0
00C318
00861E
010C0F
021807
007000
ENDCHAR
STARTCHAR C2359
ENCODING 9049
SWIDTH 400 0
DWIDTH 24 0
BBX 24 24 0 -2
BITMAP
000C00
000C18
00180C
C61806
FF3007
E72003
E64819
E60818
E60818
E60C18
E60438
E60630
E60230
E60360
E601E0
E601C0
E601C0
FE03E0
C60770
000E38
001C1E
00380F
006007
018000
ENDCHAR
STARTCHAR C235a
ENCODING 9050
SWIDTH 400 0
DWIDTH 24 0
BBX 24 24 0 -2
BITMAP
000FE0
31FFF0
3F9800
301800
301818
3FFFFC
300C00
300C00
300600
300304
31818C
3E00E8
38007C
180018
000020
1FFFF0
1C0030
1C0030
1C0030
1C0030
1C0030
1FFFF0
1C0030
180020
ENDCHAR
STARTCHAR C235b
ENCODING 9051
SWIDTH 400 0
DWIDTH 24 0
BBX 24 24 0 -2
BITMAP
000000
0C0060
0FFFF0
0C0060
0C0060
0C0060
0C0060
0C0060
0FFFE0
080000
000018
3FFFFC
001800
001800
001800
001800
003838
1FFFF8
001800
001800
001800
001806
FFFFFF
000000
ENDCHAR
STARTCHAR C235c
ENCODING 9052
SWIDTH 400 0
DWIDTH 24 0
BBX 24 24 0 -2
BITMAP
000000
000006
007FFE
C60C38
FF0C38
E70C38
E60C38
E60C38
E60C38
E60C38
E6FFFF
E60C38
E60C38
E60C38
E60C38
E60C38
E61838
FE1838
E61838
403038
003038
006038
00C038
018030
ENDCHAR
STARTCHAR C235d
ENCODING 9053
SWIDTH 400 0
DWIDTH 24 0
BBX 24 24 0 -2
BITMAP
071C00
071C00
061800
0E1800
0C1C0C
1C1FFC
1C1800
2C1800
4C1802
8C1806
0C1C06
0C0FFE
0C07FC
000000
000010
1FFFF8
1C0038
1C0038
1C0038
1C0038
1C0038
1FFFF8
1C0030
180000
ENDCHAR
STARTCHAR C235e
ENCODING 9054
SWIDTH 400 0
DWIDTH 24 0
BBX 24 24 0 -2
BITMAP
100E38
1C0E38
180C38
180C38
180C38
180C3A
FF7FFE
180C38
180C38
180C38
180C38
180C38
180C38
18FFFF
180C38
180C38
181838
1E1838
381838
F01838
E03038
402038
004038
008030
ENDCHAR
STARTCHAR C235f
ENCODING 9055
SWIDTH 400 0
DWIDTH 24 0
BBX 24 24 0 -2
BITMAP
000600
1E0300
1C0100
1C0180
1C7187
1C7FFF
FFF1C7
1C71C7
1C71E7
1C71E7
1C7327
1C7337
1C7337
1C763F
1C761F
1C7C1F
1C7807
1FF007
1E7007
F07007
E07007
40707F
00701E
00600C
ENDCHAR
STARTCHAR C2360
ENCODING 9056
SWIDTH 400 0
DWIDTH 24 0
BBX 24 24 0 -2
BITMAP
000008
00001C
3FFFFC
181800
181800
30180C
3FFFFE
303600
006600
00C601
018603
070702
0E07FF
3003FE
C01C00
001800
001800
001818
3FFFFC
001800
001800
001800
003807
FFFFFF
ENDCHAR
STARTCHAR C2361
ENCODING 9057
SWIDTH 400 0
DWIDTH 24 0
BBX 24 24 0 -2
BITMAP
000000
00000C
3FFFFC
000800
070C38
061C30
0C1820
183040
306080
1820C0
0C1060
061830
060C38
020C10
001000
001C00
001800
001818
3FFFFC
001800
001800
001800
003807
FFFFFF
ENDCHAR
STARTCHAR C2362
ENCODING 9058
SWIDTH 400 0
DWIDTH 24 0
BBX 24 24 0 -2
BITMAP
003000
003000
00600E
7FFFFE
018100
0300C0
060078
0C003F
38000F
EFFFF2
1C3830
1C1830
1C1830
1C1830
1C1830
1FFFF0
1C0020
1C0000
1C0004
1C0004
1C000C
1FFFFC
0FFFFC
07FFF8
ENDCHAR
STARTCHAR C2363
ENCODING 9059
SWIDTH 400 0
DWIDTH 24 0
BBX 24 24 0 -2
BITMAP
003000
003000
00600E
7FFFFE
018100
0300C0
061078
0C1C3F
38180F
E0180A
3FFFFC
001800
1C1838
1C1838
1C1830
1C1830
1C1830
1FFFF0
081830
001802
001806
001FFE
001FFE
000FFC
ENDCHAR
STARTCHAR C2364
ENCODING 9060
SWIDTH 400 0
DWIDTH 24 0
BBX 24 24 0 -2
BITMAP
003000
003000
00600E
7FFFFE
018100
0310C0
063878
0C383F
386C0F
E0C602
018300
0301E0
07017F
1F81FF
73818F
C38180
038180
038180
030180
060180
060180
0C0180
180180
700180
ENDCHAR
STARTCHAR C2365
ENCODING 9061
SWIDTH 400 0
DWIDTH 24 0
BBX 24 24 0 -2
BITMAP
001800
001800
001800
001806
FFFFFF
001800
181840
0C1820
061830
0E1838
0B186C
1BB84C
31BC86
60B506
007600
006200
00C100
00C180
0180C0
030070
06003C
1C001F
300007
E00000
ENDCHAR
STARTCHAR C2366
ENCODING 9062
SWIDTH 400 0
DWIDTH 24 0
BBX 24 24 0 -2
BITMAP
003000
003000
00600E
7FFFFE
018100
0300C0
060078
0C003F
38000F
E00002
3FFFFC
018000
018040
0380E0
03FFE0
030060
0600C0
0600C0
0601C0
0FFF80
040180
000180
000387
FFFFFF
ENDCHAR
STARTCHAR C2367
ENCODING 9063
SWIDTH 400 0
DWIDTH 24 0
BBX 24 24 0 -2
BITMAP
0001C0
3801C0
3801C0
3001C0
3201C4
333FFE
FF81C0
FB01C0
3301C0
3301C0
3301C7
337FFF
7301C0
6601C0
6603C0
E60360
3C0320
1E0630
1F0E18
330C1C
21980E
40300F
806007
018000
ENDCHAR
STARTCHAR C2368
ENCODING 9064
SWIDTH 400 0
DWIDTH 24 0
BBX 24 24 0 -2
BITMAP
0001C0
0081C0
7FC180
18C18C
18C18C
18C18C
18DFFF
18C18C
18C18C
18C18C
18C30C
FFE30C
31830C
31830C
318618
318E38
318FB0
3180F0
3180F8
3181CC
318386
7FC703
000E01
003800
ENDCHAR
STARTCHAR C2369
ENCODING 9065
SWIDTH 400 0
DWIDTH 24 0
BBX 24 24 0 -2
BITMAP
000000
380004
381FFE
3018C6
3118C6
3398C6
FFD8C6
FB98C6
3398C6
3398C6
339CC6
339FFE
731804
631800
671800
E61800
3E1800
0E1801
1F1801
139801
21DC03
40DFFF
800FFF
000000
ENDCHAR
STARTCHAR C236a
ENCODING 9066
SWIDTH 400 0
DWIDTH 24 0
BBX 24 24 0 -2
BITMAP
0000E0
3800E0
3800C0
3000C0
3100C0
3390C6
FFDFFF
FB98C7
3398C7
3398C7
3398C7
3398C7
7318C7
6318C7
671FFF
E618C2
3E00C0
0E00C0
1F00C0
1380C0
21C0C0
40C0C0
8000C0
0000C0
ENDCHAR
STARTCHAR C236b
ENCODING 9067
SWIDTH 400 0
DWIDTH 24 0
BBX 24 24 0 -2
BITMAP
000000
380E38
380FF8
300E38
310E38
338E38
FFCC38
FB8C1F
339C1F
339800
33B008
339FFC
730C1C
630418
670638
E60230
3E0360
0E01E0
1F01C0
1381E0
21C33C
40CC1F
801807
00E000
ENDCHAR
STARTCHAR C236c
ENCODING 9068
SWIDTH 400 0
DWIDTH 24 0
BBX 24 24 0 -2
BITMAP
0C0070
0701E0
00E700
003E00
007BC0
01C0F8
07003C
39800C
61C000
018006
FFFFFF
038000
037FF8
060038
060060
0C0180
180300
300306
EFFFFF
000300
000300
007F00
001E00
000C00
ENDCHAR
STARTCHAR C236d
ENCODING 9069
SWIDTH 400 0
DWIDTH 24 0
BBX 24 24 0 -2
BITMAP
000008
03801C
7F9FFC
030038
060030
0C0760
1C03C0
1C01C0
1C00C6
1C7FFF
1F01C6
1E01CC
FC01C8
FC01C0
1C01C0
1C01C0
1C01C0
1C01C0
1C01C0
1C01C0
1C01C0
FC0FC0
380780
300300
ENDCHAR
STARTCHAR C236e
ENCODING 9070
SWIDTH 400 0
DWIDTH 24 0
BBX 24 24 0 -2
BITMAP
003000
201806
3FFFFF
600007
E00004
C00008
BFFFFC
003800
001800
001800
1E1838
1C1FFC
1C1818
1C1818
1C1818
1FFFF8
000018
000018
000018
000018
000038
001FF0
0003E0
0001C0
ENDCHAR
STARTCHAR C236f
ENCODING 9071
SWIDTH 400 0
DWIDTH 24 0
BBX 24 24 0 -2
BITMAP
003000
201806
3FFFFF
600007
E00004
C01C88
801860
001830
001830
001804
00380E
7FFFFE
003800
003800
003400
006600
006200
00C300
01C180
0380E0
070070
0E003F
18000F
E00007
ENDCHAR
STARTCHAR C2370
ENCODING 9072
SWIDTH 400 0
DWIDTH 24 0
BBX 24 24 0 -2
BITMAP
003000
201806
3FFFFF
600007
E01004
C03808
803800
006C00
00C700
018380
0301E0
0F017F
1B819F
638186
838180
038180
038180
030180
030180
060180
060180
0C0180
180180
700180
ENDCHAR
STARTCHAR C2371
ENCODING 9073
SWIDTH 400 0
DWIDTH 24 0
BBX 24 24 0 -2
BITMAP
00000C
00C00C
3FC00C
00000C
00001D
000FFF
00000C
00300C
FFF60C
19830C
19818C
19818C
19800C
19800C
19800C
31800C
31801C
3181F8
318031
218001
618003
41FFFF
C0FFFF
807FFE
ENDCHAR
STARTCHAR C2372
ENCODING 9074
SWIDTH 400 0
DWIDTH 24 0
BBX 24 24 0 -2
BITMAP
001800
001800
041800
061860
061830
0C1818
18180C
10180C
201804
401800
000000
001000
001C00
001800
101838
0C3830
063860
027400
006300
00C1C0
0180F0
07007F
1C000F
F00002
ENDCHAR
STARTCHAR C2373
ENCODING 9075
SWIDTH 400 0
DWIDTH 24 0
BBX 24 24 0 -2
BITMAP
1C0060
1C0060
1C0060
1C0060
1C0062
1C5FFF
FFE0E0
1F80E0
1F81F0
1F81F0
1F83F8
1F836C
1F866E
1B8667
1B8C67
1B9862
338060
338060
338061
338001
638003
63FFFF
C1FFFF
80FFFE
ENDCHAR
STARTCHAR C2374
ENCODING 9076
SWIDTH 400 0
DWIDTH 24 0
BBX 24 24 0 -2
BITMAP
1C0070
1C0070
1C0060
1C0060
1C0060
1C1F66
FFE36F
1F8378
1F8370
1F8370
1F8278
1F867C
1F8C6F
1B8867
1B9063
1BA060
3387E0
3380C0
338081
338001
638003
63FFFF
C1FFFF
80FFFE
ENDCHAR
STARTCHAR C2375
ENCODING 9077
SWIDTH 400 0
DWIDTH 24 0
BBX 24 24 0 -2
BITMAP
001800
301818
38181C
301818
301818
3FFFF8
303018
007000
00E000
01C000
030000
1C2000
003000
001806
FFFFFF
000000
000000
020000
030060
060038
0C001C
18000E
30000E
E00006
ENDCHAR
STARTCHAR C2376
ENCODING 9078
SWIDTH 400 0
DWIDTH 24 0
BBX 24 24 0 -2
BITMAP
001800
301818
38181C
301818
383818
3FFFF8
006010
00C000
018000
070000
1C0008
7FFFFC
001800
001800
001800
001800
003830
1FFFF0
001800
001800
001800
001800
003807
FFFFFF
ENDCHAR
STARTCHAR C2377
ENCODING 9079
SWIDTH 400 0
DWIDTH 24 0
BBX 24 24 0 -2
BITMAP
001800
301818
38181C
301818
383818
3FFFF8
006010
00C000
038000
0E0200
01C180
0380C0
030070
060038
0C007F
1FFFFF
60C062
80C060
01C060
038060
070060
0E0FE0
1803C0
600180
ENDCHAR
STARTCHAR C2378
ENCODING 9080
SWIDTH 400 0
DWIDTH 24 0
BBX 24 24 0 -2
BITMAP
100E00
1C0E00
180C00
180C06
181FFE
9918C0
DB98C0
9B90C0
9BB0C0
9BE0C0
9B80C0
9B80C2
9BBFFF
9B80C0
9B80C0
9B80C0
9B80C0
9B80C0
FF80C0
0100C0
0000C0
0000C0
0000C0
0000C0
ENDCHAR
STARTCHAR C2379
ENCODING 9081
SWIDTH 400 0
DWIDTH 24 0
BBX 24 24 0 -2
BITMAP
001800
001800
38181C
38181C
301818
301818
3FFFF8
300018
000000
000020
1C0070
1FFFF8
1C0030
1C0030
1C0030
1C0030
1FFFF0
1C0030
1C0030
1C0030
1C0030
1FFFF0
1C0030
180020
ENDCHAR
STARTCHAR C237a
ENCODING 9082
SWIDTH 400 0
DWIDTH 24 0
BBX 24 24 0 -2
BITMAP
001800
301818
38181C
301818
301818
3FFFF8
300018
000000
01C000
27CC18
3C0FFC
300C0C
300C0C
300C0C
300C0C
300C0C
300C0C
30CC0C
330C1C
3E0DFC
380C38
300C10
000C00
000C00
ENDCHAR
STARTCHAR C237b
ENCODING 9083
SWIDTH 400 0
DWIDTH 24 0
BBX 24 24 0 -2
BITMAP
001800
301818
38181C
301818
301818
301818
3FFFF8
004018
003000
001800
001830
1FFFF8
000078
0000E0
0003C0
000F00
003800
01E000
070000
3F0000
7FC003
70FFFE
003FF8
000000
ENDCHAR
STARTCHAR C237c
ENCODING 9084
SWIDTH 400 0
DWIDTH 24 0
BBX 24 24 0 -2
BITMAP
1001C0
1C01C0
1801C0
1801C0
1801C0
9921C7
DBB1C6
9B99CC
9B99CC
9B99D8
9B89D0
9B81C0
9B81C0
9B81E0
9B8360
9B8330
9B8330
9B8638
FF8E18
010C0C
00180E
003007
006007
018000
ENDCHAR
STARTCHAR C237d
ENCODING 9085
SWIDTH 400 0
DWIDTH 24 0
BBX 24 24 0 -2
BITMAP
001800
301818
38181C
301818
301818
3FFFF8
300010
000000
0007F0
1FFFF8
1C0000
1C0000
1C0004
1C000E
1FFFFE
1C0180
1C0180
180180
180180
100180
300180
300180
600180
C00180
ENDCHAR
STARTCHAR C237e
ENCODING 9086
SWIDTH 400 0
DWIDTH 24 0
BBX 24 24 0 -2
BITMAP
100000
180038
1FFFF8
180038
180038
180038
1FFFF8
180038
180038
180038
1FFFF0
180000
000000
0C0808
0C1C1C
181818
101030
202060
606040
303030
181818
0C0C0C
060E0C
060604
ENDCHAR
STARTCHAR C2421
ENCODING 9249
SWIDTH 400 0
DWIDTH 24 0
BBX 24 24 0 -2
BITMAP
1C00E0
1C00E0
1C00C0
1C00C0
5F80C0
FFC8C8
DD8CCC
DD8CC6
DD98C7
DD98C3
DD90C1
DDB0C0
DDA0C4
DD80C6
DD80CE
DD80DC
DD8038
DF8070
5D00E0
1C01C0
1C0380
1C0600
1C1800
18F000
ENDCHAR
STARTCHAR C2422
ENCODING 9250
SWIDTH 400 0
DWIDTH 24 0
BBX 24 24 0 -2
BITMAP
1C0000
1C0038
1C7FFC
1C0C18
1D8C18
FFCC38
DDCC38
DD8C30
DD8C3E
DD8FFF
DD8D06
DD8D06
DD8D8C
DD988C
DD98CC
DD98D8
DF9878
DF1070
1C3070
1C20F8
1C619E
1C430F
1C8E07
193800
ENDCHAR
STARTCHAR C2423
ENCODING 9251
SWIDTH 400 0
DWIDTH 24 0
BBX 24 24 0 -2
BITMAP
000FF8
21FFFC
3FE000
300006
3FFFFE
300006
300006
300006
3FFFFE
300004
300F00
300E08
37FFFC
370E1C
360E0C
360E0C
360E0C
660E0C
660E0C
660E1C
C60FF8
C60E30
800E00
000C00
ENDCHAR
STARTCHAR C2424
ENCODING 9252
SWIDTH 400 0
DWIDTH 24 0
BBX 24 24 0 -2
BITMAP
1C00E0
1C00E0
1C00C0
1C00C0
1D80C4
FFDFFE
DDC0C0
DD80C0
DD80C0
DD80C0
DD80C7
DD9FFF
DD81C0
DD81E0
DD81E0
DD81A0
DF8330
DF0330
1C0618
1C0E0C
1C1C0E
1C3807
1C7007
19C000
ENDCHAR
STARTCHAR C2425
ENCODING 9253
SWIDTH 400 0
DWIDTH 24 0
BBX 24 24 0 -2
BITMAP
001800
001820
081870
041860
061840
031880
211908
30381C
3FFFFC
30180C
30180C
30DA0C
30DB0C
31998C
3198CC
3318EC
36186C
3C180C
30180C
30180C
30180C
3019FC
301878
201030
ENDCHAR
STARTCHAR C2426
ENCODING 9254
SWIDTH 400 0
DWIDTH 24 0
BBX 24 24 0 -2
BITMAP
000000
000038
1FFFF8
001800
001800
001806
FFFFFF
001800
101810
1FFFF8
183838
181838
181838
1FFFF8
181838
181838
183838
1FFFF8
101810
001800
001800
001800
001800
001000
ENDCHAR
STARTCHAR C2427
ENCODING 9255
SWIDTH 400 0
DWIDTH 24 0
BBX 24 24 0 -2
BITMAP
0000E0
0E00E0
0C00C0
1800C0
1800C0
3004D0
300ECC
218CC6
E18CC7
E188C3
3318C1
1B10C0
0E30C6
0620C6
0C00CC
0C00CC
180018
1A0030
310060
2180C0
6FC180
F8C700
E00C00
007000
ENDCHAR
STARTCHAR C2428
ENCODING 9256
SWIDTH 400 0
DWIDTH 24 0
BBX 24 24 0 -2
BITMAP
001800
000C00
300C06
3FFFFF
300600
300600
300F00
301980
3030E0
306070
30C03C
31801F
336067
3C6060
306060
306060
306060
60E060
60C060
60C060
618060
C30060
860060
0C0060
ENDCHAR
STARTCHAR C2429
ENCODING 9257
SWIDTH 400 0
DWIDTH 24 0
BBX 24 24 0 -2
BITMAP
0000E0
0000E0
0800C0
FC00C0
0E00C0
0C10C0
181CC0
1818C4
3018FE
3618C0
7F18C0
2718C0
0618C0
8618C0
4618C0
6E18C0
2C18C2
3CFFFF
380000
1C0000
3E0000
37FFFF
61FFFF
C07FFC
ENDCHAR
STARTCHAR C242a
ENCODING 9258
SWIDTH 400 0
DWIDTH 24 0
BBX 24 24 0 -2
BITMAP
003800
007838
00FFFC
01E030
031860
0E0CC0
3B8780
00C300
005C00
00F000
038000
7E0000
0381C0
0381C0
0381C2
FFFFFF
0381C0
0301C0
0301C0
0601C0
0C01C0
1801C0
3001C0
E00180
ENDCHAR
STARTCHAR C242b
ENCODING 9259
SWIDTH 400 0
DWIDTH 24 0
BBX 24 24 0 -2
BITMAP
01C1C0
71C1C8
618186
618186
618180
618182
619FFF
618180
7F8180
418180
018180
018180
7F8180
6181C0
6181C0
6180C0
6180C0
618060
618060
618031
618039
C1801F
C1800F
818007
ENDCHAR
STARTCHAR C242c
ENCODING 9260
SWIDTH 400 0
DWIDTH 24 0
BBX 24 24 0 -2
BITMAP
060000
060006
0C7FFF
0C01C0
1801C0
3001C0
6381C0
4381C0
0701C0
0601C0
0C01C0
1C01C4
1C3FFE
3C01C0
6C01C0
CC01C0
0C01C0
0C01C0
0C01C0
0C01C0
0C01C0
0C01C2
0C7FFF
0C0000
ENDCHAR
STARTCHAR C242d
ENCODING 9261
SWIDTH 400 0
DWIDTH 24 0
BBX 24 24 0 -2
BITMAP
1C01C0
1C01C0
1C01C0
1C01C0
1C01C4
1C3FFE
3E01C0
7F01C0
7F81C0
DD01C0
DC01C7
9C7FFF
1C01C0
1C01C0
1C03C0
1C0360
1C0320
1C0630
1C0E18
1C0C1C
1C180E
1C300F
1C6007
198000
ENDCHAR
STARTCHAR C242e
ENCODING 9262
SWIDTH 400 0
DWIDTH 24 0
BBX 24 24 0 -2
BITMAP
1C01C0
1C01C0
1C01C0
1C01C2
1C7FFF
1C01C0
3E01C0
7F01C6
7FFFFF
DD71C7
DC71C7
9C71C7
1C71C7
1C71C7
1C71C7
1C71C7
1C71C7
1C71C7
1C71FF
1C71CE
1C61CC
1C01C0
1C01C0
180180
ENDCHAR
STARTCHAR C242f
ENCODING 9263
SWIDTH 400 0
DWIDTH 24 0
BBX 24 24 0 -2
BITMAP
1C0000
1C1806
1C1FFE
1C1830
1C1830
1C1830
3E1830
7F3030
7FB032
DD3FFF
DC31F0
9C01B0
1C01B0
1C0330
1C0330
1C0630
1C0C30
1C1C30
1C3830
1C7030
1CE030
1F83F0
1C01E0
180040
ENDCHAR
STARTCHAR C2430
ENCODING 9264
SWIDTH 400 0
DWIDTH 24 0
BBX 24 24 0 -2
BITMAP
1C0000
1C3007
1C3FFF
1C3000
1C3000
1C3000
3E300C
7F3FFE
7FB20E
DD320C
DC320C
9C330C
1C331C
1C3118
1C71B8
1C70F0
1C6060
1C60E0
1C41B0
1CC318
1C861E
1D0C0F
1E1807
187000
ENDCHAR
STARTCHAR C2431
ENCODING 9265
SWIDTH 400 0
DWIDTH 24 0
BBX 24 24 0 -2
BITMAP
00C000
00C000
01C1C0
0181C6
FFFFFF
030180
030180
060300
060600
0FFC00
003F00
00F3E0
03C078
1E001C
301008
021C00
038C00
230608
23000E
630027
630063
C3FFC3
81FFE0
007FC0
ENDCHAR
STARTCHAR C2432
ENCODING 9266
SWIDTH 400 0
DWIDTH 24 0
BBX 24 24 0 -2
BITMAP
1C000C
1C300C
180C18
180730
1801E0
1800F0
5C01B8
5E030C
DB0606
D91803
D86000
980008
18100E
18180C
180818
180438
180630
180360
1801C0
1801C0
180370
180C3F
18180F
18E007
ENDCHAR
STARTCHAR C2433
ENCODING 9267
SWIDTH 400 0
DWIDTH 24 0
BBX 24 24 0 -2
BITMAP
1C003C
1C01FE
183FC0
180180
180180
180180
5C0180
5E0180
DB0186
D9FFFF
D80180
9803C0
1803C0
180340
180360
180660
180620
180C30
181818
18181C
18300E
18600F
18C007
1B8000
ENDCHAR
STARTCHAR C2434
ENCODING 9268
SWIDTH 400 0
DWIDTH 24 0
BBX 24 24 0 -2
BITMAP
0007F0
30FFF0
3FC000
300008
3FFFFC
30000C
30000C
30000C
3FFFFC
300008
300000
33FFFC
33000C
33000C
33000C
33FFFC
330008
630000
630002
630002
C30006
C3FFFE
81FFFC
000000
ENDCHAR
STARTCHAR C2435
ENCODING 9269
SWIDTH 400 0
DWIDTH 24 0
BBX 24 24 0 -2
BITMAP
1C01C0
1C01C0
1C01CC
1C01FE
1C0FE0
1D39C0
FF01C0
1C01C0
1C01C0
1C3FFE
1C01C0
1F01C0
1C01C0
FC01C0
FC01C2
5C7FFF
1C01C0
1C01C0
1C01C0
1C01C0
1C01C0
FC01C0
3801C0
300180
ENDCHAR
STARTCHAR C2436
ENCODING 9270
SWIDTH 400 0
DWIDTH 24 0
BBX 24 24 0 -2
BITMAP
1C01C0
1C01C0
1C01C0
1C01C2
1C7FFF
1D01C0
FF01C0
1C01C6
1C7FFF
1C71C7
1C71C7
1F71C7
1C71C7
FC71C7
FC71C7
5C71C7
1C71C7
1C71C7
1C71FF
1C71CE
1C61CC
FC01C0
3801C0
300180
ENDCHAR
STARTCHAR C2437
ENCODING 9271
SWIDTH 400 0
DWIDTH 24 0
BBX 24 24 0 -2
BITMAP
1C7000
1C7000
186006
1863FF
186067
1A6067
FE6467
19FE67
186067
186067
186067
1C6067
386067
F86067
F860C7
5864C7
1878C7
1871C7
186186
186306
18030E
F8067C
380C38
303030
ENDCHAR
STARTCHAR C2438
ENCODING 9272
SWIDTH 400 0
DWIDTH 24 0
BBX 24 24 0 -2
BITMAP
1C01C0
1C01C0
1C0180
1C0180
1C0186
1D01FF
FF0180
1C0180
1C0180
1C018C
1C3FFE
1F180C
1C080C
FC0818
FC0C18
5C0630
1C0360
1C03C0
1C01C0
1C03E0
1C0638
FC1C1F
38700F
31C007
ENDCHAR
STARTCHAR C2439
ENCODING 9273
SWIDTH 400 0
DWIDTH 24 0
BBX 24 24 0 -2
BITMAP
1C0600
1C0300
1C0100
1C0186
1C7FFF
1D71C7
FF71C7
1C71E7
1C71E7
1C7367
1C7337
1F7237
1C763F
FC741F
FC7C1F
5C7807
1C7007
1C7007
1C7007
1C7007
1C7007
FC707F
38701E
30600C
ENDCHAR
STARTCHAR C243a
ENCODING 9274
SWIDTH 400 0
DWIDTH 24 0
BBX 24 24 0 -2
BITMAP
1C1800
1C1800
1C180E
1C3FFE
1C3000
1D6008
FFDFFC
1C8000
1C0000
1C0018
1C7FFC
1F000C
1C000C
FC000C
FC000C
5C000C
1C000C
1C000C
1C000C
1C000D
1C000F
FC0007
380007
300003
ENDCHAR
STARTCHAR C243b
ENCODING 9275
SWIDTH 400 0
DWIDTH 24 0
BBX 24 24 0 -2
BITMAP
1C0EE0
1C0EE0
1C0CC0
1C0CC0
1C18C0
1D18C0
FF18C0
1C38C2
1C38FF
1C78C0
1C78C0
1F98C0
1C18C0
FC18C0
FC18C0
5C18C0
1C18C0
1C18C0
1C18C1
1C18C1
1C18C3
FC18FF
38187F
30103E
ENDCHAR
STARTCHAR C243c
ENCODING 9276
SWIDTH 400 0
DWIDTH 24 0
BBX 24 24 0 -2
BITMAP
1C0004
1C000E
1C3FFE
1C01C0
1C01C0
1D01C0
FF01C0
1C01C0
1C01C2
1C7FFF
1C01C0
1F01C0
1C01F0
FC01F0
FC03E0
5C0360
1C0360
1C0660
1C0E60
1C0C61
1C1861
FC307F
38603F
19801E
ENDCHAR
STARTCHAR C243d
ENCODING 9277
SWIDTH 400 0
DWIDTH 24 0
BBX 24 24 0 -2
BITMAP
001800
001800
001806
FFFFFF
001800
0FFFE0
0300E0
00C1C0
007700
003E00
007780
03C1FF
1E187F
E01806
301818
3FFFFC
301818
301818
301818
301818
301BF8
301870
301820
001000
ENDCHAR
STARTCHAR C243e
ENCODING 9278
SWIDTH 400 0
DWIDTH 24 0
BBX 24 24 0 -2
BITMAP
000380
00C380
7FC300
060300
060300
060302
0603FF
06060C
06060C
FFEE0C
0E0B0C
06010C
060198
060198
0600F8
0600F0
060060
0600F0
0600F0
060198
06031C
06060F
060C07
043003
ENDCHAR
STARTCHAR C243f
ENCODING 9279
SWIDTH 400 0
DWIDTH 24 0
BBX 24 24 0 -2
BITMAP
000300
40C300
FFE300
E0E300
E0C300
E0C606
E0C7FF
E0C60C
E0CE0C
FFCE1C
E0DA18
E00318
E00338
E00130
E001B0
E001E0
E000E0
E0C0E0
E301F0
EE0338
F8061C
700C0F
201807
007003
ENDCHAR
STARTCHAR C2440
ENCODING 9280
SWIDTH 400 0
DWIDTH 24 0
BBX 24 24 0 -2
BITMAP
3801C0
3801C0
302180
3FF180
300180
600302
C003FF
00C30C
7FE30C
00E70C
01850C
030198
060098
0C0098
1800F8
300070
600060
E00070
C030F0
C021D8
FFE39C
7FE70F
000E07
003803
ENDCHAR
STARTCHAR C2441
ENCODING 9281
SWIDTH 400 0
DWIDTH 24 0
BBX 24 24 0 -2
BITMAP
10001C
1C001C
180418
180318
188198
3FC198
30C018
30C018
318818
618618
718318
DF8318
8F0018
070018
06001A
063FFF
060018
0C0018
180018
180018
300018
600018
C00018
800018
ENDCHAR
STARTCHAR C2442
ENCODING 9282
SWIDTH 400 0
DWIDTH 24 0
BBX 24 24 0 -2
BITMAP
1801C0
0C01C0
0C41C0
FFE1E0
380330
300218
30060C
300C0F
3198E7
3FF0E2
3180C0
3180C0
3180C0
3180C0
3180C0
3180C0
3180C0
2180C0
6180C0
6180C0
6380C0
DF00C0
8E00C0
8400C0
ENDCHAR
STARTCHAR C2443
ENCODING 9283
SWIDTH 400 0
DWIDTH 24 0
BBX 24 24 0 -2
BITMAP
000020
1C0070
1FFFF8
1C0030
1C0030
1C0030
1FFFF0
1C0030
1C0030
1C0030
1FFFF0
020080
0381E0
0301C0
0301C2
FFFFFF
0301C0
0701C0
0601C0
0601C0
0C01C0
1801C0
3001C0
E00180
ENDCHAR
STARTCHAR C2444
ENCODING 9284
SWIDTH 400 0
DWIDTH 24 0
BBX 24 24 0 -2
BITMAP
000020
1C0070
1FFFF8
1C0030
1C0030
1FFFF0
1C0030
1C0030
1C0030
1FFFF0
082000
003800
001806
FFFFFF
1C0000
1C0000
1C0000
1C0000
1C0000
1C0000
1C0000
0FFFFC
07FFFC
000000
ENDCHAR
STARTCHAR C2445
ENCODING 9285
SWIDTH 400 0
DWIDTH 24 0
BBX 24 24 0 -2
BITMAP
0E0E00
0E0E00
0C0E00
0C0E00
0C8E00
FFCE10
0C7FF8
0C0E38
1C0E38
1E0E38
1F3E38
3D8E38
3D8E38
3C0F38
6C0DB8
6C0CF8
CC1838
8C1838
0C1838
0C3039
0C3039
0C603F
0CC01F
0D800E
ENDCHAR
STARTCHAR C2446
ENCODING 9286
SWIDTH 400 0
DWIDTH 24 0
BBX 24 24 0 -2
BITMAP
001800
001800
00180C
3FFFFE
003800
001820
081830
041860
061840
061880
001806
FFFFFF
003C00
007E00
00FF00
01DB80
0399C0
0718E0
0E187C
1C181F
38180F
E01802
001800
001000
ENDCHAR
STARTCHAR C2447
ENCODING 9287
SWIDTH 400 0
DWIDTH 24 0
BBX 24 24 0 -2
BITMAP
0E0000
0E0007
0C0FFF
0C0007
0C8007
FFC007
0C1C07
0C1C07
1C1807
1E1807
1F1FFF
3D9806
3D9800
3C1800
6C1800
6C1800
CC1800
8C1800
0C1801
0C1801
0C1803
0C1FFF
0C0FFF
0C07FE
ENDCHAR
STARTCHAR C2448
ENCODING 9288
SWIDTH 400 0
DWIDTH 24 0
BBX 24 24 0 -2
BITMAP
1C0000
1C01E0
1C01C0
1C0180
1D0300
FF8600
1C0608
1C0C0C
1C3818
3E3818
3F1C30
3F8770
7D03E0
7C00C0
5C0180
DC0300
9C0300
1C0608
1C0C0C
1C1806
1C30FF
1C7F83
1C7003
181001
ENDCHAR
STARTCHAR C2449
ENCODING 9289
SWIDTH 400 0
DWIDTH 24 0
BBX 24 24 0 -2
BITMAP
000030
3800E0
0783C0
00FF00
003E00
003FE0
00E0F8
03803C
3C000C
601800
001860
001830
001812
FFFFFF
001800
021800
0318C0
071870
0E1818
1C180C
381806
701803
C01800
001000
ENDCHAR
STARTCHAR C244a
ENCODING 9290
SWIDTH 400 0
DWIDTH 24 0
BBX 24 24 0 -2
BITMAP
000300
000300
01C300
FFC700
00C600
00C606
00CFFF
00CCC6
00D8CC
60D8C8
7FD0C0
6080C0
6000C0
6001E0
6001A0
6001A0
600330
60C330
630618
6E0E0C
781C0E
70380F
207007
01C000
ENDCHAR
STARTCHAR C244b
ENCODING 9291
SWIDTH 400 0
DWIDTH 24 0
BBX 24 24 0 -2
BITMAP
000380
204380
3FE300
306300
306300
306206
3067FF
306666
30646C
3FEC68
306860
304060
3000E0
3000E0
3000F0
3001F0
300190
600398
600308
60060C
600C0E
C01807
803007
80C000
ENDCHAR
STARTCHAR C244c
ENCODING 9292
SWIDTH 400 0
DWIDTH 24 0
BBX 24 24 0 -2
BITMAP
0001C0
0301C0
FF8180
300180
300180
320180
3F0186
337FFE
630180
630180
430180
E603C0
FE03C0
9E0340
0E0360
0C0660
0C0620
1C0C30
180C38
10181C
30300E
60600F
C0C007
818000
ENDCHAR
STARTCHAR C244d
ENCODING 9293
SWIDTH 400 0
DWIDTH 24 0
BBX 24 24 0 -2
BITMAP
040000
070004
061FFE
066406
07E406
46040E
76060C
6EC20C
7FC20C
60C21C
60C318
798318
CD8130
8781B0
0381E0
0300E0
0600E0
0601F0
0C0338
0C061C
180C0E
30180F
603007
C0C000
ENDCHAR
STARTCHAR C244e
ENCODING 9294
SWIDTH 400 0
DWIDTH 24 0
BBX 24 24 0 -2
BITMAP
000000
07880C
3F8FFE
DC0C0E
1C0C0C
1C0C0C
1C0C0C
1D8C0C
FF8C0C
1C0C0C
1C0C0C
1C0C0C
1C0C0C
1D8C0C
FF8C0C
1C0C0C
1C0FFC
1C0C0C
1C0801
1C0001
1C0003
1FFFFF
0FFFFF
07FFFE
ENDCHAR
STARTCHAR C244f
ENCODING 9295
SWIDTH 400 0
DWIDTH 24 0
BBX 24 24 0 -2
BITMAP
200000
30C007
18FFFF
08C000
00C1E0
02C1C0
82C1C0
E6C1C0
64C1C0
24C1C0
0CC1C0
0CC1C0
18C1C0
18C1C0
18C1E0
30C360
30C320
F0C630
30C638
318C18
399C1C
3B380F
3A7007
10C003
ENDCHAR
STARTCHAR C2450
ENCODING 9296
SWIDTH 400 0
DWIDTH 24 0
BBX 24 24 0 -2
BITMAP
0001C0
1801C0
0C01C0
0C01C0
0001C0
0101C0
8139C0
E239C0
7231C0
3631C6
0631FE
0431C0
0C31C0
0831C0
1831C0
1871C0
3071C0
F061C0
3061C0
30F1C0
38D9C0
398FFF
3B03FF
1601FC
ENDCHAR
STARTCHAR C2451
ENCODING 9297
SWIDTH 400 0
DWIDTH 24 0
BBX 24 24 0 -2
BITMAP
000000
180007
0CFFFF
0C01C0
000180
010380
810380
E20380
720780
360DA0
060DB0
041998
0C198C
083186
183187
186183
30C181
F18180
300180
300180
380180
380180
380180
100180
ENDCHAR
STARTCHAR C2452
ENCODING 9298
SWIDTH 400 0
DWIDTH 24 0
BBX 24 24 0 -2
BITMAP
000000
000038
1FFFF8
001800
001800
001804
7FFFFE
003800
001800
001800
001800
001800
001000
001000
001C00
101830
1C1878
0E38E0
066C80
00C600
018380
0700FF
1C003F
F0000E
ENDCHAR
STARTCHAR C2453
ENCODING 9299
SWIDTH 400 0
DWIDTH 24 0
BBX 24 24 0 -2
BITMAP
007000
007000
007004
7FFFFE
00C180
018080
030060
060030
0C001C
18180F
301807
E01810
18183C
0E1860
0638C0
023400
006200
00E300
01C180
0380E0
070070
0E003F
18000F
E00007
ENDCHAR
STARTCHAR C2454
ENCODING 9300
SWIDTH 400 0
DWIDTH 24 0
BBX 24 24 0 -2
BITMAP
1C01C0
1C01C0
1C01C0
1C01C0
1C01C0
1D21C7
FF31C6
1C19CC
1C19C8
1C19D0
1C01C0
1F01C0
1C01C0
FC0320
FC0320
5C0330
1C0610
1C0618
1C0C0C
1C180C
1C300E
FC6007
38C007
318003
ENDCHAR
STARTCHAR C2455
ENCODING 9301
SWIDTH 400 0
DWIDTH 24 0
BBX 24 24 0 -2
BITMAP
060004
061C07
361C86
3618E6
3618C6
36D8C6
7FD8C6
6618C6
6618C6
C618C6
8618C6
0618C6
07D8C6
0E18C6
FE18C6
F618C6
4618C6
0610C6
0630C6
0630C6
0660C6
066006
06C006
058006
ENDCHAR
STARTCHAR C2456
ENCODING 9302
SWIDTH 400 0
DWIDTH 24 0
BBX 24 24 0 -2
BITMAP
000380
470380
660300
3C0300
180308
3C3FFC
6C030C
C6030C
86030C
06030C
06030C
0F030C
1B7FFF
130700
230300
430720
830630
030618
030C0C
071806
061807
7E3003
3C6003
19C001
ENDCHAR
STARTCHAR C2457
ENCODING 9303
SWIDTH 400 0
DWIDTH 24 0
BBX 24 24 0 -2
BITMAP
0440E0
8670E0
4C60C0
3860C0
3860C0
3860C0
4C60C0
8C60C0
0C60C2
0E7EFF
0E60C0
1E60C0
1E60C0
3660C0
6660C0
C660C0
0660C0
0660C0
0660C1
0662C1
0E7CC3
7C78FF
3C707F
18603E
ENDCHAR
STARTCHAR C2458
ENCODING 9304
SWIDTH 400 0
DWIDTH 24 0
BBX 24 24 0 -2
BITMAP
000000
473004
663FFE
3C3006
183006
3C3006
6C3006
C63006
863006
063006
063006
0F3FFE
1B3006
133006
233006
433006
833006
033006
033006
073006
063FFE
7E3006
3C3004
180000
ENDCHAR
STARTCHAR C2459
ENCODING 9305
SWIDTH 400 0
DWIDTH 24 0
BBX 24 24 0 -2
BITMAP
00003C
4700FE
663FC0
3C30C0
1830C0
3C30C0
6C30C0
C630C0
8630C2
063FFF
0630C0
0F30C0
1B3060
133060
233060
433060
833030
033030
033038
073019
06361D
7E3C0F
3C3807
183003
ENDCHAR
STARTCHAR C245a
ENCODING 9306
SWIDTH 400 0
DWIDTH 24 0
BBX 24 24 0 -2
BITMAP
0001C0
4701C0
660180
3C0180
180180
3C1186
6C3FFF
C67186
86618C
064188
060300
0F0380
1B03E0
1303C0
2306C0
4306C0
8306C0
030CC0
030CC0
0718C1
0630C1
7E60FF
3CC07F
1B803E
ENDCHAR
STARTCHAR C245b
ENCODING 9307
SWIDTH 400 0
DWIDTH 24 0
BBX 24 24 0 -2
BITMAP
000000
473004
663FFE
3C31C6
1831C6
3C31C6
6C31C6
C631C6
8631C6
0631C6
0631C6
0F3FFE
1B3004
133000
233000
433000
833000
033001
033001
073001
063803
7E3FFF
3C1FFF
180000
ENDCHAR
STARTCHAR C245c
ENCODING 9308
SWIDTH 400 0
DWIDTH 24 0
BBX 24 24 0 -2
BITMAP
000000
000038
017FFC
FF8618
1C0618
1C0618
1C0618
1C0618
1C0618
1C0618
7F0678
1C7FF8
1C0618
1C0618
1C0618
1C0618
1C0618
1F8618
FE0618
F00619
600619
00061F
00060F
000606
ENDCHAR
STARTCHAR C245d
ENCODING 9309
SWIDTH 400 0
DWIDTH 24 0
BBX 24 24 0 -2
BITMAP
0001C0
0001C0
0101C0
FF81C0
1C01C0
1C01C0
1C01C0
1C01C0
1C01C4
1C3FFE
7F01C0
1C01C0
1C01C0
1C01C0
1C01C0
1C01C0
1C01C0
1F81C0
FE01C0
F001C0
6001C0
0001C6
00FFFF
000000
ENDCHAR
STARTCHAR C245e
ENCODING 9310
SWIDTH 400 0
DWIDTH 24 0
BBX 24 24 0 -2
BITMAP
000000
00C007
FFDFFF
0C0600
0C0600
0C0600
0C0618
0C07FC
0C0E0C
0C0E0C
0C0E0C
0C0F8C
0C0ECC
0C0E6C
0C0E78
0C0C18
0C0C18
0C0C18
0C0C18
0C0C19
0C0CF9
FC1F9F
3C3C0F
181806
ENDCHAR
STARTCHAR C245f
ENCODING 9311
SWIDTH 400 0
DWIDTH 24 0
BBX 24 24 0 -2
BITMAP
0001C7
0001C7
0001C6
C1818C
FFC10C
DD8308
DD8318
DD8610
DD8430
DD8C60
DD9840
FFB080
DDB080
DD9840
DD8C20
DD8630
DD8318
FF830C
C1818C
800186
0001C6
0000C7
0000E3
000043
ENDCHAR
STARTCHAR C2460
ENCODING 9312
SWIDTH 400 0
DWIDTH 24 0
BBX 24 24 0 -2
BITMAP
001800
000C00
180606
1FFFFF
180000
980000
D80018
79FFFC
784038
184038
186030
182070
383060
781060
D818C0
580D80
300700
300700
300F80
3019C0
6030F0
60E07F
C3801F
8E0004
ENDCHAR
STARTCHAR C2461
ENCODING 9313
SWIDTH 400 0
DWIDTH 24 0
BBX 24 24 0 -2
BITMAP
001800
000C00
180606
1FFFFF
1C0000
9C403C
DC7038
7C6038
7C6038
1C6038
1C6038
1C6038
1C6038
3C6038
FC6038
D86038
186038
187FF8
300038
300038
300038
600038
600038
C00030
ENDCHAR
STARTCHAR C2462
ENCODING 9314
SWIDTH 400 0
DWIDTH 24 0
BBX 24 24 0 -2
BITMAP
001800
000C00
180606
1FFFFF
1C0000
9C0002
DDFFFF
7C3000
7C3000
1C7000
1C6000
1C600C
1C7FFE
3C400E
FC000C
D8000C
18000C
18000C
30000C
30000C
300018
600FF8
6001F0
C00060
ENDCHAR
STARTCHAR C2463
ENCODING 9315
SWIDTH 400 0
DWIDTH 24 0
BBX 24 24 0 -2
BITMAP
000200
00C238
3FE378
00C3C4
60C18E
19809E
0F00F0
060070
0C003C
1800DF
3FFFE7
E60060
060060
060060
060060
060060
0600E0
060FC0
060184
06000C
060008
07FFF8
07FFFC
03FFF8
ENDCHAR
STARTCHAR C2464
ENCODING 9316
SWIDTH 400 0
DWIDTH 24 0
BBX 24 24 0 -2
BITMAP
00000E
02100E
FF1C0C
E3180C
E3180C
E3180C
E3180C
E3180C
FF180C
E3180C
E3180C
E3180C
E3180C
FF180C
E3180C
E33FFC
E3000C
E3000C
E3000C
FF000C
E3000C
40000C
00000C
00000C
ENDCHAR
STARTCHAR C2465
ENCODING 9317
SWIDTH 400 0
DWIDTH 24 0
BBX 24 24 0 -2
BITMAP
0E0000
0E0000
0C0000
1C0006
1FFFFE
180006
300206
340706
67FF06
460306
060306
07FF06
060306
060306
060306
07FF06
060306
060306
07FF0E
06020C
04000C
0003FC
0001F8
000070
ENDCHAR
STARTCHAR C2466
ENCODING 9318
SWIDTH 400 0
DWIDTH 24 0
BBX 24 24 0 -2
BITMAP
000000
1C0038
1FFFF8
1C0038
1C0038
1FFFF8
1C0038
1C0038
1FFFF8
1C0038
1C0038
0FFFF8
1C0010
1C0000
1C0000
1C0030
1FFFF8
1C0000
1C0000
1C0004
1C0004
1FFFFC
0FFFFC
07FFF8
ENDCHAR
STARTCHAR C2467
ENCODING 9319
SWIDTH 400 0
DWIDTH 24 0
BBX 24 24 0 -2
BITMAP
000000
019804
7FDFFE
181806
181806
301806
301806
301806
311806
7F9806
739806
739806
F39806
F3980E
33987E
33980C
339800
339800
3F9800
331801
301801
201FFF
000FFF
0007FE
ENDCHAR
STARTCHAR C2468
ENCODING 9320
SWIDTH 400 0
DWIDTH 24 0
BBX 24 24 0 -2
BITMAP
000FF0
01FFF0
1FF800
001804
00380E
7FFFFE
007E00
00D9C0
019870
03181C
0C1806
301002
C00000
001000
001C00
003800
003000
006C00
00C600
018180
0700E0
0E007F
18001F
E00006
ENDCHAR
STARTCHAR C2469
ENCODING 9321
SWIDTH 400 0
DWIDTH 24 0
BBX 24 24 0 -2
BITMAP
003000
201800
200806
7FFFFF
E18306
C3830C
830388
0603FC
1C01FE
700000
000004
7FFFFE
001800
001800
001800
001800
001800
001800
001800
001800
001800
07F800
01F000
006000
ENDCHAR
STARTCHAR C246a
ENCODING 9322
SWIDTH 400 0
DWIDTH 24 0
BBX 24 24 0 -2
BITMAP
200008
30001C
3FFFFC
30C30C
30C30C
30C30C
3FFFFC
300008
200000
000006
FFFFFF
001800
001800
001800
001800
001800
001800
001800
001800
001800
001800
07F800
01F000
006000
ENDCHAR
STARTCHAR C246b
ENCODING 9323
SWIDTH 400 0
DWIDTH 24 0
BBX 24 24 0 -2
BITMAP
200008
30001C
3FFFFC
30180C
30380C
30670C
30C38C
3181CC
3600CC
30000C
003000
001802
FFFFFF
1C0000
1C0000
1C0000
1C0000
1C0000
1C0000
1C0000
1C0000
0FFFFC
07FFFC
000000
ENDCHAR
STARTCHAR C246c
ENCODING 9324
SWIDTH 400 0
DWIDTH 24 0
BBX 24 24 0 -2
BITMAP
018300
018300
018306
FF83FF
018300
019300
001C00
001800
001810
3FFFF8
003800
001800
001800
001800
001806
FFFFFF
001800
001800
001800
001800
001800
001800
001800
001000
ENDCHAR
STARTCHAR C246d
ENCODING 9325
SWIDTH 400 0
DWIDTH 24 0
BBX 24 24 0 -2
BITMAP
000004
00C00E
FFCFFF
33800C
338018
338030
338060
3F80C0
3380C0
338180
338300
338600
3F8600
338C00
338C00
339800
339800
379800
FF9801
F39801
639803
039FFF
038FFF
0303FE
ENDCHAR
STARTCHAR C246e
ENCODING 9326
SWIDTH 400 0
DWIDTH 24 0
BBX 24 24 0 -2
BITMAP
000000
638006
7F9FFE
6380C0
6380C0
6380C0
7380C0
6F80C0
6780C2
639FFF
6380C0
6380C0
6380C0
6780C0
7F80C0
6B80C0
6380C0
6380C0
6380C0
6380C0
E380C0
DF8FC0
8703C0
860180
ENDCHAR
STARTCHAR C246f
ENCODING 9327
SWIDTH 400 0
DWIDTH 24 0
BBX 24 24 0 -2
BITMAP
021000
671838
7F9FF8
631838
631838
631838
731838
7F1838
6F1B38
631BB8
6319B8
6319F8
6318B8
6F1838
7B1838
631838
631838
633038
633038
633039
E36039
DF603F
8EC01F
85800E
ENDCHAR
STARTCHAR C2470
ENCODING 9328
SWIDTH 400 0
DWIDTH 24 0
BBX 24 24 0 -2
BITMAP
02000E
67020E
7F910C
63118C
6310CC
63180C
73181C
7F0818
6F0818
630C38
630430
630670
630660
6F0360
7B03C0
7303C0
6303C0
6303E0
630670
630C38
E3183C
DF301F
8E600F
878006
ENDCHAR
STARTCHAR C2471
ENCODING 9329
SWIDTH 400 0
DWIDTH 24 0
BBX 24 24 0 -2
BITMAP
200000
30000C
3FFFFC
300E00
300E00
300E00
300E00
310E30
33FFF8
338038
338038
338038
338038
338038
338038
33FFF8
310E10
300E00
300E00
300E00
300E00
300E06
7FFFFE
200000
ENDCHAR
STARTCHAR C2472
ENCODING 9330
SWIDTH 400 0
DWIDTH 24 0
BBX 24 24 0 -2
BITMAP
000000
000007
FFFFFF
007000
006000
18C030
1FFFF8
1C0038
1C0038
1C0038
1C0038
1FFFF8
1C0038
1C0038
1C0038
1C0038
1C0038
1FFFF8
1C0038
1C0038
1C0038
1C0038
1FFFF8
180030
ENDCHAR
STARTCHAR C2473
ENCODING 9331
SWIDTH 400 0
DWIDTH 24 0
BBX 24 24 0 -2
BITMAP
060380
060380
042300
7FF300
607300
607300
607300
607300
607300
7FF300
607300
607300
607300
607300
607300
7FF300
607300
607300
607301
607301
607303
7FF3FF
6061FF
6000FE
ENDCHAR
STARTCHAR C2474
ENCODING 9332
SWIDTH 400 0
DWIDTH 24 0
BBX 24 24 0 -2
BITMAP
004000
00E000
03E00C
3E03FE
30000E
30000C
30000C
30000C
30000C
30000C
30000C
30C00C
3FE7FC
30000C
30000C
30000C
30000C
30000C
30000C
30000C
30C00C
3FE7FC
30000C
200000
ENDCHAR
STARTCHAR C2475
ENCODING 9333
SWIDTH 400 0
DWIDTH 24 0
BBX 24 24 0 -2
BITMAP
0700E0
0700E0
0660C2
FFE7FF
0600C0
0600C0
000000
000038
3FFFF8
001800
001800
001800
001800
001806
FFFFFF
001800
001800
001800
001800
001800
001800
001800
001800
001000
ENDCHAR
STARTCHAR C2476
ENCODING 9334
SWIDTH 400 0
DWIDTH 24 0
BBX 24 24 0 -2
BITMAP
0700E0
0700E0
0660C2
FFE7FF
0600C0
0600C0
000000
000060
3FFFF0
00C060
00C060
00C060
00C060
01C360
3FFF60
00C060
00C060
00C060
00C060
00C061
00C061
00C07F
00C03F
00801E
ENDCHAR
STARTCHAR C2477
ENCODING 9335
SWIDTH 400 0
DWIDTH 24 0
BBX 24 24 0 -2
BITMAP
0700E0
0700E0
0660C2
FFE7FF
0600C0
0600C0
000700
000700
000600
000606
7FFFFE
000E00
000E00
001E00
003600
006600
00C600
018600
030600
060600
1C0600
300600
C00600
000600
ENDCHAR
STARTCHAR C2478
ENCODING 9336
SWIDTH 400 0
DWIDTH 24 0
BBX 24 24 0 -2
BITMAP
0700E0
0700E0
0660C2
FFE7FF
0600C0
0600C0
000000
000006
FFFFFF
018300
018300
018300
018300
018300
038300
030300
030300
070300
060301
060301
0C0303
1803FF
3001FF
E000FE
ENDCHAR
STARTCHAR C2479
ENCODING 9337
SWIDTH 400 0
DWIDTH 24 0
BBX 24 24 0 -2
BITMAP
0700E0
0700E0
0660C2
FFE7FF
0600C0
0610C0
001C00
001800
001800
001804
00380E
7FFFFE
003800
003800
003400
006600
006200
00C300
01C180
0380E0
070070
0E003F
18000F
E00007
ENDCHAR
STARTCHAR C247a
ENCODING 9338
SWIDTH 400 0
DWIDTH 24 0
BBX 24 24 0 -2
BITMAP
0700E0
0700E0
0600C2
FFE7FF
0700C0
0600C0
0600C0
000000
100030
1FFFF8
180038
180038
180038
180038
180038
180038
180038
180038
180038
180038
180038
1FFFF8
180030
180000
ENDCHAR
STARTCHAR C247b
ENCODING 9339
SWIDTH 400 0
DWIDTH 24 0
BBX 24 24 0 -2
BITMAP
0700E0
0700E0
0660C2
FFE7FF
0600C0
0610C0
001C00
001800
301810
3FFFF8
38381C
301818
301818
301818
301818
301818
301818
301818
301818
301818
301BF8
301870
301820
001000
ENDCHAR
STARTCHAR C247c
ENCODING 9340
SWIDTH 400 0
DWIDTH 24 0
BBX 24 24 0 -2
BITMAP
0700E0
0700E0
0660C2
FFE7FF
0600C0
0600C0
000030
0003F8
07FFF8
3F6000
006000
006000
006000
006007
FFFFFF
006000
006000
006000
006002
006002
006006
007FFE
007FFE
001FFC
ENDCHAR
STARTCHAR C247d
ENCODING 9341
SWIDTH 400 0
DWIDTH 24 0
BBX 24 24 0 -2
BITMAP
0600C0
0640C2
FFE7FF
0600C0
0600C0
1C0000
180000
18000C
3FFFFC
300000
200000
400070
8FFFF8
0001E0
000780
001C00
007000
03C002
0F0002
1C0002
380006
3FFFFE
3FFFFE
0FFFFC
ENDCHAR
STARTCHAR C247e
ENCODING 9342
SWIDTH 400 0
DWIDTH 24 0
BBX 24 24 0 -2
BITMAP
000000
000300
700302
38FFFF
1C7000
007000
007000
007000
0C7000
FE7000
1C7000
187000
307000
3E7000
7F7000
467000
0C3FFE
0C3FFF
180000
380000
7F0000
E7FFFF
007FFC
001FF8
ENDCHAR
STARTCHAR C2521
ENCODING 9505
SWIDTH 400 0
DWIDTH 24 0
BBX 24 24 0 -2
BITMAP
000000
00000C
707FFC
380180
1C0180
000180
000180
000180
0C0186
FEFFFE
1C0180
180180
300180
3E0180
7F0180
460180
0C0180
0C0180
180180
380100
7F0000
E7FFFF
007FFC
001FF8
ENDCHAR
STARTCHAR C2522
ENCODING 9506
SWIDTH 400 0
DWIDTH 24 0
BBX 24 24 0 -2
BITMAP
000000
000004
70FFFE
381838
1C1838
001838
001838
001838
0C1838
FE1838
1C1838
181838
301838
3E1838
7F3038
463038
0C2038
0C6038
18C030
380000
7F0000
E7FFFF
007FFC
001FF8
ENDCHAR
STARTCHAR C2523
ENCODING 9507
SWIDTH 400 0
DWIDTH 24 0
BBX 24 24 0 -2
BITMAP
000000
00000C
703FFC
380000
1C0000
000000
007FFE
001C00
0C1800
FE1808
1C181C
183FFC
30000C
3E000C
7F000C
46000C
0C001C
0C0018
180FF0
3800E0
7F0040
E7FFFF
007FFC
001FF8
ENDCHAR
STARTCHAR C2524
ENCODING 9508
SWIDTH 400 0
DWIDTH 24 0
BBX 24 24 0 -2
BITMAP
000008
00701C
707FFC
38700C
1C700C
00700C
00700C
00700C
0C700C
FE7FFC
1C7008
187000
307000
3E7000
7F7002
467006
0C7006
0C3FFE
181FFC
380000
7F0000
E7FFFF
007FFC
001FF8
ENDCHAR
STARTCHAR C2525
ENCODING 9509
SWIDTH 400 0
DWIDTH 24 0
BBX 24 24 0 -2
BITMAP
000000
0071C7
7FF9FF
1C31C6
1C31CC
1C31CC
1C31D8
1C31D0
1C31D0
1C31C8
1C31C4
FFFDC6
1871C7
1871C3
1871C3
1871C3
1871C3
1871FF
1871DE
1871CC
1871C0
1871C0
7FFDC0
000180
ENDCHAR
STARTCHAR C2526
ENCODING 9510
SWIDTH 400 0
DWIDTH 24 0
BBX 24 24 0 -2
BITMAP
038000
0381C7
0301FF
0301C6
0319CC
FFFDCC
0301D8
0301D0
0301D0
0331C8
7FF9C4
1039C6
0831C7
0C31C3
0661C3
0761C3
03C1C3
01C1FF
03E1DE
0671CC
0C39C0
1819C0
6009C0
800180
ENDCHAR
STARTCHAR C2527
ENCODING 9511
SWIDTH 400 0
DWIDTH 24 0
BBX 24 24 0 -2
BITMAP
038000
0381C7
0301FF
0309C6
FFFDCC
0301CC
0301D8
4319D0
FFFDD0
E31DC8
E319C4
E319C6
E319C7
E319C3
E319C3
E319C3
E319C3
E319FF
E379DE
E339CC
C331C0
0301C0
0301C0
030180
ENDCHAR
STARTCHAR C2528
ENCODING 9512
SWIDTH 400 0
DWIDTH 24 0
BBX 24 24 0 -2
BITMAP
038000
0381C7
0301FF
0301C6
0301CC
3341CC
3B31D8
3319D0
331DD0
630DC8
630DC4
4301C6
C319C7
8319C3
0331C3
0371C3
0061C3
00C1FF
0181DE
0301CC
0601C0
1C01C0
3001C0
E00180
ENDCHAR
STARTCHAR C2529
ENCODING 9513
SWIDTH 400 0
DWIDTH 24 0
BBX 24 24 0 -2
BITMAP
001100
003987
FFF9FF
070186
06018C
0C018C
0C0198
180190
304190
606188
60C184
30C186
1DC187
078183
030183
070183
060183
0C01FF
18C19E
18618C
30F180
7F9980
701980
600180
ENDCHAR
STARTCHAR C252a
ENCODING 9514
SWIDTH 400 0
DWIDTH 24 0
BBX 24 24 0 -2
BITMAP
001000
00F9C7
0FF9FF
7B01C6
0301CC
0301CC
0301D8
0301D0
0301D0
0301C8
0319C4
FFF9C6
0301C7
0301C3
0301C3
0301C3
0301C3
0301FF
0301DE
0301CC
03F9C0
FF01C0
6001C0
200180
ENDCHAR
STARTCHAR C252b
ENCODING 9515
SWIDTH 400 0
DWIDTH 24 0
BBX 24 24 0 -2
BITMAP
040000
060038
07FFF8
060000
060000
060060
07FFF0
060000
060000
060060
07FFF0
060000
060000
060006
FFFFFF
018000
018000
030000
060060
0C0038
18001C
3FFFFE
7FC00E
300006
ENDCHAR
STARTCHAR C252c
ENCODING 9516
SWIDTH 400 0
DWIDTH 24 0
BBX 24 24 0 -2
BITMAP
000E00
E60E00
FF1C02
E61FFF
E61800
E43000
EC2004
E85FFE
E88000
EC0000
E6000C
E61FFC
E70038
E30060
E301C0
E30300
E70E00
FF1C00
E63801
E03001
E07003
E07FFF
E03FFF
C00FFE
ENDCHAR
STARTCHAR C252d
ENCODING 9517
SWIDTH 400 0
DWIDTH 24 0
BBX 24 24 0 -2
BITMAP
000800
E60C38
FF0FF8
E60C38
E60C38
E40C38
EC1838
E8181F
E8301F
EC2000
E64018
E61FFC
E7081C
E30818
E30C38
E30630
E70360
FF03E0
E601C0
E003E0
E0063C
E00C1F
E03007
C1C000
ENDCHAR
STARTCHAR C252e
ENCODING 9518
SWIDTH 400 0
DWIDTH 24 0
BBX 24 24 0 -2
BITMAP
0001C0
E601C0
FF0180
E60180
E60180
E40180
EC0186
E80D8E
E8FF9C
EC0DF0
E60DC0
E60DE0
E719A0
E319A0
E319B0
E31998
E73198
FF318C
E6618F
E04187
E08183
E11F80
E00F00
C00200
ENDCHAR
STARTCHAR C252f
ENCODING 9519
SWIDTH 400 0
DWIDTH 24 0
BBX 24 24 0 -2
BITMAP
1C000C
1CE38C
18C30C
18C30C
18C30C
18C30C
1FC3FC
18C31C
18000C
18000C
1800CC
1BFFCC
18000C
18000C
18C30C
1FE3FC
18C30C
30C30C
30C30C
30C30C
60C30C
60C30C
C0C30C
800008
ENDCHAR
STARTCHAR C2530
ENCODING 9520
SWIDTH 400 0
DWIDTH 24 0
BBX 24 24 0 -2
BITMAP
0C0380
060380
060300
FFF300
006300
206300
30C300
10C300
188300
198300
093300
FFF300
060300
060300
060300
062300
7FF300
060300
060301
060301
060303
0603FF
0601FF
0600FE
ENDCHAR
STARTCHAR C2531
ENCODING 9521
SWIDTH 400 0
DWIDTH 24 0
BBX 24 24 0 -2
BITMAP
06083E
060DFE
064FC0
FFEC00
0E0C07
060FFF
1FCC38
FE0C38
E61838
463838
7E7038
1CE038
098010
000060
1FFFF0
0007C0
001E00
00F000
03C004
1E0004
38000C
7FFFFC
3FFFFC
1FFFF8
ENDCHAR
STARTCHAR C2532
ENCODING 9522
SWIDTH 400 0
DWIDTH 24 0
BBX 24 24 0 -2
BITMAP
000006
7FFFFE
000000
030030
070070
060060
0C00C0
180180
30C30C
E0EE0E
30C30C
1F81F8
070070
060060
0C80C8
18C18C
306306
7FF7FF
783783
200200
000000
000006
FFFFFF
000000
ENDCHAR
STARTCHAR C2533
ENCODING 9523
SWIDTH 400 0
DWIDTH 24 0
BBX 24 24 0 -2
BITMAP
001800
001804
7FFFFE
001800
001830
1FFFF8
181838
181838
183838
187CF8
18FE30
119B20
0319E0
061878
0C183F
30180E
C01000
000030
1FFFF8
000000
000000
000000
000007
FFFFFF
ENDCHAR
STARTCHAR C2534
ENCODING 9524
SWIDTH 400 0
DWIDTH 24 0
BBX 24 24 0 -2
BITMAP
00C000
007000
003800
001806
FFFFFF
000000
000000
200008
3FFFFC
30000C
30000C
30030C
31FF8C
31838C
31830C
31830C
31830C
31FF0C
31030C
30000C
30000C
3FFFFC
30001C
200008
ENDCHAR
STARTCHAR C2535
ENCODING 9525
SWIDTH 400 0
DWIDTH 24 0
BBX 24 24 0 -2
BITMAP
070060
070060
060060
0600E0
0600C0
0F00E0
0D81B0
18C11C
38E30E
306607
606C03
C61841
070070
060060
060060
0600E0
0600E0
0F01E0
1D8190
18C318
30620C
30640F
600807
C01003
ENDCHAR
STARTCHAR C2536
ENCODING 9526
SWIDTH 400 0
DWIDTH 24 0
BBX 24 24 0 -2
BITMAP
0700E0
0700E8
0600C6
0600C6
0C00C0
0C00C2
1DFFFF
1C00C0
3C00C0
7C0060
7C0260
DCFE60
1C1860
1C1860
1C1860
1C1870
1C1830
1C3F31
1DF819
1CC019
1C000F
1C000F
1C0007
180003
ENDCHAR
STARTCHAR C2537
ENCODING 9527
SWIDTH 400 0
DWIDTH 24 0
BBX 24 24 0 -2
BITMAP
0700C8
0700CC
0600C6
0600C2
0C00C0
0DFFFF
1C00C0
1C00C0
3C1CC0
7C18C6
7C18C6
DC18C6
1C1E6C
1DFC6C
1DF86C
1CD878
1C3078
1C3070
1C6071
1C40F9
1C819F
1D070F
1C0C07
181003
ENDCHAR
STARTCHAR C2538
ENCODING 9528
SWIDTH 400 0
DWIDTH 24 0
BBX 24 24 0 -2
BITMAP
070380
070380
060300
060304
0C03FE
0C0300
1C0300
1C0306
3DFFFF
7C0300
7C0300
DC2300
1C7B10
1C7308
1C630C
1C6306
1CC307
1C8303
1D0303
1E0300
1C0300
1C3F00
1C0F00
180600
ENDCHAR
STARTCHAR C2539
ENCODING 9529
SWIDTH 400 0
DWIDTH 24 0
BBX 24 24 0 -2
BITMAP
070E60
070E60
060E60
060E60
0C0E60
0C0E60
1C0E66
1CFFFE
3CCE66
7CCE66
7CCE66
DCCE66
1CCE66
1CCE66
1CFFFE
1CCE66
1CCE66
1CCE66
1CCE66
1CCE66
1CCE66
1CFFFE
1CE006
18C004
ENDCHAR
STARTCHAR C253a
ENCODING 9530
SWIDTH 400 0
DWIDTH 24 0
BBX 24 24 0 -2
BITMAP
1818E0
1A18E0
1B98C0
1B18C0
3318C0
3319C2
3319FF
73198C
731B8C
F31B8C
B31ACC
331C4C
33184C
331878
37F878
321838
301830
301878
301878
30184C
3018CE
301987
301B07
201603
ENDCHAR
STARTCHAR C253b
ENCODING 9531
SWIDTH 400 0
DWIDTH 24 0
BBX 24 24 0 -2
BITMAP
070200
070300
060182
067FFF
0CE007
0CC006
1C8038
1C0038
3C0030
7C0032
7CFFFF
DC0030
1C0030
1C1030
1C1830
1C1830
1C0830
1C0030
1C0030
1C0030
1C0030
1C03F0
1C01E0
180040
ENDCHAR
STARTCHAR C253c
ENCODING 9532
SWIDTH 400 0
DWIDTH 24 0
BBX 24 24 0 -2
BITMAP
070000
070006
06FFFF
06C000
0CC000
0CC004
1CCFFE
1CC0C0
3CC0C0
7CC0C0
7CC0C0
DCC0CC
1CCFFC
1CC0C0
1CC0C0
1CC0C0
1CC0C0
1CC0C6
1CDFFE
1CC000
1CC000
1CC002
1CFFFF
180000
ENDCHAR
STARTCHAR C253d
ENCODING 9533
SWIDTH 400 0
DWIDTH 24 0
BBX 24 24 0 -2
BITMAP
071800
071800
061002
063FFF
0C3000
0C6000
1CC00C
1C3FFE
3C31CE
7C31CC
7C31CC
DC31CC
1CFFFF
1C718E
1C718C
1C718C
1C718C
1C718C
1C7FFF
1C000C
1C000C
1C01FC
1C0078
180030
ENDCHAR
STARTCHAR C253e
ENCODING 9534
SWIDTH 400 0
DWIDTH 24 0
BBX 24 24 0 -2
BITMAP
001800
003800
007C00
00C600
018300
0301C0
0600F8
0C003F
3FFFEF
E00002
000000
00000C
3FFFFC
001800
001800
061800
061C30
061FF0
061800
061800
061800
061802
FFFFFF
000000
ENDCHAR
STARTCHAR C253f
ENCODING 9535
SWIDTH 400 0
DWIDTH 24 0
BBX 24 24 0 -2
BITMAP
070070
070070
060060
066066
FFEFFE
E60E60
E60E60
E60E60
E60E60
E60E60
E62E62
FFFFFF
460460
060060
078078
0D80F8
0D80F8
0D81F8
1999B8
19F339
31E639
30CC3F
60181F
C0700E
ENDCHAR
STARTCHAR C2540
ENCODING 9536
SWIDTH 400 0
DWIDTH 24 0
BBX 24 24 0 -2
BITMAP
000380
000380
600308
307FFC
38039C
18030C
02030C
07FFFF
04030C
0C030C
0C039C
187FF8
180300
100308
30FFFC
F00300
F00300
600306
31FFFF
300300
300300
300300
300300
000300
ENDCHAR
STARTCHAR C2541
ENCODING 9537
SWIDTH 400 0
DWIDTH 24 0
BBX 24 24 0 -2
BITMAP
001C00
001C00
601810
301FF8
38303C
183838
026830
02C460
0686C0
060380
0403C0
0C07E0
180C7C
18181F
30700F
F1FFFA
F03018
603018
303018
303018
303018
303FF8
303018
003000
ENDCHAR
STARTCHAR C2542
ENCODING 9538
SWIDTH 400 0
DWIDTH 24 0
BBX 24 24 0 -2
BITMAP
008004
00C00E
60FFFF
30C386
38C386
18C306
02C306
06C326
04FFF6
0CC306
0CC306
18C386
18C3C6
10C346
30C666
F0C666
F0CC36
60CC36
30D836
30F006
30C006
30FFFE
30C006
008004
ENDCHAR
STARTCHAR C2543
ENCODING 9539
SWIDTH 400 0
DWIDTH 24 0
BBX 24 24 0 -2
BITMAP
000E00
000E20
600FF0
301870
381860
1830CC
027FFE
06038E
04030C
0C030C
0C038E
19FFFF
18030C
10030C
30030C
F0FFFC
F0030C
600300
300300
300300
300300
303F00
300F00
000600
ENDCHAR
STARTCHAR C2544
ENCODING 9540
SWIDTH 400 0
DWIDTH 24 0
BBX 24 24 0 -2
BITMAP
000008
30001C
3FFFFC
30000C
33C00C
33800C
33FFCC
331C0C
33180C
36180C
3C180C
30186C
37FFEC
30180C
31188C
3398EC
3398CC
3398CD
3398CD
2398CF
63FFC7
4100C7
C00003
800001
ENDCHAR
STARTCHAR C2545
ENCODING 9541
SWIDTH 400 0
DWIDTH 24 0
BBX 24 24 0 -2
BITMAP
000000
300038
3FFFF8
300038
3000B8
37FFF8
303038
303038
316338
33FFB8
338338
338338
338338
338338
33FF38
338338
338318
338318
338319
33FF0D
63830D
61000F
C00007
800003
ENDCHAR
STARTCHAR C2546
ENCODING 9542
SWIDTH 400 0
DWIDTH 24 0
BBX 24 24 0 -2
BITMAP
008000
60C820
318FF0
0F0C30
0E0C30
0F0C30
198C30
60CC30
9E0C30
1C0C30
1C8C30
FFCC30
180C30
1A0C30
1B0C30
330C30
360C30
360C30
6C9830
6CD831
DFD831
9CF03F
08603F
00C00E
ENDCHAR
STARTCHAR C2547
ENCODING 9543
SWIDTH 400 0
DWIDTH 24 0
BBX 24 24 0 -2
BITMAP
038007
038007
030006
0301C6
0319C6
FFF9C6
0301C6
0301C6
0301C6
0301C6
0319C6
7FF9C6
0001C6
0011C6
7FF9C6
6019C6
6019C6
601986
601806
601806
601806
7FF87E
60383C
601008
ENDCHAR
STARTCHAR C2548
ENCODING 9544
SWIDTH 400 0
DWIDTH 24 0
BBX 24 24 0 -2
BITMAP
030007
030007
070006
06C1C6
0C61C6
0C39C6
181DC6
300DC6
6001C6
C001C6
0031C6
3FF1C6
0001C6
0001C6
6039C6
7FF9C6
6019C6
601986
601806
601806
601806
7FF87E
60383C
601008
ENDCHAR
STARTCHAR C2549
ENCODING 9545
SWIDTH 400 0
DWIDTH 24 0
BBX 24 24 0 -2
BITMAP
06E007
06E007
06C006
06C0E6
06C0E6
46CCC6
26CCC6
3ED8C6
3EF0C6
16E0C6
06C0C6
06E0C6
1ED0C6
36D8C6
E6CCC6
66CCC6
0CC0C6
0CC0C6
0CC006
18C206
18C606
30FC7E
607C3C
C03808
ENDCHAR
STARTCHAR C254a
ENCODING 9546
SWIDTH 400 0
DWIDTH 24 0
BBX 24 24 0 -2
BITMAP
380007
380007
300006
3008E6
3FFCE6
2380C6
6380C6
C380C6
8380C6
0380C6
038CC6
7FFCC6
0380C6
0380C6
738CC6
638CC6
638CC6
638CC6
638C06
638C06
638C06
7FFC7E
600C3C
000808
ENDCHAR
STARTCHAR C254b
ENCODING 9547
SWIDTH 400 0
DWIDTH 24 0
BBX 24 24 0 -2
BITMAP
060007
060007
0C3806
0FF9C6
1831C6
3871C6
6C61C6
47C1C6
0381C6
0701C6
0F01C6
3B81C6
E30DC6
07FDC6
060DC6
0C1DC6
1E19C6
333186
41E006
01C006
030006
0E007E
18003C
E00008
ENDCHAR
STARTCHAR C254c
ENCODING 9548
SWIDTH 400 0
DWIDTH 24 0
BBX 24 24 0 -2
BITMAP
1C0007
1C0007
1C1006
1FF8E6
3038E6
3030C6
6870C6
C460C6
83C0C6
03C0C6
03E0C6
0678C6
0C1CC6
180CC6
7006C6
FFF8C6
3018C6
3018C6
301806
301806
301806
3FF87E
38183C
300008
ENDCHAR
STARTCHAR C254d
ENCODING 9549
SWIDTH 400 0
DWIDTH 24 0
BBX 24 24 0 -2
BITMAP
0C0007
070007
07C006
0EE1C6
0C71C6
1839C6
301DC6
600DC6
C011C6
7FF9C6
0301C6
0301C6
0301C6
0301C6
0331C6
7FF9C6
0301C6
030186
030006
030006
037C06
FFC07E
E0003C
200008
ENDCHAR
STARTCHAR C254e
ENCODING 9550
SWIDTH 400 0
DWIDTH 24 0
BBX 24 24 0 -2
BITMAP
038007
038007
03C006
0660E6
0630E6
0C18C6
181CC6
300EC6
6030C6
FFF8C6
0000C6
0000C6
0000C6
000CC6
7FFCC6
0600C6
0600C6
0C00C6
183006
301806
60FC06
FFCE7E
70063C
200008
ENDCHAR
STARTCHAR C254f
ENCODING 9551
SWIDTH 400 0
DWIDTH 24 0
BBX 24 24 0 -2
BITMAP
0060E0
20E0E0
30C0C0
1980C0
1910C0
FFF0C2
18C7FF
18C0C7
18C0C7
18C0C7
18C0C7
18D0C7
FFF8C7
18C0C7
18C1C7
18C1C7
30C187
30C187
30C307
30C307
60C606
60C4FE
C0C83C
809018
ENDCHAR
STARTCHAR C2550
ENCODING 9552
SWIDTH 400 0
DWIDTH 24 0
BBX 24 24 0 -2
BITMAP
000007
001907
FFF9C6
0C0186
0C7186
1FF986
183186
266186
42C186
818106
03000E
0C007E
38000C
E07800
007008
3FFFFC
00601C
00E00C
01C00C
03800C
070018
0E03F8
1800F0
E00060
ENDCHAR
STARTCHAR C2551
ENCODING 9553
SWIDTH 400 0
DWIDTH 24 0
BBX 24 24 0 -2
BITMAP
1C0000
1C0000
1C0004
1FFFFE
182006
183806
303806
307806
60EC06
C1C706
0383C6
07FFF6
0E0066
300106
03FF86
030186
030186
030186
03FF8E
03010C
02000C
0003FC
0001F8
000070
ENDCHAR
STARTCHAR C2552
ENCODING 9554
SWIDTH 400 0
DWIDTH 24 0
BBX 24 24 0 -2
BITMAP
1C0000
1C0000
1C0004
1FFFFE
182006
183006
326186
33FF86
630186
C33186
031986
030186
1FFFF6
030186
032186
063186
061986
060186
0C1F8E
180F0C
30020C
0003FC
0001F8
000070
ENDCHAR
STARTCHAR C2553
ENCODING 9555
SWIDTH 400 0
DWIDTH 24 0
BBX 24 24 0 -2
BITMAP
100000
180038
1FFFF8
181838
181838
181838
1FFFF8
181838
181838
181838
1FFFF8
18C830
01CE00
018C00
030C00
060C06
FFFFFF
000C00
000C00
000C00
000C00
000C00
000C00
000C00
ENDCHAR
STARTCHAR C2554
ENCODING 9556
SWIDTH 400 0
DWIDTH 24 0
BBX 24 24 0 -2
BITMAP
000E00
000E00
380E0C
300FFE
300E00
330E1C
33FFFC
33004C
3360EC
3338CC
330F8C
33070C
3307CC
330CEC
33187C
33602C
33000C
33FFFC
33000C
320000
300000
300006
7FFFFF
200000
ENDCHAR
STARTCHAR C2555
ENCODING 9557
SWIDTH 400 0
DWIDTH 24 0
BBX 24 24 0 -2
BITMAP
067070
067070
066060
066060
066060
466E60
266C70
3E6878
3E7064
166066
066063
067063
1E7861
366C60
E66E60
666660
0C6060
0C6060
0C6060
186260
186260
307E60
607E60
C01C60
ENDCHAR
STARTCHAR C2556
ENCODING 9558
SWIDTH 400 0
DWIDTH 24 0
BBX 24 24 0 -2
BITMAP
000000
6071C7
38E1FF
0FC1C7
0781C7
0EE1C7
1831C7
6019C7
8401C7
0701C7
0601C7
0619C7
FFFDC7
0C01C7
0CC1C7
1CC1C7
1981C7
1981FF
3301DE
3311CC
6619C0
4FFDC0
8E0DC0
0C0180
ENDCHAR
STARTCHAR C2557
ENCODING 9559
SWIDTH 400 0
DWIDTH 24 0
BBX 24 24 0 -2
BITMAP
1C0000
1C01C7
1801FF
1831C7
3FF9C7
3301C7
6301C7
C301C7
8301C7
0309C7
031DC7
FFFDC7
0301C7
0301C7
731DC7
7319C7
6319C7
6319FF
6319DE
6319CC
6319C0
7FF9C0
6039C0
001180
ENDCHAR
STARTCHAR C2558
ENCODING 9560
SWIDTH 400 0
DWIDTH 24 0
BBX 24 24 0 -2
BITMAP
200000
300007
3FFFFF
300E00
300E00
300E00
300E18
300FFC
300E00
300E00
300E04
37FFFE
300600
300600
30C620
30C610
218608
61860C
63060E
660606
4C0600
C07E00
801E00
000C00
ENDCHAR
STARTCHAR C2559
ENCODING 9561
SWIDTH 400 0
DWIDTH 24 0
BBX 24 24 0 -2
BITMAP
001800
001800
001806
FFFFFF
001800
101830
1FFFF8
181838
181838
1FFFF8
183838
181838
181838
1FFFF8
187030
006000
00C000
018080
030040
060020
0C0010
1FFFF8
3FC00C
1C000C
ENDCHAR
STARTCHAR C255a
ENCODING 9562
SWIDTH 400 0
DWIDTH 24 0
BBX 24 24 0 -2
BITMAP
000004
40700E
FFFBFF
E03206
E03206
E03306
FFF30C
E1010C
E3810C
E3818C
EBB098
FFF8D8
FBB0F8
FBB070
FBB070
FBB070
FBB0F0
FBB0F8
DBB198
DBB30C
DBF30E
8BA60F
838C07
033803
ENDCHAR
STARTCHAR C255b
ENCODING 9563
SWIDTH 400 0
DWIDTH 24 0
BBX 24 24 0 -2
BITMAP
000300
000180
0001C0
C60082
FF7FFF
E701C0
E601C0
E601C0
E601C0
E601C0
E601C0
E601C0
E63FFE
E601C0
E601C0
E601C0
E601C0
FE01C0
E601C0
4001C0
0001C0
0001C2
00FFFF
000000
ENDCHAR
STARTCHAR C255c
ENCODING 9564
SWIDTH 400 0
DWIDTH 24 0
BBX 24 24 0 -2
BITMAP
000000
000E18
00FE1C
0C0E18
FE0E18
E60E38
E60E38
E6FE30
E6CC30
E6C030
E6C030
E6C460
E7FE60
E68E60
E60E60
E60EE0
EE0ECC
FE0EC6
E40FC6
400F83
000FFF
01FFE3
007981
003000
ENDCHAR
STARTCHAR C255d
ENCODING 9565
SWIDTH 400 0
DWIDTH 24 0
BBX 24 24 0 -2
BITMAP
000E00
000E60
000C30
C60C18
FF0C08
E70C02
E67FFF
E61C00
E61800
E6180C
E61E0C
E61A0C
E61A1C
E61B18
E61198
E631B0
E630F0
FE30E0
E660F0
4061B8
00C31E
00CE0F
019807
007000
ENDCHAR
STARTCHAR C255e
ENCODING 9566
SWIDTH 400 0
DWIDTH 24 0
BBX 24 24 0 -2
BITMAP
000004
00000E
007FFF
C60606
FF0606
E70606
E60E06
E60C06
E60C0E
E619FC
E61078
E62030
E64000
E6000C
E63FFE
E6300C
E6300C
FE300C
E6300C
40300C
00300C
003FFC
00300C
003000
ENDCHAR
STARTCHAR C255f
ENCODING 9567
SWIDTH 400 0
DWIDTH 24 0
BBX 24 24 0 -2
BITMAP
000000
00200C
007FFE
C6700E
FF700C
E7700C
E6700C
E6700C
E6700C
E6700C
E6700C
E67FFC
E6600C
E60000
E61800
E61C10
E61808
FE180C
E6300E
403006
006007
00C003
008003
010001
ENDCHAR
STARTCHAR C2560
ENCODING 9568
SWIDTH 400 0
DWIDTH 24 0
BBX 24 24 0 -2
BITMAP
007070
007070
007760
0C6660
FE6660
ECE660
ECC666
ECC67F
EDDFE7
EDC667
EFC666
EEC666
ECC666
ECC664
ECC66C
ECC668
ECC660
FCC600
E8C601
40C601
00C603
00C7FF
00C3FF
00C1FE
ENDCHAR
STARTCHAR C2561
ENCODING 9569
SWIDTH 400 0
DWIDTH 24 0
BBX 24 24 0 -2
BITMAP
000180
000380
000380
C60740
FF0660
E70C30
E60838
E6181C
E631CF
E66187
E6C182
E68180
E63180
E63188
E6318C
E67186
E66187
FEC187
E18182
400180
000180
001F80
000F00
000200
ENDCHAR
STARTCHAR C2562
ENCODING 9570
SWIDTH 400 0
DWIDTH 24 0
BBX 24 24 0 -2
BITMAP
0001C0
0001C0
000180
C60180
FF0186
E77FFE
E60180
E60180
E61D9C
E6199C
E61918
E61818
E61818
E63819
E6FFFF
E61818
E61818
FE1818
E63018
403018
003018
006018
00C018
018018
ENDCHAR
STARTCHAR C2563
ENCODING 9571
SWIDTH 400 0
DWIDTH 24 0
BBX 24 24 0 -2
BITMAP
000004
00000E
007FFF
C60006
FF0006
E70066
E63FE6
E60006
E60006
E630C6
E63FE6
E630C6
E630C6
E630C6
E630C6
E630C6
E63FC6
FE30C6
E60006
400006
000006
0001FE
00003C
000008
ENDCHAR
STARTCHAR C2564
ENCODING 9572
SWIDTH 400 0
DWIDTH 24 0
BBX 24 24 0 -2
BITMAP
00007E
0023FE
007F00
C67006
FF7FFF
E77007
E67007
E67007
E67FFE
E67000
E6700C
E67FFE
E6701E
E67038
E67060
E670C0
E66180
FE6600
E66C00
40D801
00D801
00DFFF
018FFF
0007FE
ENDCHAR
STARTCHAR C2565
ENCODING 9573
SWIDTH 400 0
DWIDTH 24 0
BBX 24 24 0 -2
BITMAP
100300
1C0180
182186
187FFF
18E006
18C00C
FF0008
180000
180006
18FFFF
1801C0
1801C0
1801C0
1801C0
1801C0
1801C0
1801C0
1E01C0
3801C0
F001C0
E001C0
401FC0
000780
000300
ENDCHAR
STARTCHAR C2566
ENCODING 9574
SWIDTH 400 0
DWIDTH 24 0
BBX 24 24 0 -2
BITMAP
100200
1C0300
182182
183FFF
186007
18E006
FFC08C
180080
1800C0
180E40
180E40
180E60
180E60
180C20
180C30
180C30
181818
1E1818
38181C
F0300C
E0300E
406007
00C007
018000
ENDCHAR
STARTCHAR C2567
ENCODING 9575
SWIDTH 400 0
DWIDTH 24 0
BBX 24 24 0 -2
BITMAP
1001C0
1C01C0
180180
180180
180186
18FFFF
FF0180
180180
180180
180180
18018C
187FFC
1803C0
1803C0
1807E0
180DE0
1819B0
1E1998
38318C
F0618F
E0C187
438182
000180
000180
ENDCHAR
STARTCHAR C2568
ENCODING 9576
SWIDTH 400 0
DWIDTH 24 0
BBX 24 24 0 -2
BITMAP
100E00
1C0E60
180C30
180C18
180C08
180C02
FF7FFF
181C00
181800
18180C
181E0C
181A0C
181A1C
181B18
181198
1831B0
1830F0
1E30E0
3860F0
F061B8
E0C31E
40CE0F
019807
007000
ENDCHAR
STARTCHAR C2569
ENCODING 9577
SWIDTH 400 0
DWIDTH 24 0
BBX 24 24 0 -2
BITMAP
10001E
1C20FE
187FF8
187318
187318
187318
FF7318
187318
187318
187318
187318
187318
187318
18730C
18730C
18630C
18620C
1E660C
384446
F0CC26
E0D8F7
419FBB
019C13
030801
ENDCHAR
STARTCHAR C256a
ENCODING 9578
SWIDTH 400 0
DWIDTH 24 0
BBX 24 24 0 -2
BITMAP
00C000
01C0C0
018060
030030
060018
3FFFFC
3FD00C
18180C
003000
006006
7FFFFE
018100
0300C0
060060
0C1C3F
18181F
601826
8FFFF0
001800
001800
001800
001806
FFFFFF
000000
ENDCHAR
STARTCHAR C256b
ENCODING 9579
SWIDTH 400 0
DWIDTH 24 0
BBX 24 24 0 -2
BITMAP
000000
000038
1FFFF8
041860
021860
0318C0
019980
01390C
3FFFFC
001800
001800
001800
001800
001000
001000
001C00
001800
001818
3FFFFC
001800
001800
001800
003807
FFFFFF
ENDCHAR
STARTCHAR C256c
ENCODING 9580
SWIDTH 400 0
DWIDTH 24 0
BBX 24 24 0 -2
BITMAP
070004
07000E
0603FF
060206
7FF206
060306
06030C
06010C
06010C
FFF18C
070098
0700D8
0600F8
060070
062070
7FF070
0600F0
0600F8
060198
06030C
07F30E
FF060F
E00C07
003803
ENDCHAR
STARTCHAR C256d
ENCODING 9581
SWIDTH 400 0
DWIDTH 24 0
BBX 24 24 0 -2
BITMAP
104006
1C7FFE
186006
186006
186006
187FFE
FF6006
186380
186380
186300
1863B8
186FFC
186318
186318
186318
186318
186318
1E6318
38C618
F0C619
E0CC19
41981F
01300F
00E006
ENDCHAR
STARTCHAR C256e
ENCODING 9582
SWIDTH 400 0
DWIDTH 24 0
BBX 24 24 0 -2
BITMAP
100000
1C0606
187F7F
186767
186667
186667
FF6667
186667
186667
186667
186667
186667
186667
1867E7
186067
186007
186007
1E6007
386007
F06007
E06007
407FFF
006006
004000
ENDCHAR
STARTCHAR C256f
ENCODING 9583
SWIDTH 400 0
DWIDTH 24 0
BBX 24 24 0 -2
BITMAP
000006
7FFFFE
001000
001C00
001830
183078
0E30E0
066C80
00C380
0180E0
060038
0C001E
F1800F
018000
1980E0
0FFFE0
0700C0
078180
0CE300
183E00
203F00
01E3FF
07007F
F8000F
ENDCHAR
STARTCHAR C2570
ENCODING 9584
SWIDTH 400 0
DWIDTH 24 0
BBX 24 24 0 -2
BITMAP
0000E0
3018E0
381CC0
3018C0
3018C0
3218C2
3F1FFF
3310C0
6330C0
6320C0
4360C0
E640C0
FE00C0
9E00C4
0E1FFE
0C00C0
0C00C0
1C00C0
1800C0
1000C0
3000C0
6000C0
C000C7
807FFF
ENDCHAR
STARTCHAR C2571
ENCODING 9585
SWIDTH 400 0
DWIDTH 24 0
BBX 24 24 0 -2
BITMAP
003000
003000
007004
7FFFFE
00C180
018080
030060
060030
0F019C
19818F
30C307
E04630
1FFFF0
001800
001800
001808
00381C
3FFFFC
001800
001800
001800
001800
001800
001000
ENDCHAR
STARTCHAR C2572
ENCODING 9586
SWIDTH 400 0
DWIDTH 24 0
BBX 24 24 0 -2
BITMAP
003000
003000
007004
7FFFFE
00C180
018080
030060
060030
0C001C
18000F
380037
EFFFF0
0C0000
0C0060
0FFFF0
0C0070
0C0060
0C0060
0FFFE0
0C0060
0C0000
0C0008
0C001C
1FFFFC
ENDCHAR
STARTCHAR C2573
ENCODING 9587
SWIDTH 400 0
DWIDTH 24 0
BBX 24 24 0 -2
BITMAP
003000
003000
007004
7FFFFE
00C180
018080
030060
060030
0C009C
1BFFCF
3300E7
E300C0
0300C0
0300C0
03FFC0
0300C0
0300C0
0300C0
03FFC0
0300C0
0300C0
0300C6
7FFFFE
000000
ENDCHAR
STARTCHAR C2574
ENCODING 9588
SWIDTH 400 0
DWIDTH 24 0
BBX 24 24 0 -2
BITMAP
003000
003000
007004
7FFFFE
00C180
018080
037060
067030
0CE01C
19C08F
338047
E707E0
0FFC30
070030
01C180
018180
01818C
3FFFFC
018180
030180
070180
0E0180
1C0180
300180
ENDCHAR
STARTCHAR C2575
ENCODING 9589
SWIDTH 400 0
DWIDTH 24 0
BBX 24 24 0 -2
BITMAP
003000
003000
007004
7FFFFE
00C180
018080
030060
060030
0C07DC
1FFFEF
3E0E07
E60E00
060E00
060E38
07FFF8
060600
060300
060300
066184
0780C4
07007C
0601BC
01FF8C
000000
ENDCHAR
STARTCHAR C2576
ENCODING 9590
SWIDTH 400 0
DWIDTH 24 0
BBX 24 24 0 -2
BITMAP
003000
003000
00600E
7FFFFE
018180
0300E0
060078
0C001F
3807EF
E7FFF2
0C30C0
0C30C0
0C30C0
0C30C0
0C30C0
0C30C0
0C3060
0C7060
1C6060
18C230
188138
33FF9C
23E0CE
418004
ENDCHAR
STARTCHAR C2577
ENCODING 9591
SWIDTH 400 0
DWIDTH 24 0
BBX 24 24 0 -2
BITMAP
006000
006000
00C010
1FFFF8
1C0038
1C0038
1C0038
1C0038
1FFFF8
1C0038
1C0038
1C0038
1FFFF0
083800
003000
003006
FFFFFF
00E400
01C300
0381C0
0700F8
0E003F
30000E
E00000
ENDCHAR
STARTCHAR C2578
ENCODING 9592
SWIDTH 400 0
DWIDTH 24 0
BBX 24 24 0 -2
BITMAP
060060
060060
060060
060060
060064
7FE7FE
060060
060060
060060
060060
0E60E7
FFEFFF
0600E0
0600E0
0F01E0
0D81B0
0CC190
18C318
18E30C
30660C
306C06
601807
C03003
80E000
ENDCHAR
STARTCHAR C2579
ENCODING 9593
SWIDTH 400 0
DWIDTH 24 0
BBX 24 24 0 -2
BITMAP
001800
003800
00300C
7FFFFE
00C20C
71811C
3B00F0
1F00F0
0FFFFC
18001F
300007
EFFFF0
030000
030000
060060
07FFF0
000060
000060
000060
000060
0000E0
007FC0
000F80
000300
ENDCHAR
STARTCHAR C257a
ENCODING 9594
SWIDTH 400 0
DWIDTH 24 0
BBX 24 24 0 -2
BITMAP
0E0300
0E0300
0C8300
0FC300
6C031C
6C0618
7F0618
63861B
63BFFF
638E18
738C18
DB0C38
8F0C38
861830
061830
061860
0C1C60
0C03C0
1801E0
100338
30061C
600C0E
C01807
80E000
ENDCHAR
STARTCHAR C257b
ENCODING 9595
SWIDTH 400 0
DWIDTH 24 0
BBX 24 24 0 -2
BITMAP
0001C0
3801C0
3801C0
3001C0
3101C0
3381C2
FFC1FF
FB81C0
3381C0
3381C0
3381C0
3381C0
7311C6
631FFE
671806
E61806
3E1806
0E1806
1F1806
139806
21D806
40DFFE
801806
001004
ENDCHAR
STARTCHAR C257c
ENCODING 9596
SWIDTH 400 0
DWIDTH 24 0
BBX 24 24 0 -2
BITMAP
200070
381870
301C60
301860
363860
363062
FF61FF
FE4477
76CE67
36CC67
666C67
663867
663867
CC3067
CC7867
EC6C67
3CC6C7
1DFEC7
1FE3C7
36C187
220386
40077E
800E3C
001818
ENDCHAR
STARTCHAR C257d
ENCODING 9597
SWIDTH 400 0
DWIDTH 24 0
BBX 24 24 0 -2
BITMAP
0000E0
3800EC
3800C6
3000C3
3230C0
333FFF
FFB0C0
FB30C0
3330C0
3330C7
3330C7
3330C6
7330C6
66306C
66306C
E6307C
3C3078
1E3030
1F3379
333CD9
21B98F
40330F
800607
001803
ENDCHAR
STARTCHAR C257e
ENCODING 9598
SWIDTH 400 0
DWIDTH 24 0
BBX 24 24 0 -2
BITMAP
0000E0
3810E2
3818C7
3018C7
3218C7
333FFF
FF9000
FB0002
333FFF
333000
333000
333000
733000
663000
663000
E63000
3C3000
1E3000
1F3000
333000
21F000
406000
804000
008000
ENDCHAR
STARTCHAR C2621
ENCODING 9761
SWIDTH 400 0
DWIDTH 24 0
BBX 24 24 0 -2
BITMAP
000600
380F00
387866
30737F
327367
337367
FFF367
FB7367
337367
337367
337367
337367
737367
667767
667F67
E67F67
3C7667
1E367F
1F0E6E
330C6C
219C60
403860
807060
00C060
ENDCHAR
STARTCHAR C2622
ENCODING 9762
SWIDTH 400 0
DWIDTH 24 0
BBX 24 24 0 -2
BITMAP
0081C0
01C1C0
7FC380
018300
030300
0E0610
0C0C08
0C180C
0C1806
0C3FFF
0DBF03
1E3803
FC0000
EC000C
0C1FFE
0C180E
0C180C
0C180C
0C180C
0C180C
0C180C
FC1FFC
3C1C0C
181800
ENDCHAR
STARTCHAR C2623
ENCODING 9763
SWIDTH 400 0
DWIDTH 24 0
BBX 24 24 0 -2
BITMAP
001820
0C1830
061870
071860
0318C0
201802
7FFFFF
E00007
E00006
C0018C
0FFFC0
0003C0
000700
000C00
001800
001806
FFFFFF
001800
001800
001800
001800
03F800
007800
003000
ENDCHAR
STARTCHAR C2624
ENCODING 9764
SWIDTH 400 0
DWIDTH 24 0
BBX 24 24 0 -2
BITMAP
0381C0
0381C0
031180
7FF980
030180
031980
7FFD80
E01D80
C01180
806180
3FE180
00E180
018180
030180
030180
03F180
FFC180
F30180
430181
030181
030183
3F01FF
1E01FF
04007E
ENDCHAR
STARTCHAR C2625
ENCODING 9765
SWIDTH 400 0
DWIDTH 24 0
BBX 24 24 0 -2
BITMAP
003000
001800
201802
3FFFFF
600007
E00006
C00004
000008
3FFFFC
018000
018000
0380E0
03FFE0
030060
070060
06E0C0
0638C0
0418C0
0009C0
000180
000180
000186
7FFFFF
000000
ENDCHAR
STARTCHAR C2626
ENCODING 9766
SWIDTH 400 0
DWIDTH 24 0
BBX 24 24 0 -2
BITMAP
000030
0FFFF0
0C0030
0C0030
0C0030
0FFFF0
0C0030
0C0030
0FFFF0
080020
000000
1FFFF8
0000C0
0000C0
0000CC
7FFFFE
0400C0
0300C0
0180C0
0080C0
0000C0
007FC0
000FC0
000380
ENDCHAR
STARTCHAR C2627
ENCODING 9767
SWIDTH 400 0
DWIDTH 24 0
BBX 24 24 0 -2
BITMAP
1C0060
1C0060
1C0062
1C0FFF
1C0CE7
1C4C66
FFEC64
1F8C60
1F8FFC
1F8D0C
1F8D0C
1F8D98
1F8CF8
1B9870
1B9870
1B98D8
33B18E
33E606
339C02
338001
638001
63FFFF
C1FFFF
80FFFE
ENDCHAR
STARTCHAR C2628
ENCODING 9768
SWIDTH 400 0
DWIDTH 24 0
BBX 24 24 0 -2
BITMAP
1C0300
1C0300
1C0300
1C0302
1C1FFF
1C4300
FFE300
1F8600
1F8606
1F87FE
1F8C30
1F8C30
1F8830
1B9830
1BB030
1BE030
338033
3387FF
338000
338001
638001
63FFFF
C1FFFF
80FFFE
ENDCHAR
STARTCHAR C2629
ENCODING 9769
SWIDTH 400 0
DWIDTH 24 0
BBX 24 24 0 -2
BITMAP
200000
310002
319FFF
70C060
60E060
606060
C02060
BB8060
338064
3387FE
338060
338060
338060
338060
338060
338062
339FFF
338000
338000
638001
638001
43FFFF
C1FFFF
80FFFE
ENDCHAR
STARTCHAR C262a
ENCODING 9770
SWIDTH 400 0
DWIDTH 24 0
BBX 24 24 0 -2
BITMAP
200000
30000C
3FFFFE
30000C
30000C
3FFFFC
300000
300038
300FFC
33FE00
301800
300C00
300618
37FFFC
30007C
7001E0
600700
603C00
61E000
470000
DF0000
D9FFFF
807FFF
001FFC
ENDCHAR
STARTCHAR C262b
ENCODING 9771
SWIDTH 400 0
DWIDTH 24 0
BBX 24 24 0 -2
BITMAP
200000
30000C
3FFFFE
30000C
30000C
3FFFFC
30C04C
30C060
318038
33001C
36400E
3C7006
326030
337FF0
31C030
70C070
61E060
6338C0
661F80
400F00
C01FC0
C070FF
83803F
3E000F
ENDCHAR
STARTCHAR C262c
ENCODING 9772
SWIDTH 400 0
DWIDTH 24 0
BBX 24 24 0 -2
BITMAP
200000
30000C
3FFFFE
30000C
30000C
3FFFFC
30000C
300700
3007F8
33FFFC
330600
330600
330600
33060C
37FFFE
720E0E
601E0C
60360C
60660C
40C6FC
C18638
C60610
9C0600
100600
ENDCHAR
STARTCHAR C262d
ENCODING 9773
SWIDTH 400 0
DWIDTH 24 0
BBX 24 24 0 -2
BITMAP
101800
1C183C
181838
181838
3FFFF8
103030
00E000
038000
060070
1FFFF8
1C3030
1C1830
1C1830
1C0837
FFFFFF
183030
181830
181830
180036
3FFFFE
100060
003FE0
000FC0
000380
ENDCHAR
STARTCHAR C262e
ENCODING 9774
SWIDTH 400 0
DWIDTH 24 0
BBX 24 24 0 -2
BITMAP
1000E0
1C00EC
1800C6
1800C3
1830C0
993FFF
DBB0C0
9BB0C0
9BB0C0
9BB0C7
9BB0C7
9BB0C6
9BB0C6
9BB06C
9BB06C
9BB07C
9BB078
9BB030
FFB379
013CD9
00398F
00330F
000607
001803
ENDCHAR
STARTCHAR C262f
ENCODING 9775
SWIDTH 400 0
DWIDTH 24 0
BBX 24 24 0 -2
BITMAP
100004
1C100E
181FFF
181806
181806
991806
DB9806
9B9806
9B9806
9B9806
9B9FFE
9B9334
9B8330
9B8330
9B8630
9B8630
9B8E30
9B8C30
FF8C30
011831
003031
00603F
00C03F
01800E
ENDCHAR
STARTCHAR C2630
ENCODING 9776
SWIDTH 400 0
DWIDTH 24 0
BBX 24 24 0 -2
BITMAP
10003E
1C11FE
181F00
181806
181FFF
991807
DB9807
9B9807
9B9FFE
9B9800
9B980C
9B9FFE
9B981E
9B9838
9B9870
9B98E0
9B99C0
9BB380
FFB700
013601
006E01
006FFF
00C7FF
0083FE
ENDCHAR
STARTCHAR C2631
ENCODING 9777
SWIDTH 400 0
DWIDTH 24 0
BBX 24 24 0 -2
BITMAP
001800
38181C
381818
301818
3FFFF8
000000
1FFFE0
1C0030
1C0030
1C0030
1FFFF0
000022
FFFFFF
0C0000
0C0010
1FFFF8
180038
000038
000038
000030
000070
007FE0
000FC0
000380
ENDCHAR
STARTCHAR C2632
ENCODING 9778
SWIDTH 400 0
DWIDTH 24 0
BBX 24 24 0 -2
BITMAP
000060
0FFFF0
0001E0
000700
001C00
011838
7F9C70
01DEC0
019B80
0319C0
0618E0
0C183F
19F81F
603006
800000
001800
001800
1C183C
181838
181838
181838
181838
3FFFF8
100030
ENDCHAR
STARTCHAR C2633
ENCODING 9779
SWIDTH 400 0
DWIDTH 24 0
BBX 24 24 0 -2
BITMAP
001800
301818
38181C
301818
383818
3FFFF8
000000
300008
3FFFFC
300000
300000
300080
30FFC0
30C0E0
30C0C0
30C0C0
30C0C0
30FFC0
30C080
300000
300000
30000C
3FFFFE
000000
ENDCHAR
STARTCHAR C2634
ENCODING 9780
SWIDTH 400 0
DWIDTH 24 0
BBX 24 24 0 -2
BITMAP
001800
301818
38181C
301818
301818
3FFFF8
300018
000000
000010
1FFFF8
183838
181838
181838
181838
181838
1FFFF8
183838
181838
181838
181838
181838
1FFFF8
180030
180000
ENDCHAR
STARTCHAR C2635
ENCODING 9781
SWIDTH 400 0
DWIDTH 24 0
BBX 24 24 0 -2
BITMAP
1C0180
1C00C0
1C08C6
1C1FFF
1DB806
FFF004
DDC000
DD8000
DD8002
DD9FFF
DD8060
DD8060
DD8060
DD8060
DD8060
DD8060
DF8060
DF0060
1C0060
1C0060
1C0060
1C0FE0
1C03C0
180180
ENDCHAR
STARTCHAR C2636
ENCODING 9782
SWIDTH 400 0
DWIDTH 24 0
BBX 24 24 0 -2
BITMAP
1C0700
1C0700
1C060C
1C0FFE
5F8E1E
FFCE0C
DD9A18
DD9118
DDA1B0
DD80E0
DD80E0
DD81B0
DD831C
DD860F
DD8D87
DDB8E2
DD8070
DF8030
5D0000
1C0300
1C01E0
1C0070
1C0030
180018
ENDCHAR
STARTCHAR C2637
ENCODING 9783
SWIDTH 400 0
DWIDTH 24 0
BBX 24 24 0 -2
BITMAP
1C0000
1C400C
1FE7FE
18660E
10660C
38C60C
6DC67C
C7861D
830609
060603
0C07FF
3813FF
E01800
001818
3FFFFC
30181C
301818
301818
301818
301818
301BF8
301870
301820
001000
ENDCHAR
STARTCHAR C2638
ENCODING 9784
SWIDTH 400 0
DWIDTH 24 0
BBX 24 24 0 -2
BITMAP
001800
000C00
300C06
3FFFFF
300000
300C00
300600
300606
37FFFE
300000
300038
310038
308030
30C030
306060
307060
303040
6038C0
601980
601980
600302
CFFFFF
800000
000000
ENDCHAR
STARTCHAR C2639
ENCODING 9785
SWIDTH 400 0
DWIDTH 24 0
BBX 24 24 0 -2
BITMAP
001800
000C00
300C06
3FFFFF
30C000
30E0E0
30C060
30C024
3FFFFE
30C000
30D010
30D838
30C838
30C830
308C70
318460
318260
6303C0
630380
6603C0
640670
C8183F
90700F
03C007
ENDCHAR
STARTCHAR C263a
ENCODING 9786
SWIDTH 400 0
DWIDTH 24 0
BBX 24 24 0 -2
BITMAP
001800
000C00
300C06
3FFFFF
300000
300010
33FFF8
338038
338038
338038
338038
338038
33FFF8
338038
338038
338038
338038
63FFF8
630030
600000
600000
C00006
9FFFFF
000000
ENDCHAR
STARTCHAR C263b
ENCODING 9787
SWIDTH 400 0
DWIDTH 24 0
BBX 24 24 0 -2
BITMAP
001800
000C00
300C06
3FFFFF
300000
310030
33FFF8
338038
338038
338038
338038
338038
338038
338038
33FFF8
310010
30C000
60E060
61C030
618018
63001C
C6000E
8C0006
180006
ENDCHAR
STARTCHAR C263c
ENCODING 9788
SWIDTH 400 0
DWIDTH 24 0
BBX 24 24 0 -2
BITMAP
001800
000C00
300C06
3FFFFF
300000
33C000
338000
338004
33FFFE
331800
331800
361800
361808
3C1FFC
301800
301800
301800
60180C
601FFC
601800
601800
C01800
801800
001800
ENDCHAR
STARTCHAR C263d
ENCODING 9789
SWIDTH 400 0
DWIDTH 24 0
BBX 24 24 0 -2
BITMAP
001800
000C00
300C06
3FFFFF
300400
300E00
300E00
301900
303080
306060
30C0BC
31BF9F
37000F
3C0020
31FFF0
300070
300060
6000C0
603180
600F00
600700
C00380
8001C0
0000C0
ENDCHAR
STARTCHAR C263e
ENCODING 9790
SWIDTH 400 0
DWIDTH 24 0
BBX 24 24 0 -2
BITMAP
001800
000C00
300C06
3FFFFF
308000
30E000
30C000
30C008
31FFFC
318600
330600
360600
340600
300604
37FFFE
300E00
300C00
601C60
601830
603018
60601C
C0C00E
838006
0E0006
ENDCHAR
STARTCHAR C263f
ENCODING 9791
SWIDTH 400 0
DWIDTH 24 0
BBX 24 24 0 -2
BITMAP
001800
001800
001818
3FFFFC
001800
001800
001806
FFFFFF
018300
030300
060380
0C01FF
1800FF
6600C0
8700E0
0600C0
0700C7
FFFFFF
0600C0
0600C0
0C00C0
1800C0
3000C0
E000C0
ENDCHAR
STARTCHAR C2640
ENCODING 9792
SWIDTH 400 0
DWIDTH 24 0
BBX 24 24 0 -2
BITMAP
021004
07180E
FF9FFF
031806
031806
031806
031806
7F1806
621FFE
6018C0
6018C0
E318C2
FF9FFF
0398C0
0398E0
039860
039860
039860
039831
031839
071B9F
FE1E0F
3C1C07
180803
ENDCHAR
STARTCHAR C2641
ENCODING 9793
SWIDTH 400 0
DWIDTH 24 0
BBX 24 24 0 -2
BITMAP
0200E0
0700E0
FF80C0
0300C0
0300C6
031FFF
0318C7
7F18C6
6218C4
6018C0
6018CC
E31FFE
FF9A0E
039A0C
039B18
039938
0399B0
03B0E0
03B0E0
0331F0
0763B8
FE671F
3CCE0F
18B807
ENDCHAR
STARTCHAR C2642
ENCODING 9794
SWIDTH 400 0
DWIDTH 24 0
BBX 24 24 0 -2
BITMAP
030000
0301C0
07FFE0
0600C0
0600C0
0FFFC0
0001C6
FFFFFF
06E200
0EC380
1D8300
3B030C
77FFFE
CD830C
19830C
31830C
C1830C
01830C
01830C
01830C
0183FC
01833C
000318
000200
ENDCHAR
STARTCHAR C2643
ENCODING 9795
SWIDTH 400 0
DWIDTH 24 0
BBX 24 24 0 -2
BITMAP
070004
070006
06000E
06001C
060038
061870
07F8E0
060180
060006
06000E
06000C
060018
063030
FFF860
E030C0
E03307
E03007
E0300E
E0301C
E03038
E03070
FFF0E0
E031C0
C00700
ENDCHAR
STARTCHAR C2644
ENCODING 9796
SWIDTH 400 0
DWIDTH 24 0
BBX 24 24 0 -2
BITMAP
0001F8
0C7FFC
0FF800
0C0000
0C0004
0FFFFE
0C00C0
0C00C0
0C00C0
0C00C0
1C00C0
1800C0
1800C0
3000C0
6018C0
021C00
038E00
230008
23000E
630027
E30063
C3FFC1
01FFE0
007FC0
ENDCHAR
STARTCHAR C2645
ENCODING 9797
SWIDTH 400 0
DWIDTH 24 0
BBX 24 24 0 -2
BITMAP
001800
003800
006400
00C200
018180
0300E0
07007F
1F81DF
7381C7
C381C0
0301C0
0301C0
0601C0
0C01C0
180180
301800
020C00
238608
23000E
230027
630063
C3FFC1
81FFE0
007FC0
ENDCHAR
STARTCHAR C2646
ENCODING 9798
SWIDTH 400 0
DWIDTH 24 0
BBX 24 24 0 -2
BITMAP
1C0300
1C0180
182186
187FFF
18E006
18C00C
5C0008
5E0000
DB0006
D9FFFF
D801C0
9801C0
1801C0
1801C0
1801C0
1801C0
1801C0
1801C0
1801C0
1801C0
1801C0
181FC0
180780
180300
ENDCHAR
STARTCHAR C2647
ENCODING 9799
SWIDTH 400 0
DWIDTH 24 0
BBX 24 24 0 -2
BITMAP
1C01C0
1C01C0
1C01C0
1C01C0
1C01C2
1C7FFF
3E01C0
7F01C0
7F81C0
DD01C0
DC01C6
9C3FFE
1C01C0
1C03E0
1C03E0
1C07F0
1C0DD8
1C1DDC
1C39CE
1C71CF
1CE1C7
1D81C2
1C01C0
180180
ENDCHAR
STARTCHAR C2648
ENCODING 9800
SWIDTH 400 0
DWIDTH 24 0
BBX 24 24 0 -2
BITMAP
1C0380
1C0380
1C0300
1C0300
1C0300
1C0302
3EFFFF
7F0340
7F8320
DD0620
DC0630
9C0C18
1C19D8
1C19CC
1C3187
1C6187
1CC18A
1D1FF8
1C0180
1C0180
1C0180
1C0180
1C0180
180180
ENDCHAR
STARTCHAR C2649
ENCODING 9801
SWIDTH 400 0
DWIDTH 24 0
BBX 24 24 0 -2
BITMAP
1C0380
1C0380
1C0300
1C0302
1CFFFF
1C0600
3E0E00
7F0C18
7F9C0C
DD1806
DC303E
9C7FE7
1C3662
1C0660
1C0660
1C0660
1C0E60
1C0C60
1C0C60
1C1861
1C3061
1C607F
1CC03F
19801E
ENDCHAR
STARTCHAR C264a
ENCODING 9802
SWIDTH 400 0
DWIDTH 24 0
BBX 24 24 0 -2
BITMAP
1C0000
1C7007
1C7FFF
1C71C7
1C71C7
1C71C7
3E71C7
7F7FFF
7FF1C7
DD71C7
DC71C7
9C71C7
1C7FFF
1C71C6
1C01C0
1C01C0
1C01C0
1C01C0
1C01C0
1C01C0
1C01C0
1C01C0
1C01C0
180180
ENDCHAR
STARTCHAR C264b
ENCODING 9803
SWIDTH 400 0
DWIDTH 24 0
BBX 24 24 0 -2
BITMAP
1C1000
1C180C
1C1FFE
1C180C
1C190C
1C18CC
3E18CC
7F180C
7F980C
DDFFFF
DC300E
9C300C
1C330C
1C318C
1C30CC
1C300C
1C300C
1C300C
1C3FFF
1C000C
1C0018
1C03F8
1C00F0
180060
ENDCHAR
STARTCHAR C264c
ENCODING 9804
SWIDTH 400 0
DWIDTH 24 0
BBX 24 24 0 -2
BITMAP
1C01C0
1C01C0
1C01C0
1C39C7
1C39C7
1C31C6
3E31C6
7F31C6
7FB1C6
DD31C6
DC31C6
9C3FFE
1C01C4
1C01C0
1C21C2
1C79C7
1C71C7
1C71C7
1C71C7
1C71C7
1C71C7
1C71C7
1C7FFF
180006
ENDCHAR
STARTCHAR C264d
ENCODING 9805
SWIDTH 400 0
DWIDTH 24 0
BBX 24 24 0 -2
BITMAP
1C0E00
1C0E00
180C08
181FFC
181C1C
181C18
5C3438
5E6230
DB4360
D901C0
D801C0
9803F0
18067C
180C1F
183307
18E1C2
180060
180020
180000
180600
180180
1800E0
180070
180030
ENDCHAR
STARTCHAR C264e
ENCODING 9806
SWIDTH 400 0
DWIDTH 24 0
BBX 24 24 0 -2
BITMAP
1C1C0E
1C1C0E
18180C
18180C
18180C
18100C
5C33FF
5E300E
DB700C
D9700C
D8F30C
98B18C
1830CC
1830CC
18304C
18300C
18300C
18300C
18300C
18300C
18300C
1830FC
18303C
183018
ENDCHAR
STARTCHAR C264f
ENCODING 9807
SWIDTH 400 0
DWIDTH 24 0
BBX 24 24 0 -2
BITMAP
1C000C
1C007E
1C3FFE
1C3060
1C3060
1C3060
3E3060
7F3060
7FB066
DD3FFF
DC3060
9C3060
1C3060
1C3060
1C3060
1C3070
1C3030
1C3030
1C3319
1C3E19
1C380F
1C100F
1C0FF7
180000
ENDCHAR
STARTCHAR C2650
ENCODING 9808
SWIDTH 400 0
DWIDTH 24 0
BBX 24 24 0 -2
BITMAP
000000
00000C
7FFFFC
00C000
00C000
00C0E0
3FFFE0
00C060
018060
018060
018060
038066
FFFFFF
000000
003800
039C00
038C00
230610
23000C
630026
630067
C3FFC3
81FFE1
007FC0
ENDCHAR
STARTCHAR C2651
ENCODING 9809
SWIDTH 400 0
DWIDTH 24 0
BBX 24 24 0 -2
BITMAP
1C0200
1C0100
180380
180340
180660
180E30
5C0C18
5E180E
DB3007
D96003
D98008
983FFC
180180
180180
180180
180180
180180
180180
180180
180180
180180
180182
18FFFF
180000
ENDCHAR
STARTCHAR C2652
ENCODING 9810
SWIDTH 400 0
DWIDTH 24 0
BBX 24 24 0 -2
BITMAP
1C0008
1C001C
198FFC
18C18C
18C18C
18018C
FFE18C
1801BC
180FFC
18818C
18C18C
18C18C
1DC18C
1D81BC
1D8FFC
0F018C
0E018C
06038C
0E030C
1F230D
1BE20D
31C60F
60EC0F
C07806
ENDCHAR
STARTCHAR C2653
ENCODING 9811
SWIDTH 400 0
DWIDTH 24 0
BBX 24 24 0 -2
BITMAP
0001C8
0001CC
0001C6
0001C2
0001C2
FFFFFF
0001C0
0381C0
0381C4
06E1C7
0C39C6
181DCE
37ECCC
6000CC
8030D8
1FF878
003070
007070
0060F1
00C1F9
01839F
03060F
001807
00F003
ENDCHAR
STARTCHAR C2654
ENCODING 9812
SWIDTH 400 0
DWIDTH 24 0
BBX 24 24 0 -2
BITMAP
1C18E0
1C18E8
1C18C6
1E3CC6
3366C0
23C3C0
4183C2
FFFFFF
0000C0
0000C0
0000CE
0000CE
0000CC
0000CC
0000F8
000078
000070
000070
0000F1
0001F9
00039F
00060F
001807
00F003
ENDCHAR
STARTCHAR C2655
ENCODING 9813
SWIDTH 400 0
DWIDTH 24 0
BBX 24 24 0 -2
BITMAP
0003F8
20FFFC
3FE000
300006
3FFFFE
300006
300006
300006
3FFFFE
300006
300700
300600
300606
3FFFFF
300600
300600
218618
61860C
638606
630607
C60603
CC0603
880600
000600
ENDCHAR
STARTCHAR C2656
ENCODING 9814
SWIDTH 400 0
DWIDTH 24 0
BBX 24 24 0 -2
BITMAP
0003F8
20FFFC
3FE000
300006
3FFFFE
300006
300006
300006
3FFFFE
300020
300070
37FFF8
30C030
30C060
30C060
30FFFC
21980C
618C18
638630
6303C0
C603E0
CC0F7F
98181F
11E007
ENDCHAR
STARTCHAR C2657
ENCODING 9815
SWIDTH 400 0
DWIDTH 24 0
BBX 24 24 0 -2
BITMAP
038008
7380FC
633FFC
6301C0
6301C0
6301C0
6301C0
6301C6
7F3FFE
4301C0
0301C0
0301C0
7F01C2
637FFF
6301C0
6301C0
6301C0
6301C0
6301C0
6301C0
6301C0
C31FC0
C30780
830300
ENDCHAR
STARTCHAR C2658
ENCODING 9816
SWIDTH 400 0
DWIDTH 24 0
BBX 24 24 0 -2
BITMAP
1C0200
1C0300
1C2182
1C3FFF
1C6007
1CE006
FFC08C
1C0080
1C00C0
1C0E40
1C0E40
1F0E60
1C0E60
FC0C20
FC0C30
5C0C30
1C1818
1C1818
1C181C
1C300C
1C300E
FC6007
38C007
318000
ENDCHAR
STARTCHAR C2659
ENCODING 9817
SWIDTH 400 0
DWIDTH 24 0
BBX 24 24 0 -2
BITMAP
1C0000
1C0104
1C00C7
1C0066
1C006C
1D0F0C
FF0E1C
1C0E18
1C0E38
1C0E30
1C2E60
1F2E60
1C6EEC
FC6EC6
FC6FC3
5CEF83
1CCF01
1C0E01
1C0E04
1C1E0C
1C3708
FC67FC
38C1F8
338000
ENDCHAR
STARTCHAR C265a
ENCODING 9818
SWIDTH 400 0
DWIDTH 24 0
BBX 24 24 0 -2
BITMAP
060060
060060
060060
066060
FFE062
061FFF
060060
464060
FFE060
E6606C
E667FE
E6620E
E6620C
E6630C
E66118
E661B8
E660F0
E660E0
E660F0
E7E1F8
C6C39C
06070F
060E07
043803
ENDCHAR
STARTCHAR C265b
ENCODING 9819
SWIDTH 400 0
DWIDTH 24 0
BBX 24 24 0 -2
BITMAP
038070
F38070
E30060
E30060
E30062
E307FF
E30060
E30060
EB2060
FFF066
E307FE
E30106
E30106
E3010C
E3018C
E300D8
E30078
E30070
E71070
EF10F8
FB319C
F3F30F
61F607
001803
ENDCHAR
STARTCHAR C265c
ENCODING 9820
SWIDTH 400 0
DWIDTH 24 0
BBX 24 24 0 -2
BITMAP
0601C0
0601C0
060180
060180
060180
463302
FFFBFF
C6330C
C6630C
06070C
06050C
060198
0F8098
0F8098
0F80F8
0F8070
1F8060
1F8070
1B98F0
13F1D8
33E39C
31C70F
608E07
C03803
ENDCHAR
STARTCHAR C265d
ENCODING 9821
SWIDTH 400 0
DWIDTH 24 0
BBX 24 24 0 -2
BITMAP
0381C0
F381C0
E38180
E38180
E38180
E38302
E383FF
E3830C
EBB30C
FFFF0C
E3850C
E38198
E38098
E38098
E380F8
E38070
E38060
E38870
E788F0
EF99D8
FBFB9C
F1FF0F
600E07
003803
ENDCHAR
STARTCHAR C265e
ENCODING 9822
SWIDTH 400 0
DWIDTH 24 0
BBX 24 24 0 -2
BITMAP
0601C0
0601C0
0F0180
1D8180
18C180
306302
3033FF
60030C
C0430C
3FE70C
00050C
000198
004098
00E098
7FF0F8
006070
00C060
00C070
00C0F0
0181D8
01839C
03070F
030E07
063803
ENDCHAR
STARTCHAR C265f
ENCODING 9823
SWIDTH 400 0
DWIDTH 24 0
BBX 24 24 0 -2
BITMAP
1C00E0
1C00E0
1820C0
3FF0C0
3000C2
6000FF
C000C0
7FE0C0
0000C0
0000C6
00CFFE
7FE20E
01C20C
03830C
070118
0C01B8
3800F0
6000E0
C010F0
C031F8
C0239C
FFF70F
7FEE07
003803
ENDCHAR
STARTCHAR C2660
ENCODING 9824
SWIDTH 400 0
DWIDTH 24 0
BBX 24 24 0 -2
BITMAP
0600E0
0600E0
0600C0
0620C0
FFF0C2
0600FF
0640C0
E670C0
E660C0
E660C6
E66FFE
E6620E
E6620C
EE630C
FFE118
0641B8
0600F0
0600E0
0600F0
0641F8
07839C
07070F
060E07
023803
ENDCHAR
STARTCHAR C2661
ENCODING 9825
SWIDTH 400 0
DWIDTH 24 0
BBX 24 24 0 -2
BITMAP
000080
0000C0
460040
FF1860
E71820
E61830
E61830
E61818
E63018
E6321C
E6630C
FE630E
E64607
E6C607
E78E00
E60C00
E60800
E61830
FE1818
C6300C
0030FC
007F8C
007004
001004
ENDCHAR
STARTCHAR C2662
ENCODING 9826
SWIDTH 400 0
DWIDTH 24 0
BBX 24 24 0 -2
BITMAP
001800
081820
1C1838
1C1830
1C1830
1C1830
1FFFF0
001820
001802
FFFFFF
000000
000000
0C0060
0FFFF0
0C0070
0C0060
0C0060
0FFFE0
0C0060
0C0060
0C0060
0FFFE0
0C0060
0C0000
ENDCHAR
STARTCHAR C2663
ENCODING 9827
SWIDTH 400 0
DWIDTH 24 0
BBX 24 24 0 -2
BITMAP
070000
070000
060018
07FFFC
0C7318
086318
106318
20C618
018618
030C38
061830
0833F0
00C060
000000
0FFFF0
0C0030
0C0030
0C0030
0FFFF0
0C0030
0C0030
0FFFF0
0C0030
0C0020
ENDCHAR
STARTCHAR C2664
ENCODING 9828
SWIDTH 400 0
DWIDTH 24 0
BBX 24 24 0 -2
BITMAP
020004
67000E
7FBFFE
630300
630300
630300
630300
630300
7F0308
631FFC
63061C
63060C
63060C
63060C
7F060C
63060C
630E0C
630E0C
630E0C
630E0C
E30E0C
DF0E0C
8E7FFF
840000
ENDCHAR
STARTCHAR C2665
ENCODING 9829
SWIDTH 400 0
DWIDTH 24 0
BBX 24 24 0 -2
BITMAP
300E00
300E00
300E00
306E0C
3FEFFE
300E00
300E00
300E01
300E03
37EFFE
3E07FE
3003FC
301800
001800
001802
FFFFFF
003800
061800
0718E0
0E1838
18181C
30180E
C01806
001000
ENDCHAR
STARTCHAR C2666
ENCODING 9830
SWIDTH 400 0
DWIDTH 24 0
BBX 24 24 0 -2
BITMAP
1C0007
1C01C7
1C3FC6
1C01C6
1D01C6
FF81C6
1C01C6
1C3FC6
1C3186
3E3006
3F3006
3FF186
7D7FC6
7C01C6
5C01C6
DC01C6
9C01C6
1C01C6
1C01C6
1C01C6
1C0186
1C3F86
1C0F06
180606
ENDCHAR
STARTCHAR C2667
ENCODING 9831
SWIDTH 400 0
DWIDTH 24 0
BBX 24 24 0 -2
BITMAP
1C003C
1C13FE
1C1F98
1C1998
1D1998
FF9998
1C1998
1C1998
1C1998
3E1998
3F1998
3F9998
7D1998
7C1998
5C1998
DC318C
9C318C
1C318C
1C718C
1C618C
1C6186
1CC187
1C8183
190101
ENDCHAR
STARTCHAR C2668
ENCODING 9832
SWIDTH 400 0
DWIDTH 24 0
BBX 24 24 0 -2
BITMAP
018300
018300
018306
FF83FF
018300
018300
001800
001800
001800
001806
FFFFFF
003800
007C00
007E00
00FF00
01DB80
0399C0
0718F0
0E187F
1C181F
701806
C01800
001800
001000
ENDCHAR
STARTCHAR C2669
ENCODING 9833
SWIDTH 400 0
DWIDTH 24 0
BBX 24 24 0 -2
BITMAP
1C01C0
1C01C0
1C01C0
1C01C2
1D7FFF
FF81C0
1C01C0
1C31C4
1C3FFE
3E31C6
3F31C6
3FB1C6
7D31C6
7C31C6
5C31C6
DC31C6
9C31C6
1C31C6
1C31FE
1C31DC
1C31C8
1C01C0
1C01C0
180180
ENDCHAR
STARTCHAR C266a
ENCODING 9834
SWIDTH 400 0
DWIDTH 24 0
BBX 24 24 0 -2
BITMAP
1C3838
1C3838
183030
183030
183030
FF3030
183030
383030
383030
3C3030
3E3078
7E3878
7A7878
D87878
D86C68
986668
1846CC
18C6CC
18C384
188186
198306
1B0303
1A0603
1C0C01
ENDCHAR
STARTCHAR C266b
ENCODING 9835
SWIDTH 400 0
DWIDTH 24 0
BBX 24 24 0 -2
BITMAP
000E00
000E00
070C00
060C18
060FFC
060C00
060C00
060C00
060C06
FFFFFF
000000
001C00
001800
001806
FFFFFF
001800
001800
0718C0
0E1878
1C181C
38180E
E01806
001800
001000
ENDCHAR
STARTCHAR C266c
ENCODING 9836
SWIDTH 400 0
DWIDTH 24 0
BBX 24 24 0 -2
BITMAP
000380
00C380
7FC300
338300
338300
338306
3387FF
3386C6
3384CC
33ECC8
FFE8C0
3380C0
3380C0
3380E0
3381E0
3381A0
3381B0
3383B0
338318
33831C
63860E
638C0F
C39807
833000
ENDCHAR
STARTCHAR C266d
ENCODING 9837
SWIDTH 400 0
DWIDTH 24 0
BBX 24 24 0 -2
BITMAP
1C0380
1C0380
182300
3FF300
300300
600606
C007FF
7FE4C6
000CCC
0088C8
01D0C0
7FC0C0
01C0C0
0380E0
0601E0
0C01A0
1801B0
3003B0
602318
60231C
E0660E
7FEC0F
3FD807
003000
ENDCHAR
STARTCHAR C266e
ENCODING 9838
SWIDTH 400 0
DWIDTH 24 0
BBX 24 24 0 -2
BITMAP
380300
380300
300300
300300
300300
206606
7FF7FF
6664C6
46CCCC
C688C8
8610C0
0600C0
0600C0
0E00E0
0F01E0
0D01A0
1D81B0
18C3B0
18C318
30E61C
30660E
602C0F
C01807
807000
ENDCHAR
STARTCHAR C266f
ENCODING 9839
SWIDTH 400 0
DWIDTH 24 0
BBX 24 24 0 -2
BITMAP
1301C0
1D81C0
18C180
306180
303300
603B06
401BFF
C00266
3FC66C
180468
300060
304060
7FE060
2060E0
0060F0
0060F0
0061D0
006198
006188
00C30C
00C60E
3FCC07
079807
033000
ENDCHAR
STARTCHAR C2670
ENCODING 9840
SWIDTH 400 0
DWIDTH 24 0
BBX 24 24 0 -2
BITMAP
0601C0
0601C0
0F0180
198180
18C300
306306
3033FF
601266
58C66C
98C468
18C060
18C060
18C060
18C060
18C0F0
18C0F0
18C0D0
30C198
30C188
30C30C
20C30E
60C607
C0CC07
809800
ENDCHAR
STARTCHAR C2671
ENCODING 9841
SWIDTH 400 0
DWIDTH 24 0
BBX 24 24 0 -2
BITMAP
1C0380
1C0380
1C0300
1C2300
1FF306
1C03FF
1C4367
1CE264
FFF668
006C60
006060
006060
036060
1C60E0
F060F0
E060D0
406198
006198
00610C
00630C
00E20E
1FC407
078807
031003
ENDCHAR
STARTCHAR C2672
ENCODING 9842
SWIDTH 400 0
DWIDTH 24 0
BBX 24 24 0 -2
BITMAP
1C0070
1C0070
1C0060
1C0060
1C0060
1C0060
1C8060
1CE660
1CC760
FCC666
1CC67E
1CC660
1CC660
1CC660
1CC660
1CC660
1CC660
1CC660
1CC660
1CC660
1CF660
FF8662
E01FFF
200000
ENDCHAR
STARTCHAR C2673
ENCODING 9843
SWIDTH 400 0
DWIDTH 24 0
BBX 24 24 0 -2
BITMAP
000380
018380
FFC300
180300
180308
193FFC
3F830C
3B830C
33830C
33830C
63030C
73030C
DF7FFF
8E0700
060300
060620
0C0630
0C0E18
180C0C
101806
303007
606003
C0C003
818001
ENDCHAR
STARTCHAR C2674
ENCODING 9844
SWIDTH 400 0
DWIDTH 24 0
BBX 24 24 0 -2
BITMAP
0001C0
0181C0
FFC180
180180
180186
1901FF
3F8180
3B8180
338180
33818C
633FFE
73180C
DF080C
8E0818
060C18
060630
0C0360
0C03C0
1801C0
1003E0
300638
601C1F
C0700F
81C007
ENDCHAR
STARTCHAR C2675
ENCODING 9845
SWIDTH 400 0
DWIDTH 24 0
BBX 24 24 0 -2
BITMAP
0000E0
0180E0
FFC0C0
1800C0
1800C0
1900C0
3F98C0
3B98C0
3398C0
3398C6
6318FE
7318C0
DF18C0
8E18C0
0618C0
0618C0
0C18C0
0C30C0
1830C0
1038C0
306CC0
6047FF
C081FF
81007C
ENDCHAR
STARTCHAR C2676
ENCODING 9846
SWIDTH 400 0
DWIDTH 24 0
BBX 24 24 0 -2
BITMAP
00000E
01807E
FFDFE0
181800
181800
191800
3F9800
3B9802
339FFF
339838
631838
731838
DF1838
8E1838
061838
061838
0C1838
0C3038
183038
103038
306038
606038
C0C038
818030
ENDCHAR
STARTCHAR C2677
ENCODING 9847
SWIDTH 400 0
DWIDTH 24 0
BBX 24 24 0 -2
BITMAP
000000
01B002
FFF807
18303F
18303F
19303F
3FB437
3BB237
33B167
33B1E7
6330E7
7330E7
DF30E7
8E31B7
0631B7
06331F
0C321F
0C341F
183807
103007
303007
603FFF
C03007
800006
ENDCHAR
STARTCHAR C2678
ENCODING 9848
SWIDTH 400 0
DWIDTH 24 0
BBX 24 24 0 -2
BITMAP
060200
060338
0603FC
060318
060318
466318
7FF718
C6761F
C6660F
064C00
06180C
0607FE
0F020E
0F830C
0F8118
0F81B8
1F80F0
1B80F0
1B98F0
33F1F8
33E39C
71C70F
608E07
C03803
ENDCHAR
STARTCHAR C2679
ENCODING 9849
SWIDTH 400 0
DWIDTH 24 0
BBX 24 24 0 -2
BITMAP
060010
06007C
060FFC
0601C0
0641C0
FFE1C0
0601C8
060FFC
0601C0
06C1C0
7FE1C4
20FFFE
20C1C0
30C1C0
1181C0
1B81C3
0F01C2
0E01FE
0F00FE
0F8000
19E000
307FFF
601FFF
C00FFC
ENDCHAR
STARTCHAR C267a
ENCODING 9850
SWIDTH 400 0
DWIDTH 24 0
BBX 24 24 0 -2
BITMAP
038078
7381FC
639F80
638300
638300
638300
638300
7F838C
631FFC
600300
600300
610300
7F8300
638387
63BFFF
638300
638300
638300
E38301
E38301
C38303
C383FF
8381FF
8300FE
ENDCHAR
STARTCHAR C267b
ENCODING 9851
SWIDTH 400 0
DWIDTH 24 0
BBX 24 24 0 -2
BITMAP
20000C
30FFFE
18C00E
08C00C
00C00C
02FFFC
82C20C
E6C380
64C300
24C300
0CC738
0CDFF8
18C338
18C338
18C338
30C338
30C338
F0C638
30C638
30CC39
399C39
3B383F
3A701F
10C00E
ENDCHAR
STARTCHAR C267c
ENCODING 9852
SWIDTH 400 0
DWIDTH 24 0
BBX 24 24 0 -2
BITMAP
007000
187000
0C7000
0C7006
007FFE
017000
817000
E27000
727000
367FFE
063FFF
041FFF
0C01C0
0801C0
180180
180184
307FFE
F00180
300180
300180
380180
380180
380187
10FFFF
ENDCHAR
STARTCHAR C267d
ENCODING 9853
SWIDTH 400 0
DWIDTH 24 0
BBX 24 24 0 -2
BITMAP
0001C0
1801C0
0C0180
0C0180
000186
017FFE
810180
E20180
721D9C
36199C
061918
041818
0C1818
083819
18FFFF
181818
301818
F01818
303018
303018
383018
386018
38C018
118018
ENDCHAR
STARTCHAR C267e
ENCODING 9854
SWIDTH 400 0
DWIDTH 24 0
BBX 24 24 0 -2
BITMAP
2038E0
3038E0
1830C0
0830C0
0030C0
03FEC0
8230C0
E630C0
6470C0
2478C0
0C7CC0
0CFEC0
18F4C0
18B0C0
19B0C0
3130C0
3030C0
F030C0
3030C1
3030C1
3830C3
3830FF
38307F
10303E
ENDCHAR
STARTCHAR C2721
ENCODING 10017
SWIDTH 400 0
DWIDTH 24 0
BBX 24 24 0 -2
BITMAP
004000
186007
0C7FFF
0C6007
006007
016077
816FFF
E26437
726437
366237
066267
046367
0C61E7
0861C7
1861E7
18637F
30663F
F06C1F
307807
306007
386007
387FFF
386006
106000
ENDCHAR
STARTCHAR C2722
ENCODING 10018
SWIDTH 400 0
DWIDTH 24 0
BBX 24 24 0 -2
BITMAP
0001C0
1801C0
0C0180
0C0302
00FFFF
010300
810600
E20610
720C1C
36180E
06303E
047FE7
0C3E62
080E60
180E60
180E60
300C60
F00C60
301860
301861
383061
38607F
38C03F
11801E
ENDCHAR
STARTCHAR C2723
ENCODING 10019
SWIDTH 400 0
DWIDTH 24 0
BBX 24 24 0 -2
BITMAP
00003C
1800FE
0C1FC0
0C7180
000180
010180
810180
E30187
72FFFF
360380
0603C0
0407C0
0C07E0
080DE0
181DB0
1819B8
30319C
F0618E
30418F
308187
390180
380180
380180
100180
ENDCHAR
STARTCHAR C2724
ENCODING 10020
SWIDTH 400 0
DWIDTH 24 0
BBX 24 24 0 -2
BITMAP
004006
187FFE
0C6006
0C6006
006006
017FFE
816004
E26000
726418
3667FC
066618
046618
0C6618
086618
186618
186618
30C618
F0C618
30CE18
308C19
399C19
3B381F
3E700F
10C006
ENDCHAR
STARTCHAR C2725
ENCODING 10021
SWIDTH 400 0
DWIDTH 24 0
BBX 24 24 0 -2
BITMAP
0001C0
1801C0
0C0180
0C018C
007FFE
01718E
81718C
E2718C
72718C
367FFC
06718C
04718C
0C718C
08718C
18718C
19FFFF
30700C
F0700C
30700C
30700C
38700C
3870FC
38703C
106018
ENDCHAR
STARTCHAR C2726
ENCODING 10022
SWIDTH 400 0
DWIDTH 24 0
BBX 24 24 0 -2
BITMAP
001C00
181C00
0C1800
0C1800
001807
013FFF
8131C6
E261CC
72C1C0
3601C0
0601C0
041DD0
0C19C8
0819CC
1831C6
1831C7
3061C3
F0C1C3
3081C0
3001C0
3801C0
381FC0
380780
100300
ENDCHAR
STARTCHAR C2727
ENCODING 10023
SWIDTH 400 0
DWIDTH 24 0
BBX 24 24 0 -2
BITMAP
000600
1E0300
1C0100
1C0180
1C7187
1D7FFF
9FF1C7
DF71C7
7E71E7
7C71E7
3C7327
1C7337
1C7337
1C763F
18761F
187C1F
1C7807
367007
337007
23F007
61F007
C0707F
80701E
00600C
ENDCHAR
STARTCHAR C2728
ENCODING 10024
SWIDTH 400 0
DWIDTH 24 0
BBX 24 24 0 -2
BITMAP
000E00
1E0E00
1C0C00
1C0C00
1C1806
1D1FFF
9F9B37
DF1B37
7E1337
7C3337
3C2337
1C0367
1C0667
1C0667
180C67
180CC7
1C18C7
361187
332307
23C307
618606
C00CFE
80303C
000018
ENDCHAR
STARTCHAR C2729
ENCODING 10025
SWIDTH 400 0
DWIDTH 24 0
BBX 24 24 0 -2
BITMAP
0700E0
0700E0
0600C2
FFFFFF
0700C0
0600C0
0600C0
0600C0
07FFC0
0600C0
001000
001C00
001800
001830
181878
0E30E0
063880
026400
00C300
018180
0300E0
0E007F
18001F
E00007
ENDCHAR
STARTCHAR C272a
ENCODING 10026
SWIDTH 400 0
DWIDTH 24 0
BBX 24 24 0 -2
BITMAP
001800
001800
001838
019870
7FF8C0
01DF80
031B00
0619C0
0C18F0
18F87F
30700E
E06004
001800
001800
101838
0C3830
063860
026400
00C300
018180
0300E0
0E007F
18001F
E00007
ENDCHAR
STARTCHAR C272b
ENCODING 10027
SWIDTH 400 0
DWIDTH 24 0
BBX 24 24 0 -2
BITMAP
001800
001818
181838
0E3060
067CC0
02E380
01C0E0
038078
06001E
1C000F
300006
C71C00
061C00
0C1800
0C180C
1C1FFE
3C1C00
3C1800
5C1801
9C1803
1C1802
1C1FFE
1C0FFE
1807FC
ENDCHAR
STARTCHAR C272c
ENCODING 10028
SWIDTH 400 0
DWIDTH 24 0
BBX 24 24 0 -2
BITMAP
0001F8
003FFC
3FFC00
000000
002038
183830
0C1820
060840
000000
000030
3FFFF8
001800
001800
001800
001802
FFFFFF
003800
001800
001800
001800
001800
001818
3FFFFC
000000
ENDCHAR
STARTCHAR C272d
ENCODING 10029
SWIDTH 400 0
DWIDTH 24 0
BBX 24 24 0 -2
BITMAP
0381C0
7381C0
6301C0
6301C0
6301C0
6301C0
6301C2
630FC7
7F7FCC
430FF8
030FE0
030DE0
630DE0
7F0DD0
6319D0
6319D8
6319CC
6331CE
6331C7
6361C7
63C1C0
C38FC0
C30780
830300
ENDCHAR
STARTCHAR C272e
ENCODING 10030
SWIDTH 400 0
DWIDTH 24 0
BBX 24 24 0 -2
BITMAP
038000
738E38
638FF8
638E38
638E38
638E38
638C38
7F981F
63181F
603000
606008
615FFC
7F8C1C
638418
638638
638230
638360
6381E0
E381C0
E381E0
C3833C
C3861F
839807
837000
ENDCHAR
STARTCHAR C272f
ENCODING 10031
SWIDTH 400 0
DWIDTH 24 0
BBX 24 24 0 -2
BITMAP
060038
060038
360438
360638
360338
36C138
7FC038
660038
661838
C60C38
860638
060638
07C038
0E0038
FE003A
F63FFF
460038
060038
060038
060038
060038
060038
060038
040030
ENDCHAR
STARTCHAR C2730
ENCODING 10032
SWIDTH 400 0
DWIDTH 24 0
BBX 24 24 0 -2
BITMAP
0E01C0
0E01C0
7C0180
6C0180
6C0180
6D1186
7FBFFF
CC7186
CC618C
8C4188
8C0300
0C0380
0F83E0
3E03C0
FC06C0
6C06C0
0C06C0
0C0CC0
0C0CC0
0C18C1
0C30C1
0C60FF
0CC07F
0D803E
ENDCHAR
STARTCHAR C2731
ENCODING 10033
SWIDTH 400 0
DWIDTH 24 0
BBX 24 24 0 -2
BITMAP
060380
060380
360318
36030C
36030C
36C304
7FC302
663FFF
660300
C60300
86030E
06030E
07C30C
0E018C
FE0198
F601B0
4600F0
0600E0
0600E0
0601B1
060339
06061F
06180F
047007
ENDCHAR
STARTCHAR C2732
ENCODING 10034
SWIDTH 400 0
DWIDTH 24 0
BBX 24 24 0 -2
BITMAP
060040
060460
360E20
360E30
360C18
36CC18
7FD80C
66180E
663007
C62007
867FFE
06030C
07C30C
0E030C
FE030C
F6060C
46060C
060E0C
060C1C
061818
061818
0633F0
0661E0
05C040
ENDCHAR
STARTCHAR C2733
ENCODING 10035
SWIDTH 400 0
DWIDTH 24 0
BBX 24 24 0 -2
BITMAP
0E01C0
0E01C0
7C01C0
6C01C2
6C7FFF
6D01C0
7F81C0
CC31C4
CC3FFE
8C31C6
8C31C6
0C31C6
0FB1C6
3E31C6
FC31C6
6C31C6
0C31C6
0C31C6
0C31FE
0C31DC
0C31C8
0C01C0
0C01C0
0C0180
ENDCHAR
STARTCHAR C2734
ENCODING 10036
SWIDTH 400 0
DWIDTH 24 0
BBX 24 24 0 -2
BITMAP
060060
060060
06C066
066067
066062
060060
066062
FFE7FF
060060
060060
060060
060060
0D00E0
0D80E0
0CC1F0
1CC1B0
18C198
186318
106708
30060C
200C0E
401807
803007
00E003
ENDCHAR
STARTCHAR C2735
ENCODING 10037
SWIDTH 400 0
DWIDTH 24 0
BBX 24 24 0 -2
BITMAP
00003E
4733FE
663EC0
3C30C0
1830C0
3C30C0
6C30C0
C630C0
8630C2
063FFF
0630C0
0F30E0
1B3060
133060
233060
433060
833030
033030
033019
073619
063C0F
7E383F
3C07F7
180000
ENDCHAR
STARTCHAR C2736
ENCODING 10038
SWIDTH 400 0
DWIDTH 24 0
BBX 24 24 0 -2
BITMAP
000070
8E1070
5C1C60
383860
303060
786062
D861FF
0CC477
0C8E67
0D8C67
1CCC67
1E7867
363867
263067
467867
866C67
06C6C7
07FEC7
07E3C7
0EC187
0C0386
FC077E
380E3C
301818
ENDCHAR
STARTCHAR C2737
ENCODING 10039
SWIDTH 400 0
DWIDTH 24 0
BBX 24 24 0 -2
BITMAP
0E00E0
0E00E0
0C00C6
0C80C7
FFC0C2
0C00C0
0C00C2
0C9FFF
FFC0C0
ECC0C0
ECC0C0
ECC1E0
ECC1E0
ECC1A0
ECC1A0
ECC330
ECC330
ECC318
ECC618
EFCE0C
CD8C0E
0C180F
0C3007
0CE003
ENDCHAR
STARTCHAR C2738
ENCODING 10040
SWIDTH 400 0
DWIDTH 24 0
BBX 24 24 0 -2
BITMAP
0001C0
4701C8
6601C6
3C01C6
1801C0
3C01C2
6C7FFF
C601C0
8601C0
0619CC
0619CC
0F19CC
1B19CC
1319CC
2319CC
4319CC
8319CC
0319CC
0331CC
0731CF
0661C7
7E41C0
3C81C0
180180
ENDCHAR
STARTCHAR C2739
ENCODING 10041
SWIDTH 400 0
DWIDTH 24 0
BBX 24 24 0 -2
BITMAP
007000
8E7000
5C7000
387000
307000
787766
D9FF7F
0C7367
0C7367
0C7367
1C7367
1E7367
367367
267367
467367
866367
066367
066367
06C367
0EC367
0C8667
FDFE7F
3B1C62
361800
ENDCHAR
STARTCHAR C273a
ENCODING 10042
SWIDTH 400 0
DWIDTH 24 0
BBX 24 24 0 -2
BITMAP
0001C0
4701C0
6601C0
3C01C0
1801C0
3C19CC
6C1FFE
C619CC
8619CC
0619CC
0619CC
0F19CC
1B19CC
1319CC
237FFF
430180
830300
030310
030718
070E0C
061C06
7E3807
3C7003
19C003
ENDCHAR
STARTCHAR C273b
ENCODING 10043
SWIDTH 400 0
DWIDTH 24 0
BBX 24 24 0 -2
BITMAP
0001C0
0001C0
01019C
FF818C
1C0184
1C0180
1C0186
1CFFFF
1C0180
1C0180
7F0180
1C03C0
1C03C0
1C0340
1C0340
1C0660
1C0660
1F8C30
FE1838
F0181C
60301E
00600F
00C007
070000
ENDCHAR
STARTCHAR C273c
ENCODING 10044
SWIDTH 400 0
DWIDTH 24 0
BBX 24 24 0 -2
BITMAP
000700
000700
010606
FF87FF
1C0C07
1C0C07
1C0806
1C180E
1C30FC
1C6018
7F0000
1C3FFE
1C0C0E
1C040C
1C060C
1C0218
1C0130
1F81F0
FE00E0
F001E0
600338
000C1F
00180F
00E007
ENDCHAR
STARTCHAR C273d
ENCODING 10045
SWIDTH 400 0
DWIDTH 24 0
BBX 24 24 0 -2
BITMAP
007180
0070C0
006060
006066
FFFFFF
003000
001800
000C00
000703
0003E2
00007E
00003E
000004
00000E
7FFFFE
060040
07FFE0
0660C0
0E30C1
0C18C1
0C38C3
3FE0FF
7E007F
30003E
ENDCHAR
STARTCHAR C273e
ENCODING 10046
SWIDTH 400 0
DWIDTH 24 0
BBX 24 24 0 -2
BITMAP
30C000
30C006
30CFFE
30C060
30C060
30C060
FFE060
71C060
30C060
30C062
30DFFF
30C060
30C060
31C060
3FC060
30C060
30C060
30C060
30C060
30C060
30C060
3FC060
31C060
208040
ENDCHAR
STARTCHAR C273f
ENCODING 10047
SWIDTH 400 0
DWIDTH 24 0
BBX 24 24 0 -2
BITMAP
000000
000006
411FFE
FF80C0
EDC0C0
ED80C0
ED80C0
ED80C0
ED80C0
ED80C2
EDBFFF
FF80C0
ED80C0
ED80C0
ED80C0
ED80C0
ED80C0
ED80C0
FF80C0
C180C0
0000C0
0000C0
0000C0
0000C0
ENDCHAR
STARTCHAR C2740
ENCODING 10048
SWIDTH 400 0
DWIDTH 24 0
BBX 24 24 0 -2
BITMAP
060380
060380
060300
060300
064306
FFE7FF
E66607
E66407
E66C07
E66807
FFF307
E66187
E660C7
E66067
E66007
FFE007
C64007
060007
060006
060006
06000E
0601FC
060078
040030
ENDCHAR
STARTCHAR C2741
ENCODING 10049
SWIDTH 400 0
DWIDTH 24 0
BBX 24 24 0 -2
BITMAP
001800
001800
101810
1FFFF8
183838
181838
181838
1FFFF8
181838
181838
183838
1FFFF0
1381C0
0381C0
038180
038186
FFFFFF
030180
030180
060180
0C0180
180180
300180
E00180
ENDCHAR
STARTCHAR C2742
ENCODING 10050
SWIDTH 400 0
DWIDTH 24 0
BBX 24 24 0 -2
BITMAP
000E67
000E67
000E66
830CE6
FF0CCC
931CCC
93198C
931998
933318
932330
DB6660
FFCE60
936660
932330
933110
931998
93188C
FF0CCC
830CCE
800E66
000667
000777
000333
000233
ENDCHAR
STARTCHAR C2743
ENCODING 10051
SWIDTH 400 0
DWIDTH 24 0
BBX 24 24 0 -2
BITMAP
001800
000C00
180606
1FFFFF
180000
980000
D80006
7FFFFF
780600
180600
180600
180600
3807C0
780660
D80638
58061C
30060C
300600
300600
300600
600600
600600
C00600
800600
ENDCHAR
STARTCHAR C2744
ENCODING 10052
SWIDTH 400 0
DWIDTH 24 0
BBX 24 24 0 -2
BITMAP
001800
000C00
180606
1FFFFF
180000
980030
D807F8
787F00
79D800
181800
181800
181800
381806
7FFFFE
D81800
581800
301800
301800
301801
301803
601802
601FFE
C00FFE
8007FC
ENDCHAR
STARTCHAR C2745
ENCODING 10053
SWIDTH 400 0
DWIDTH 24 0
BBX 24 24 0 -2
BITMAP
001800
000C00
180606
1FFFFF
181000
981C00
D81800
781800
781820
1BFFF0
183830
181830
381830
781830
D83C30
583230
303330
306130
306030
30C031
618031
63003F
C6003F
9C000E
ENDCHAR
STARTCHAR C2746
ENCODING 10054
SWIDTH 400 0
DWIDTH 24 0
BBX 24 24 0 -2
BITMAP
060300
060300
060300
060300
6EC300
7FE310
66DFF8
668738
660338
660338
6ECF38
7FC738
60C3B8
60C7F8
7986F8
6F8678
670638
E78E38
CFCC38
9CD839
B85839
70303F
00701F
00C006
ENDCHAR
STARTCHAR C2747
ENCODING 10055
SWIDTH 400 0
DWIDTH 24 0
BBX 24 24 0 -2
BITMAP
003000
001800
001802
FFFFFF
0C0000
0C0000
0C0000
0C0000
0C0000
0C0000
0E0000
0FFFF8
07FFF8
000000
080020
1FFFF0
1CE630
1CC630
1CC630
1CC630
1CC630
1CC632
FFFFFF
000000
ENDCHAR
STARTCHAR C2748
ENCODING 10056
SWIDTH 400 0
DWIDTH 24 0
BBX 24 24 0 -2
BITMAP
000020
000070
1FFFF0
001800
001800
001800
00180C
7FFFFE
001800
001800
001800
001800
001800
001800
001000
180030
1FFFF0
1CC630
1CC630
1CC630
1CC630
1CC630
1CE637
FFFFFF
ENDCHAR
STARTCHAR C2749
ENCODING 10057
SWIDTH 400 0
DWIDTH 24 0
BBX 24 24 0 -2
BITMAP
000000
000030
3FFFF8
001800
001800
001800
001800
001800
001800
001800
00380C
3FFFFC
000000
000000
080020
1FFFF0
1CE630
1CC630
1CC630
1CC630
1CC630
1CC630
1CE637
FFFFFF
ENDCHAR
STARTCHAR C274a
ENCODING 10058
SWIDTH 400 0
DWIDTH 24 0
BBX 24 24 0 -2
BITMAP
000000
020007
FF1FFF
E30187
E30187
E30187
E30187
E33187
FF1987
E31D87
E30D87
E30F87
E30707
FF0307
E30307
E30307
E30607
E30607
E30C07
FF1806
E3180E
4031FC
006078
01C030
ENDCHAR
STARTCHAR C274b
ENCODING 10059
SWIDTH 400 0
DWIDTH 24 0
BBX 24 24 0 -2
BITMAP
000000
021838
FF1FFC
E31818
E31818
E31818
E31818
E31818
FF1918
E31998
E318D8
E318D8
E31858
FF1818
E31818
E31818
E31818
E31818
E31818
FF3019
E33019
40601F
00C00F
038006
ENDCHAR
STARTCHAR C274c
ENCODING 10060
SWIDTH 400 0
DWIDTH 24 0
BBX 24 24 0 -2
BITMAP
000E00
020E00
FF0E00
E30E00
E30E00
E30E10
E37FF8
E30E1C
FF0E18
E30E18
E30E18
E30E18
E30F18
FF0D98
E30D98
E30DD8
E31898
E31818
E33818
FF3019
E36019
40C01F
01800F
070006
ENDCHAR
STARTCHAR C274d
ENCODING 10061
SWIDTH 400 0
DWIDTH 24 0
BBX 24 24 0 -2
BITMAP
00003C
0201FE
FF1FC0
E331C0
E301C0
E301C0
E301C0
E301C0
FF01C2
E37FFF
E301C0
E301C0
E301C0
FF01C0
E301C0
E301C0
E301C0
E301C0
E301C0
FF01C0
E301C0
4001C0
0001C0
000180
ENDCHAR
STARTCHAR C274e
ENCODING 10062
SWIDTH 400 0
DWIDTH 24 0
BBX 24 24 0 -2
BITMAP
000000
00C01C
7FE018
60E030
60C060
60C0C0
60C380
60CE00
7FC80E
60C00E
60C01C
60C038
60C070
7FC0C0
60C380
60CE00
60C007
60C00E
60C01C
7FC038
60C070
4001C0
000300
001C00
ENDCHAR
STARTCHAR C274f
ENCODING 10063
SWIDTH 400 0
DWIDTH 24 0
BBX 24 24 0 -2
BITMAP
000000
02000C
FF3FFE
E3000C
E3120C
E3118C
E319CC
E308D8
FF0818
E30C38
E30C30
E30430
E30660
FF0260
E303C0
E301C0
E303C0
E303E0
E30670
FF0C38
E3181E
40300F
006007
038000
ENDCHAR
STARTCHAR C2750
ENCODING 10064
SWIDTH 400 0
DWIDTH 24 0
BBX 24 24 0 -2
BITMAP
000020
080070
1FFFF8
1C0030
1C0030
1FFFF0
1C0030
1C0030
1FFFF0
1C0030
1C0030
1FFFF0
0B81C0
0381C0
038182
FFFFFF
038180
030180
030180
060180
0C0180
180180
300180
E00180
ENDCHAR
STARTCHAR C2751
ENCODING 10065
SWIDTH 400 0
DWIDTH 24 0
BBX 24 24 0 -2
BITMAP
000300
038300
FFC300
030700
620606
3407FF
1C0C07
1C8C07
FFD807
0CD807
1D9207
1C0187
3C00C7
3C00C7
6C0047
4C0007
CC0007
8C0007
0C0006
0C0006
0C000E
FC01FC
3C0078
180030
ENDCHAR
STARTCHAR C2752
ENCODING 10066
SWIDTH 400 0
DWIDTH 24 0
BBX 24 24 0 -2
BITMAP
001C00
061C00
FF1800
061806
061FFE
0619C0
0631C0
7E31C0
6061C0
60C1C0
6001C2
E67FFF
FF01C0
060180
060180
0601A0
060330
060318
06060C
060C0E
061C06
FE3807
3C7003
18C003
ENDCHAR
STARTCHAR C2753
ENCODING 10067
SWIDTH 400 0
DWIDTH 24 0
BBX 24 24 0 -2
BITMAP
000000
01800C
FFDFFE
18000C
180B0C
30098C
3009CC
3008D8
310C18
7F8438
738630
738630
F38260
F38360
3383C0
3381C0
3381C0
3383E0
3F8770
330E38
301C1E
20380F
007007
01C000
ENDCHAR
STARTCHAR C2754
ENCODING 10068
SWIDTH 400 0
DWIDTH 24 0
BBX 24 24 0 -2
BITMAP
000200
018300
FFC180
1801C0
180082
307FFF
301800
301800
311800
7F9800
739800
739800
F39800
F39800
339800
339800
339800
339800
3F9800
331800
301FFE
200FFF
000000
000000
ENDCHAR
STARTCHAR C2755
ENCODING 10069
SWIDTH 400 0
DWIDTH 24 0
BBX 24 24 0 -2
BITMAP
030004
0F800E
3C1FFF
4C001C
0C0038
0C0060
7F80C0
0C00C0
0C00C0
1C00C0
1E00C7
1F00FC
3DBFC0
3CBCC0
2C30C0
6C00C0
4C00C0
CC00C0
8C00C0
0C00C0
0C00C0
0C0FC0
0C03C0
0C0180
ENDCHAR
STARTCHAR C2756
ENCODING 10070
SWIDTH 400 0
DWIDTH 24 0
BBX 24 24 0 -2
BITMAP
030E00
0F8E00
3C0E00
4C0C00
0C0C06
0C1FFF
7F9807
0C1807
0C3007
1C2007
1E0607
1F0307
3D8187
3C80C7
2C00C7
6C0007
4C0007
CC0007
8C0006
0C0006
0C000E
0C01FC
0C0078
0C0030
ENDCHAR
STARTCHAR C2757
ENCODING 10071
SWIDTH 400 0
DWIDTH 24 0
BBX 24 24 0 -2
BITMAP
030700
0F8700
3C0600
4C0600
0C0E07
0C0FFF
7F8800
0C1000
0C2010
1C0FF8
1E001C
1F0030
3D8060
3C80C0
2C0180
6C0300
4C0600
CC0C00
8C1801
0C1801
0C1803
0C1FFF
0C0FFF
0C07FE
ENDCHAR
STARTCHAR C2758
ENCODING 10072
SWIDTH 400 0
DWIDTH 24 0
BBX 24 24 0 -2
BITMAP
003000
201800
200806
7FFFFF
E18306
C3830C
830388
0603FC
1C01FE
703000
001800
001802
FFFFFF
0C0000
0C0000
0C0000
0C0000
0C0000
0C0000
0C0000
0C0000
0FFFF8
07FFFC
03FFFC
ENDCHAR
STARTCHAR C2759
ENCODING 10073
SWIDTH 400 0
DWIDTH 24 0
BBX 24 24 0 -2
BITMAP
003000
201800
200806
7FFFFF
E18306
C3830C
830388
0603FC
1C11FE
701C00
001800
001800
001800
001818
3FFFFC
001800
001800
001800
001800
001800
001800
001806
FFFFFF
000000
ENDCHAR
STARTCHAR C275a
ENCODING 10074
SWIDTH 400 0
DWIDTH 24 0
BBX 24 24 0 -2
BITMAP
003000
201800
200806
7FFFFF
E18306
C3830C
830388
0603FC
1D01FE
71C000
018080
0181C0
0381C6
FFFFFF
0701C0
060180
060300
0C0600
0FFC00
003F00
0073E0
01C078
06003C
78000C
ENDCHAR
STARTCHAR C275b
ENCODING 10075
SWIDTH 400 0
DWIDTH 24 0
BBX 24 24 0 -2
BITMAP
003000
001800
00180C
7FFFFE
0000E0
0200C0
010180
018100
00C300
00C606
FFFFFF
020080
0381E0
0301C0
0301C2
FFFFFF
0301C0
0301C0
0601C0
0601C0
0C01C0
1801C0
3001C0
600180
ENDCHAR
STARTCHAR C275c
ENCODING 10076
SWIDTH 400 0
DWIDTH 24 0
BBX 24 24 0 -2
BITMAP
000E00
0E0E00
0C0E00
1C0E00
180E00
310E20
33BFF0
630E30
F70E30
7E0E30
0C0E30
190E30
118C30
21CC30
7FCC30
78CC30
209830
089831
4CD831
4CD831
C43033
C4603F
80403F
00800E
ENDCHAR
STARTCHAR C275d
ENCODING 10077
SWIDTH 400 0
DWIDTH 24 0
BBX 24 24 0 -2
BITMAP
200008
30001C
3FFFFC
30C30C
30C30C
3FFFFC
200008
1E0000
1C0008
1FFFFC
18001C
30000C
30800C
60C00C
C0700C
00380C
00180C
00000C
00000C
00001C
000018
001FF0
0003E0
0000C0
ENDCHAR
STARTCHAR C275e
ENCODING 10078
SWIDTH 400 0
DWIDTH 24 0
BBX 24 24 0 -2
BITMAP
200008
30001C
3FFFFC
30C30C
30C30C
30C30C
3FFFFC
200008
003000
001800
001806
FFFFFF
0C0000
0C0000
0C0000
0C0000
0C0000
0C0000
0C0000
0C0000
0E0000
0FFFFC
07FFFC
000000
ENDCHAR
STARTCHAR C275f
ENCODING 10079
SWIDTH 400 0
DWIDTH 24 0
BBX 24 24 0 -2
BITMAP
003800
003800
00308E
1FFFDC
003030
003060
0030C0
003387
FFFFFF
001C00
003000
00E000
03C00C
07FFFE
3999CE
C119CC
02198C
04318C
00330C
00630C
00C60C
038FFC
001878
002030
ENDCHAR
STARTCHAR C2760
ENCODING 10080
SWIDTH 400 0
DWIDTH 24 0
BBX 24 24 0 -2
BITMAP
003800
003800
00309C
1FFFF8
003060
0030C0
003180
003387
FFFFFF
001800
007070
01DFF8
07FE00
1C0600
F0060C
00FFFC
000600
000602
01FFFE
000600
000603
0007FE
0003FE
0001FC
ENDCHAR
STARTCHAR C2761
ENCODING 10081
SWIDTH 400 0
DWIDTH 24 0
BBX 24 24 0 -2
BITMAP
0C0000
0C0002
0F9FFF
7FC060
0C0060
0C0060
0C8060
7FC060
0C0060
0C0060
0CC060
FFC060
0C0060
1E0060
1D0060
3D8060
3CC060
6CC060
4C0060
8C0060
0C0060
0C0FE0
0C03C0
0C0180
ENDCHAR
STARTCHAR C2762
ENCODING 10082
SWIDTH 400 0
DWIDTH 24 0
BBX 24 24 0 -2
BITMAP
020007
6701C7
7F9FC6
6301C6
6301C6
6301C6
7311C6
7F1FC6
6F1986
633806
633006
633186
633FC6
6F01C6
7B01C6
7301C6
6301C6
6301C6
6301C6
6301C6
E30186
DF3F86
8E0F06
840606
ENDCHAR
STARTCHAR C2763
ENCODING 10083
SWIDTH 400 0
DWIDTH 24 0
BBX 24 24 0 -2
BITMAP
020000
670007
7FFFFF
633338
633338
633338
733338
7F3338
6F3338
633338
633338
633338
633338
6F3338
7B363E
73341F
633800
633000
633000
633000
E33800
DF3FFF
8E1FFF
840000
ENDCHAR
STARTCHAR C2764
ENCODING 10084
SWIDTH 400 0
DWIDTH 24 0
BBX 24 24 0 -2
BITMAP
020E00
670E00
7F8C00
630C00
630C06
631FFF
7319C7
7F19C4
6F31C8
6321C0
6301C0
6301C0
6301C0
6F01E0
7B0320
730320
630330
630630
630C18
630C0C
E3180E
DF3007
8E6007
85C000
ENDCHAR
STARTCHAR C2765
ENCODING 10085
SWIDTH 400 0
DWIDTH 24 0
BBX 24 24 0 -2
BITMAP
0201C0
6701C0
7F8180
630180
630180
631186
733FFF
7F7186
6F618C
634188
630300
630380
6303E0
6F03C0
7B06C0
7306C0
6306C0
630CC0
630CC0
6318C1
E330C1
DF60FF
8EC07F
87803E
ENDCHAR
STARTCHAR C2766
ENCODING 10086
SWIDTH 400 0
DWIDTH 24 0
BBX 24 24 0 -2
BITMAP
020008
67001C
7F9FFC
63060C
63060C
63060C
73060C
7F060C
6F060C
63060C
63060C
637FFF
630E18
6F0E18
7B0E18
730E18
630E18
630E18
630E18
630E18
E30E18
DF0E18
8E7FFF
840000
ENDCHAR
STARTCHAR C2767
ENCODING 10087
SWIDTH 400 0
DWIDTH 24 0
BBX 24 24 0 -2
BITMAP
020E00
670E00
7F8E02
630FFF
631800
631800
733004
7F6FFE
6F4000
630000
63000C
631FFE
63003C
6F0060
7B00C0
730180
630700
630C00
631801
633001
E33003
DF3FFF
8E1FFF
840FFE
ENDCHAR
STARTCHAR C2768
ENCODING 10088
SWIDTH 400 0
DWIDTH 24 0
BBX 24 24 0 -2
BITMAP
020000
670008
7F9FFC
6301C0
6301C0
6301C0
7301C0
7F01C0
6F01C0
6301C0
6301C2
637FFF
6301C0
6F01C0
7B01C0
7301C0
6301C0
6301C0
6301C0
6301C0
E301C4
DF1FFE
8E0000
840000
ENDCHAR
STARTCHAR C2769
ENCODING 10089
SWIDTH 400 0
DWIDTH 24 0
BBX 24 24 0 -2
BITMAP
020040
670E20
7F8E30
630C18
630C0C
63180E
731807
7F3007
6F6FF8
63C600
630600
630C08
630FFC
6F081C
7B000C
73000C
63000C
630018
630018
630018
E30030
DF0FF0
8E01E0
8400C0
ENDCHAR
STARTCHAR C276a
ENCODING 10090
SWIDTH 400 0
DWIDTH 24 0
BBX 24 24 0 -2
BITMAP
001800
001800
001818
001FFC
001800
201806
7FFFFF
E00006
C0000C
8400C8
07FFE0
060060
064060
067060
061C60
060460
060060
061F60
0DF860
0CC060
0C0060
180FE0
3003C0
600180
ENDCHAR
STARTCHAR C276b
ENCODING 10091
SWIDTH 400 0
DWIDTH 24 0
BBX 24 24 0 -2
BITMAP
1C0600
1C0E00
181838
1860F0
1871C0
181F00
180E10
181808
1870FC
18FFC6
18E006
184010
187FF8
18701C
187618
187398
187198
187018
3061F8
307F18
30CE18
61C5F8
638078
C60030
ENDCHAR
STARTCHAR C276c
ENCODING 10092
SWIDTH 400 0
DWIDTH 24 0
BBX 24 24 0 -2
BITMAP
000000
40C00C
FFCFFE
E6040C
E6040C
E6060C
E6060C
EEC218
FFE218
E0C238
E0C330
E0C130
E0C1E0
E0C1E0
FFC0C0
E6C1C0
E601E0
E603B0
E60330
E60618
E64C1C
FFF80F
003006
00E000
ENDCHAR
STARTCHAR C276d
ENCODING 10093
SWIDTH 400 0
DWIDTH 24 0
BBX 24 24 0 -2
BITMAP
01C000
01C060
01FFF0
038070
030060
060060
0C00E0
181FC0
700380
004100
00E000
37E01C
3E07FC
30000C
30000C
30000C
38401C
3FC3FC
30000C
30000C
30000C
30000C
3FFFFC
300008
ENDCHAR
STARTCHAR C276e
ENCODING 10094
SWIDTH 400 0
DWIDTH 24 0
BBX 24 24 0 -2
BITMAP
000007
00C207
7FC386
060306
060306
060306
060306
064306
FFE306
060306
060306
060306
060306
064306
FFE306
E067FE
E06006
E06006
E06006
E06006
E06006
FFE006
E06006
C04006
ENDCHAR
STARTCHAR C276f
ENCODING 10095
SWIDTH 400 0
DWIDTH 24 0
BBX 24 24 0 -2
BITMAP
0C0000
0C0007
190FFF
7F800E
61C018
618030
698060
6D8060
658060
618060
67C060
FD8060
E18060
618060
698060
6D8060
658060
618060
618060
E18060
C18060
DF8FE0
8783C0
830180
ENDCHAR
STARTCHAR C2770
ENCODING 10096
SWIDTH 400 0
DWIDTH 24 0
BBX 24 24 0 -2
BITMAP
06000E
06000E
04400C
3FE38C
30638C
30630C
34630C
36630C
32630C
30630C
307B0C
FFE30C
F0630C
70630C
36630C
36630C
32630C
60630C
60600C
60600C
60600C
C7E0FC
C3C03C
808018
ENDCHAR
STARTCHAR C2771
ENCODING 10097
SWIDTH 400 0
DWIDTH 24 0
BBX 24 24 0 -2
BITMAP
0C01C0
0C01C0
1901C0
7F81C0
61C1C0
6181C0
6981C0
6D81C0
6581C0
6181C0
67C1C0
FD81C0
E181E0
618320
698320
6D8330
658330
618618
618E18
E18C0C
C19C0E
DFB80F
87F007
83C003
ENDCHAR
STARTCHAR C2772
ENCODING 10098
SWIDTH 400 0
DWIDTH 24 0
BBX 24 24 0 -2
BITMAP
0700E0
0700E0
0660C2
FFE7FF
0600C0
0610C0
001C00
001800
201804
3FFFFE
20380E
60180C
C03808
003F00
003E00
006E00
006E00
00CE00
018E01
030E01
060E03
1C0FFF
3007FF
E003FE
ENDCHAR
STARTCHAR C2773
ENCODING 10099
SWIDTH 400 0
DWIDTH 24 0
BBX 24 24 0 -2
BITMAP
0600C0
0640C2
FFE7FF
0600C0
0600C0
002010
3FF03C
007038
007038
007038
007038
7FF038
602038
600038
E03038
FFF838
003038
003038
003038
003038
007038
3FE038
07C038
018030
ENDCHAR
STARTCHAR C2774
ENCODING 10100
SWIDTH 400 0
DWIDTH 24 0
BBX 24 24 0 -2
BITMAP
0700E0
0700E0
0660C2
FFE7FF
0600C0
0600C0
000018
3FFFFC
001800
001800
001800
001800
001806
FFFFFF
003C00
006400
00C200
00C300
018180
0300C0
060070
1C003F
30001F
E00007
ENDCHAR
STARTCHAR C2775
ENCODING 10101
SWIDTH 400 0
DWIDTH 24 0
BBX 24 24 0 -2
BITMAP
0700E0
0700E0
0660C2
FFE7FF
0600C0
0600C0
00000C
7FFFFE
038000
038000
030060
03FFF0
030070
060060
060060
060060
060060
0FFFC0
0400C0
0000C0
0000C0
0001C6
FFFFFF
000000
ENDCHAR
STARTCHAR C2776
ENCODING 10102
SWIDTH 400 0
DWIDTH 24 0
BBX 24 24 0 -2
BITMAP
0700E0
0700E0
0660C2
FFE7FF
0600C0
00000C
3FFFFE
30000E
30008C
33FFCC
3181CC
30818C
30C30C
30630C
30360C
301C0C
301E0C
30378C
30E3EC
3180EC
3E000C
3000FC
30003C
200018
ENDCHAR
STARTCHAR C2777
ENCODING 10103
SWIDTH 400 0
DWIDTH 24 0
BBX 24 24 0 -2
BITMAP
0700E0
0700E0
0660C2
FFE7FF
0600C0
061CC0
001800
001800
301818
3FFFFC
301818
301818
301818
301818
301818
3FFFF8
301818
001800
001800
001800
001800
001800
001800
001000
ENDCHAR
STARTCHAR C2778
ENCODING 10104
SWIDTH 400 0
DWIDTH 24 0
BBX 24 24 0 -2
BITMAP
0600C0
0640C2
FFE7FF
0600C0
0600C0
020300
038380
030300
070300
060300
0603C0
0E0370
1E0318
1E030C
260306
460302
060300
060300
060300
060300
060300
060300
060300
040300
ENDCHAR
STARTCHAR C2779
ENCODING 10105
SWIDTH 400 0
DWIDTH 24 0
BBX 24 24 0 -2
BITMAP
0600C0
0640C2
FFE7FF
0600C0
0600C0
040800
070E00
060C00
0E0C00
0C0C30
0DFFF8
1C0C38
3C0C38
3C0C38
5C0C38
9C0C38
1C1838
1C1838
1C1838
1C3039
1C3039
1C603F
1CC01F
1B800E
ENDCHAR
STARTCHAR C277a
ENCODING 10106
SWIDTH 400 0
DWIDTH 24 0
BBX 24 24 0 -2
BITMAP
0600C0
0640C2
FFE7FF
0600C0
0600C0
040020
077FF0
060C30
0E0C30
0C0C30
0C0C66
1C0C7F
3C0C67
3C0C07
5C1807
9C1807
1C1807
1C1807
1C3007
1C3007
1C6006
1CC1FE
1D803C
1F0018
ENDCHAR
STARTCHAR C277b
ENCODING 10107
SWIDTH 400 0
DWIDTH 24 0
BBX 24 24 0 -2
BITMAP
0600C0
0640C2
FFE7FF
0600C0
0600C0
30000E
3FFFFE
300000
300020
33FFF0
338030
338030
338030
338030
338030
338030
3387F0
3380E0
338042
338002
238006
63FFFE
C1FFFE
80FFFC
ENDCHAR
STARTCHAR C277c
ENCODING 10108
SWIDTH 400 0
DWIDTH 24 0
BBX 24 24 0 -2
BITMAP
0600C0
0640C2
FFE7FF
0600C0
0600C0
000038
107FFC
1FF830
181830
181830
181830
181830
181830
181830
181830
181830
181830
181838
301818
301818
30180C
20180F
601807
C01003
ENDCHAR
STARTCHAR C277d
ENCODING 10109
SWIDTH 400 0
DWIDTH 24 0
BBX 24 24 0 -2
BITMAP
0600C0
0640C2
FFE7FF
0600C0
0600C0
000400
000600
01C300
038180
0300C0
060070
0C103C
18381F
303007
E06000
00C000
018080
0300C0
060060
0C0030
181FF8
3FF80C
38000C
100004
ENDCHAR
STARTCHAR C277e
ENCODING 10110
SWIDTH 400 0
DWIDTH 24 0
BBX 24 24 0 -2
BITMAP
0700E0
0700E0
0660C2
FFE7FF
0600C0
0600C0
000000
040040
070070
060060
060060
060060
060060
0600E0
0F00E0
0D81F0
0CC190
186398
18730C
30360C
300C06
601807
C03003
80E000
ENDCHAR
STARTCHAR C2821
ENCODING 10273
SWIDTH 400 0
DWIDTH 24 0
BBX 24 24 0 -2
BITMAP
0600C0
0640C2
FFE7FF
0600C0
0610C0
001C00
0018C0
003FE0
03FFE0
1E1800
001800
001810
1FFFF8
003800
001800
001800
003807
FFFFFF
001800
001800
001800
001800
001800
001000
ENDCHAR
STARTCHAR C2822
ENCODING 10274
SWIDTH 400 0
DWIDTH 24 0
BBX 24 24 0 -2
BITMAP
000004
60000E
7FFFFE
600E00
600E00
600E00
600E30
63FFF8
638E38
638E38
638E38
638E38
63FFF8
638E30
600E00
600E10
600E08
600FFC
67FF8C
638004
610000
600006
7FFFFF
000000
ENDCHAR
STARTCHAR C2823
ENCODING 10275
SWIDTH 400 0
DWIDTH 24 0
BBX 24 24 0 -2
BITMAP
1C0000
1C4006
18707E
306000
306000
606400
4CFE00
8C677F
1C660C
18660C
30660C
30660C
70660C
F0660C
B0C60C
30C60C
30C60C
30C64C
3186CC
31878C
3307CC
3203BC
34001C
300018
ENDCHAR
STARTCHAR C2824
ENCODING 10276
SWIDTH 400 0
DWIDTH 24 0
BBX 24 24 0 -2
BITMAP
1C0000
1C3006
18387E
303000
303000
603000
4C3000
8C30FF
1C300C
18300C
30380C
30780C
706C0C
F0660C
B0C60C
30C30C
30830C
31838C
33018C
36018C
34000C
30007C
300038
300030
ENDCHAR
STARTCHAR C2825
ENCODING 10277
SWIDTH 400 0
DWIDTH 24 0
BBX 24 24 0 -2
BITMAP
000008
00001C
307FFC
18030C
0C030C
00030C
007FFC
0C7388
FE7300
1E6304
18638E
387FFF
360306
7F0306
660306
0603FE
0C03BC
0C0308
180300
380300
7F0000
E7FFFF
007FFC
001FF8
ENDCHAR
STARTCHAR C2826
ENCODING 10278
SWIDTH 400 0
DWIDTH 24 0
BBX 24 24 0 -2
BITMAP
000000
00000C
301FFC
180000
0C0000
000000
000000
0C0007
FE7FFF
1E0300
180600
380600
360C00
7F0808
661804
06303E
0C7FE7
0C7E03
183001
380000
7F0000
E7FFFF
007FFC
001FF8
ENDCHAR
STARTCHAR C2827
ENCODING 10279
SWIDTH 400 0
DWIDTH 24 0
BBX 24 24 0 -2
BITMAP
0001C0
0001C0
300186
18FFFE
0C0180
00018C
007FFE
0C718E
FE718C
1E718C
18718C
38718C
36718C
7F718C
66718C
0671BC
0C619C
0C0188
180180
380100
7F0000
E7FFFF
007FFC
001FF8
ENDCHAR
STARTCHAR C2828
ENCODING 10280
SWIDTH 400 0
DWIDTH 24 0
BBX 24 24 0 -2
BITMAP
000000
001C3C
301C38
181838
0C183A
00FFFF
001838
0C1838
FE1838
1E1838
181838
381838
361838
7F1838
661838
061838
0C1C38
0C1FF8
181810
380000
7F0000
E7FFFF
007FFC
001FF8
ENDCHAR
STARTCHAR C2829
ENCODING 10281
SWIDTH 400 0
DWIDTH 24 0
BBX 24 24 0 -2
BITMAP
000000
0019C7
FFF9FF
6001C6
6001CC
6001CC
6001D8
6031D0
7FF9D0
6039C8
6031C4
6031C6
6031C7
6031C3
6031C3
7FF1C3
6031C3
6001FF
6001DE
6001CC
6001C0
6009C0
FFFDC0
000180
ENDCHAR
STARTCHAR C282a
ENCODING 10282
SWIDTH 400 0
DWIDTH 24 0
BBX 24 24 0 -2
BITMAP
1DC000
1DC1C7
1D81FF
1DB1C6
7FF9CC
1D99CC
1D99D8
1D99D0
5D99D0
FFF9C8
DD91C4
DD81C6
DD81C7
DD99C3
FFFDC3
1D99C3
1D99C3
1999FF
19F9DE
11B9CC
3191C0
3181C0
6181C0
C18180
ENDCHAR
STARTCHAR C282b
ENCODING 10283
SWIDTH 400 0
DWIDTH 24 0
BBX 24 24 0 -2
BITMAP
038000
0381C7
0301FF
0301C6
0301CC
0301CC
C319D8
FFFDD0
E31DD0
E319C8
E319C4
E319C6
E319C7
E319C3
FFF9C3
E319C3
E319C3
E319FF
E319DE
E319CC
E319C0
FFF9C0
C019C0
000180
ENDCHAR
STARTCHAR C282c
ENCODING 10284
SWIDTH 400 0
DWIDTH 24 0
BBX 24 24 0 -2
BITMAP
030000
0701C7
0601FF
0C01C6
1831CC
3019CC
7FFDD8
7C0DD0
600DD0
0001C8
1E79C4
1C71C6
1C71C7
1C71C3
FFFFC3
1C71C3
1C71C3
1C71FF
1871DE
1871CC
3071C0
3071C0
6071C0
C06180
ENDCHAR
STARTCHAR C282d
ENCODING 10285
SWIDTH 400 0
DWIDTH 24 0
BBX 24 24 0 -2
BITMAP
300000
3001C7
3001FF
6031C6
7FF9CC
C019CC
C019D8
8219D0
7F19D0
6319C8
6319C4
6319C6
6319C7
7F19C3
6219C3
63F9C3
60F1C3
6061FF
6009DE
6009CC
7019C0
7FF9C0
3FF9C0
000180
ENDCHAR
STARTCHAR C282e
ENCODING 10286
SWIDTH 400 0
DWIDTH 24 0
BBX 24 24 0 -2
BITMAP
000104
00018E
0001FF
18418C
7C7D8C
1C6188
1C6198
1C6190
1C6190
1C6188
1C6184
1C6186
1C6187
1C6183
1C6183
1C6183
1C6183
1CFD87
FFC1FE
F0019C
600188
000180
000180
000180
ENDCHAR
STARTCHAR C282f
ENCODING 10287
SWIDTH 400 0
DWIDTH 24 0
BBX 24 24 0 -2
BITMAP
038000
0381C7
0381FF
2399C6
3FFDCC
339DCC
3399D8
3399D0
3399D0
FFFFC8
739DC4
3399C6
3399C7
3399C3
3399C3
FFFFC3
3019C3
3019FF
3019DE
3019CC
3019C0
30F9C0
3039C0
203180
ENDCHAR
STARTCHAR C2830
ENCODING 10288
SWIDTH 400 0
DWIDTH 24 0
BBX 24 24 0 -2
BITMAP
000006
E67FFF
FF7007
E67007
E67007
E47FFF
EC7106
E871C0
E87180
EC7180
E67188
E67FFC
E7718C
E3718C
E3718C
E3718C
E7730C
FF630C
E6630C
E0660D
E0C60D
E0CC0F
E1980F
C07006
ENDCHAR
STARTCHAR C2831
ENCODING 10289
SWIDTH 400 0
DWIDTH 24 0
BBX 24 24 0 -2
BITMAP
001C00
E61C00
FF1800
E61800
E61807
E43FFF
EC6007
E86007
E8C087
EC9FC7
E618E7
E618C7
E718C7
E318C7
E318C7
E31FC7
E718C7
FF1007
E60006
E00006
E0000E
E003FC
E000F8
C00030
ENDCHAR
STARTCHAR C2832
ENCODING 10290
SWIDTH 400 0
DWIDTH 24 0
BBX 24 24 0 -2
BITMAP
000000
E60007
FF3FFF
E60307
E60307
E40607
EC0607
E80607
E80C06
EC0CFE
E6183C
E63018
E76004
E3100E
E31FFF
E31806
E71806
FF1806
E61806
E01806
E01806
E01FFE
E01806
C01004
ENDCHAR
STARTCHAR C2833
ENCODING 10291
SWIDTH 400 0
DWIDTH 24 0
BBX 24 24 0 -2
BITMAP
00003E
E623FE
FF7E00
E67006
E67FFF
E47007
EC7007
E87007
E87FFE
EC7000
E6700C
E677FE
E7701E
E37038
E37070
E370E0
E76180
FF6300
E66600
E0CC01
E0CC01
E0CFFF
E18FFF
C003FE
ENDCHAR
STARTCHAR C2834
ENCODING 10292
SWIDTH 400 0
DWIDTH 24 0
BBX 24 24 0 -2
BITMAP
000020
080070
1FFFF8
1C0030
1C0030
1C0030
1FFFF0
080020
000000
3FFFF8
383818
301818
301818
3FFFF8
301818
301818
383818
3FFFF8
301810
001801
001803
001FFE
001FFE
000FFC
ENDCHAR
STARTCHAR C2835
ENCODING 10293
SWIDTH 400 0
DWIDTH 24 0
BBX 24 24 0 -2
BITMAP
0681C0
06C1C0
066180
062180
060180
FFE188
060FFC
06019C
46418C
66618C
36C18C
3F818C
17018C
06018C
06030C
1F830C
3EE30C
E6730C
66260C
06060D
060C0D
7E080F
3C100F
182006
ENDCHAR
STARTCHAR C2836
ENCODING 10294
SWIDTH 400 0
DWIDTH 24 0
BBX 24 24 0 -2
BITMAP
0C8070
0CC070
0C6060
1C2060
180060
1803EC
321366
339367
719363
70B363
F03660
B06666
306C66
30486C
30C06C
30C06C
31C018
338018
318030
30C060
30C0C0
30C380
30C600
303800
ENDCHAR
STARTCHAR C2837
ENCODING 10295
SWIDTH 400 0
DWIDTH 24 0
BBX 24 24 0 -2
BITMAP
0701C0
0701C0
064187
06318E
0C19D8
0C1B40
1C0360
1C0638
3C0C1C
7C180F
7C3007
DCD810
1C1C3C
1C1838
1C1838
1CFFFF
1C1C38
1C1838
1C1838
1C3038
1C3038
1C6038
1CC038
1B8030
ENDCHAR
STARTCHAR C2838
ENCODING 10296
SWIDTH 400 0
DWIDTH 24 0
BBX 24 24 0 -2
BITMAP
0701C0
0701C0
060180
067FFE
0C0180
0C0182
1C7FFF
1CE007
3CC006
7C8030
7C3FF8
DC0078
1C00E0
1C0180
1C0182
1CFFFF
1C0180
1C0180
1C0180
1C0180
1C0180
1C1F80
1C0F00
180200
ENDCHAR
STARTCHAR C2839
ENCODING 10297
SWIDTH 400 0
DWIDTH 24 0
BBX 24 24 0 -2
BITMAP
0C0000
0C0007
0FFFFF
1CC660
18C660
18C660
30C660
30FE60
70C660
70C660
F0C660
B0C660
30FE60
30E660
30C660
30C660
30C660
30DE60
33F660
33C661
318661
30067F
30063F
30061E
ENDCHAR
STARTCHAR C283a
ENCODING 10298
SWIDTH 400 0
DWIDTH 24 0
BBX 24 24 0 -2
BITMAP
0E700E
0E733F
0C63E0
1C6300
186300
186B00
33FB00
306387
7063FF
70630C
F0630C
B07B0C
30E30C
37E30C
33E30C
31630C
30630C
30630C
30630C
30620C
30660C
33E60C
30EC0C
30D808
ENDCHAR
STARTCHAR C283b
ENCODING 10299
SWIDTH 400 0
DWIDTH 24 0
BBX 24 24 0 -2
BITMAP
0701C0
0741C4
067187
066186
0C6186
0C7FFE
1C0000
1C0038
3C7FFC
7C1818
7C1818
DC1838
1C1FFE
1C1A06
1C1B0E
1C390C
1C318C
1C30D8
1C60F0
1C60F0
1CC1BC
1D871F
1D0C0F
18F003
ENDCHAR
STARTCHAR C283c
ENCODING 10300
SWIDTH 400 0
DWIDTH 24 0
BBX 24 24 0 -2
BITMAP
070038
0701FC
063FC0
063000
0C3000
0C3000
1C3006
1C3FFE
3C3038
7C3038
7C3038
DC3038
1C3038
1C3038
1C3038
1CFFFF
1C0000
1C1000
1C3818
1C300C
1C6006
1C4007
1C8003
190003
ENDCHAR
STARTCHAR C283d
ENCODING 10301
SWIDTH 400 0
DWIDTH 24 0
BBX 24 24 0 -2
BITMAP
0C0000
0C0007
0DFFFF
1C0C60
180C60
190C62
31FFFF
318CE7
718C67
718C67
F18C67
B18C67
319AD7
319BDF
31919F
31A10F
31C207
318007
318007
318007
318007
31807F
31801E
31800C
ENDCHAR
STARTCHAR C283e
ENCODING 10302
SWIDTH 400 0
DWIDTH 24 0
BBX 24 24 0 -2
BITMAP
070004
07400E
067FFF
066186
0C6186
0C6186
1C7FFE
1C6186
3C6186
7C6186
7C7FFE
DC6304
1C0380
1C0306
1CFFFF
1C0307
1C0307
1C0607
1C0E07
1C0C07
1C1806
1C30FE
1C603C
198018
ENDCHAR
STARTCHAR C283f
ENCODING 10303
SWIDTH 400 0
DWIDTH 24 0
BBX 24 24 0 -2
BITMAP
071800
071800
061802
063FFF
0C3818
0C6C18
1C4630
1C8360
3C01C0
7C03E0
7C063C
DC1C5F
1C70E7
1DC180
1C0710
1C0C38
1C3060
1C41C7
1C070E
1C1818
1CF070
1C01C0
1C0E00
18F800
ENDCHAR
STARTCHAR C2840
ENCODING 10304
SWIDTH 400 0
DWIDTH 24 0
BBX 24 24 0 -2
BITMAP
000040
00C060
7FC0C0
000180
000108
000204
00043E
00DFF3
FFCF03
338404
33860E
3387FF
338606
338606
338606
338606
3387FE
338604
338000
238001
638001
43FFFF
C1FFFF
80FFFE
ENDCHAR
STARTCHAR C2841
ENCODING 10305
SWIDTH 400 0
DWIDTH 24 0
BBX 24 24 0 -2
BITMAP
000380
000380
600300
300300
380387
19FFFF
020300
06731C
047318
0C7318
0C731C
18DB36
18CB63
118380
300380
F00640
F00E60
600C20
301830
303018
30601E
30C00F
318007
060000
ENDCHAR
STARTCHAR C2842
ENCODING 10306
SWIDTH 400 0
DWIDTH 24 0
BBX 24 24 0 -2
BITMAP
000000
000007
60FFFF
300100
38718E
18718C
02610C
064308
048610
0CC218
0C630C
18718C
183184
100000
300002
F0FFFE
F00180
600180
300180
300180
300180
300182
31FFFF
000000
ENDCHAR
STARTCHAR C2843
ENCODING 10307
SWIDTH 400 0
DWIDTH 24 0
BBX 24 24 0 -2
BITMAP
000008
00001C
603FFC
30000C
38001D
18FFFF
02000C
06001C
043FF8
0C4006
0CFFFF
19C007
198008
103FFC
301818
F00C38
F00630
600760
3003C0
3003C0
3007F0
300C3F
30300F
01C007
ENDCHAR
STARTCHAR C2844
ENCODING 10308
SWIDTH 400 0
DWIDTH 24 0
BBX 24 24 0 -2
BITMAP
000007
007007
3FF806
0030E6
0034E6
FFFCC6
0030C6
0030C6
3FF0C6
400CC6
FFFEC6
C00EC6
8020C6
3FF0C6
1870C6
0C60C6
0660C6
03C0C6
018006
03C006
067006
1C387E
30183C
E00808
ENDCHAR
STARTCHAR C2845
ENCODING 10309
SWIDTH 400 0
DWIDTH 24 0
BBX 24 24 0 -2
BITMAP
038007
038007
030806
FFFDC6
0301C6
0311C6
7FF9C6
6339C6
6319C6
6319C6
6339C6
7FF9C6
6319C6
6319C6
6319C6
7FF9C6
6301C6
030986
FFFC06
030006
030006
03007E
03003C
030008
ENDCHAR
STARTCHAR C2846
ENCODING 10310
SWIDTH 400 0
DWIDTH 24 0
BBX 24 24 0 -2
BITMAP
038007
039807
031806
0308E6
FFFCE6
0300C6
0300C6
4318C6
FFFCC6
E318C6
E318C6
E318C6
FFF8C6
E318C6
E318C6
E318C6
FFF8C6
E318C6
E31806
E31806
E31806
E3187E
E2F83C
C03008
ENDCHAR
STARTCHAR C2847
ENCODING 10311
SWIDTH 400 0
DWIDTH 24 0
BBX 24 24 0 -2
BITMAP
038007
038007
030006
0308E6
03FCE6
0300C6
0300C6
0308C6
FFFCC6
E4CCC6
E4CCC6
E4CCC6
E4CCC6
E4CCC6
E4CCC6
FFFCC6
E4CCC6
E4CCC6
E4CC06
E4CC06
E4CC06
E4CC7E
E4FC3C
C01808
ENDCHAR
STARTCHAR C2848
ENCODING 10312
SWIDTH 400 0
DWIDTH 24 0
BBX 24 24 0 -2
BITMAP
007807
07FC07
FE0006
0419C6
0619C6
6331C6
3121C6
3001C6
0021C6
0079C6
0071C6
0071C6
FFFDC6
0071C6
2071C6
3871C6
1871C6
0C7186
007006
007006
007006
07F07E
01E03C
00C008
ENDCHAR
STARTCHAR C2849
ENCODING 10313
SWIDTH 400 0
DWIDTH 24 0
BBX 24 24 0 -2
BITMAP
1800E0
0C00E0
4CE0C0
FFF0C0
E060C0
E060C2
E067FF
FFE0C7
E060C7
E060C7
E060C7
FFE0C7
E000C7
E830C7
EC71C7
E6C1C7
E38187
E18187
E0C307
E2E307
EC7606
F8347E
E0083C
601018
ENDCHAR
STARTCHAR C284a
ENCODING 10314
SWIDTH 400 0
DWIDTH 24 0
BBX 24 24 0 -2
BITMAP
0640E0
0670E0
0630C0
0610C0
0600C0
FFF8C2
0607FF
0600C7
4620C7
6638C7
3670C7
36C0C7
1680C7
0600C7
0601C7
1EC1C7
367187
E63987
661B07
060307
060606
3E047E
1E083C
0C1018
ENDCHAR
STARTCHAR C284b
ENCODING 10315
SWIDTH 400 0
DWIDTH 24 0
BBX 24 24 0 -2
BITMAP
0040E0
00E0E0
3FF0C0
01C0C0
1380C0
0E00C2
0607FF
E370C7
FFF8C7
E630C7
E630C7
E630C7
FFF0C7
E630C7
E630C7
E631C7
FFF187
E63187
E63187
E63307
E63306
E6F67E
E67C3C
C07818
ENDCHAR
STARTCHAR C284c
ENCODING 10316
SWIDTH 400 0
DWIDTH 24 0
BBX 24 24 0 -2
BITMAP
1C0000
1C0000
1C000E
1FFFFF
18E006
30C006
318306
230186
4FFFC6
0F8CC6
058C06
030FE6
0787E6
1D8006
13FF06
038706
06CE06
0C7806
087FE6
01C7E6
1E01EE
0001FC
000078
000030
ENDCHAR
STARTCHAR C284d
ENCODING 10317
SWIDTH 400 0
DWIDTH 24 0
BBX 24 24 0 -2
BITMAP
700300
700300
602300
7FF300
600300
600300
7FE300
3FF300
1FF306
3003FF
300300
206300
7FE300
C60300
860300
063300
FFFB00
060300
0F8300
0CC301
186301
3033FF
6013FF
C001FE
ENDCHAR
STARTCHAR C284e
ENCODING 10318
SWIDTH 400 0
DWIDTH 24 0
BBX 24 24 0 -2
BITMAP
000004
60000E
7FFFFE
604000
6470E0
6660C0
6660C0
6660C0
6660C0
667FFE
6FE0C0
6460C0
6060C0
6460C0
67E0C0
6660C0
6660C0
6660C0
646FFC
6C6000
686000
600006
7FFFFF
000000
ENDCHAR
STARTCHAR C284f
ENCODING 10319
SWIDTH 400 0
DWIDTH 24 0
BBX 24 24 0 -2
BITMAP
000004
60000E
7FFFFE
638300
638300
638300
6367FE
63661C
67660C
676E0C
677B18
6F6118
7B61B8
6360B0
6360E0
6360E0
6361B0
630338
63061E
630C0E
637006
600000
7FFFFF
000000
ENDCHAR
STARTCHAR C2850
ENCODING 10320
SWIDTH 400 0
DWIDTH 24 0
BBX 24 24 0 -2
BITMAP
000004
60000E
7FFFFE
620E00
638E1C
630E18
630E18
630E18
63FFF8
600E00
600C0C
67FFFC
600E00
600E00
600E10
63FFF8
600E00
600E00
600E08
67FFFC
600000
600002
7FFFFF
000000
ENDCHAR
STARTCHAR C2851
ENCODING 10321
SWIDTH 400 0
DWIDTH 24 0
BBX 24 24 0 -2
BITMAP
001800
001800
001808
001FFC
001800
001800
201818
3FFFFC
30100C
30180C
30180C
303E0C
30638C
30C1CC
3398EC
36186C
303C0C
30630C
30C1CC
3380EC
3E006C
30000C
3FFFFC
200008
ENDCHAR
STARTCHAR C2852
ENCODING 10322
SWIDTH 400 0
DWIDTH 24 0
BBX 24 24 0 -2
BITMAP
3000E0
3000E0
3008C0
3FFCC0
6000C0
4000C0
A030C0
3FF8C0
3018F0
3618D8
3318CC
3198C6
FFFCC3
6038C3
6418C1
6718C0
6318C0
6018C0
7FFCC0
0018C0
0030C0
07F0C0
01E0C0
00C0C0
ENDCHAR
STARTCHAR C2853
ENCODING 10323
SWIDTH 400 0
DWIDTH 24 0
BBX 24 24 0 -2
BITMAP
380000
380007
30CFFF
3FE338
30C338
618338
C32338
7FF338
600338
606338
6FE338
6C6338
6C6338
6C6338
6C6338
6DE338
6CC338
6C0338
6C2638
4CC639
CF8C39
CE183F
84301F
00E00E
ENDCHAR
STARTCHAR C2854
ENCODING 10324
SWIDTH 400 0
DWIDTH 24 0
BBX 24 24 0 -2
BITMAP
200000
300007
3FFFFF
300700
300700
300600
300606
37FFFE
308610
30C638
30C638
31C638
31262C
323746
341F86
300D80
201880
6018C0
603060
606070
40C038
C3801F
86000F
3C0007
ENDCHAR
STARTCHAR C2855
ENCODING 10325
SWIDTH 400 0
DWIDTH 24 0
BBX 24 24 0 -2
BITMAP
200000
300007
3FFFFF
300008
31001C
33FFFC
33800C
33800C
33FFFC
33800C
33800C
33800C
33FFFC
300700
308600
30C630
20C618
61860C
63060E
620606
440607
C87E02
801E00
000C00
ENDCHAR
STARTCHAR C2856
ENCODING 10326
SWIDTH 400 0
DWIDTH 24 0
BBX 24 24 0 -2
BITMAP
0E0008
0E001C
0C1FFC
0C060C
0C860C
7F8618
0C0618
0C0618
0C063A
0C07FF
0CC707
FFC787
0C0686
1806CC
1806CC
100E5C
318C78
21CC30
43CC78
FED878
F058DC
40318F
006307
005C03
ENDCHAR
STARTCHAR C2857
ENCODING 10327
SWIDTH 400 0
DWIDTH 24 0
BBX 24 24 0 -2
BITMAP
060000
060004
0607FE
062206
07F206
060306
06010C
06010C
FFE10C
DB618C
DB6098
DB60D8
DB60F8
DB6070
DB6070
FFE070
DB60F0
DB60F8
DB6198
DB630C
DB620E
DB640F
C0E807
C07003
ENDCHAR
STARTCHAR C2858
ENCODING 10328
SWIDTH 400 0
DWIDTH 24 0
BBX 24 24 0 -2
BITMAP
000600
000300
000106
C6FFFE
FF0018
E72018
E61038
E61830
E60C30
E60C60
E60447
E6FFFF
E60180
E60180
E60180
E60180
E60180
FE0180
E60180
400180
000180
000180
000180
000180
ENDCHAR
STARTCHAR C2859
ENCODING 10329
SWIDTH 400 0
DWIDTH 24 0
BBX 24 24 0 -2
BITMAP
000060
00006C
000066
C60063
FF4060
E77FFF
E66060
E66060
E66060
E66067
E66067
E66366
E67F66
E6606C
E6606C
E6607C
E66078
FE6038
E66078
40C079
00C0CD
00C18F
018307
031C03
ENDCHAR
STARTCHAR C285a
ENCODING 10330
SWIDTH 400 0
DWIDTH 24 0
BBX 24 24 0 -2
BITMAP
0001C0
0001C0
000180
C30180
FF018C
E301FC
E30180
E30180
E30182
E37FFF
E30000
E30002
E37FFF
E30180
E30180
E301C0
E301B0
FF019C
E2018C
400184
000180
000180
000180
000180
ENDCHAR
STARTCHAR C285b
ENCODING 10331
SWIDTH 400 0
DWIDTH 24 0
BBX 24 24 0 -2
BITMAP
0001C0
0001C0
000180
C60184
FF01FE
E70180
E60180
E60180
E60182
E6FFFF
E60000
E601E0
E601C0
E611C0
E619C8
E639CC
E631C6
FE31C7
E661C3
40C1C1
0081C0
001FC0
000780
000300
ENDCHAR
STARTCHAR C285c
ENCODING 10332
SWIDTH 400 0
DWIDTH 24 0
BBX 24 24 0 -2
BITMAP
000670
000670
000660
C60660
FF0660
E70662
E67FFF
E66677
E66667
E66667
E66667
E66667
E66667
E66677
E67FFF
E66667
E66667
FE6667
E66667
406667
006667
007FFF
006006
006000
ENDCHAR
STARTCHAR C285d
ENCODING 10333
SWIDTH 400 0
DWIDTH 24 0
BBX 24 24 0 -2
BITMAP
0018E0
0018EC
0018C6
0C38C3
FE30C0
E630C2
E677FF
E670C0
E6F0C0
E6F0C4
E6F0C6
E770C6
E67066
E6706C
E6706C
E6707C
EE7078
FE7030
E47078
407079
0070DD
00718F
007307
007C03
ENDCHAR
STARTCHAR C285e
ENCODING 10334
SWIDTH 400 0
DWIDTH 24 0
BBX 24 24 0 -2
BITMAP
100300
1C0180
180184
183FFE
180C38
180838
FF0438
18C432
18E637
18C267
18C367
18C1C7
18C1C7
18C1C7
18C3E7
18C77F
18CE3F
1EDC1F
38F007
F0C007
E0C007
40FFFF
00C007
000006
ENDCHAR
STARTCHAR C285f
ENCODING 10335
SWIDTH 400 0
DWIDTH 24 0
BBX 24 24 0 -2
BITMAP
000000
008038
7FDFF8
0C0638
0C3638
0C0E38
0C0738
0C07B8
0C0DF9
0FD8B9
FC303B
F0601F
41D00E
001C00
001800
001800
003838
1FFFF8
001800
001800
001800
001806
FFFFFF
000000
ENDCHAR
STARTCHAR C2860
ENCODING 10336
SWIDTH 400 0
DWIDTH 24 0
BBX 24 24 0 -2
BITMAP
000000
00000C
3FFFFC
00C300
00C308
10C31C
18C318
0CC330
0CC360
04C340
00C304
7FFFFE
000000
001000
001C00
001800
001818
3FFFFC
001800
001800
001800
001800
003807
FFFFFF
ENDCHAR
STARTCHAR C2861
ENCODING 10337
SWIDTH 400 0
DWIDTH 24 0
BBX 24 24 0 -2
BITMAP
1C0138
1D83B8
1C6630
1C1C30
1C3730
1CC1B0
1D00B0
1FFFF0
00C320
018300
030300
0683FE
18C1FE
30C000
4DFFE0
0700E0
0781C0
0CE700
183C00
307E00
00E7C0
0381FF
0C003F
F0000F
ENDCHAR
STARTCHAR C2862
ENCODING 10338
SWIDTH 400 0
DWIDTH 24 0
BBX 24 24 0 -2
BITMAP
003000
003000
007004
7FFFFE
00C180
018080
030060
060030
0C001C
1FFFFF
300007
E40060
07FFF0
060060
060060
07FFE0
060060
060060
060060
07FFE0
040000
000006
7FFFFE
000000
ENDCHAR
STARTCHAR C2863
ENCODING 10339
SWIDTH 400 0
DWIDTH 24 0
BBX 24 24 0 -2
BITMAP
003000
003000
007004
7FFFFE
00C180
018080
030060
060030
0C071C
1B870F
338607
E38600
038600
3B8604
33F7FE
338600
338600
338600
338601
338603
33B602
7FC7FE
7C03FE
6001FC
ENDCHAR
STARTCHAR C2864
ENCODING 10340
SWIDTH 400 0
DWIDTH 24 0
BBX 24 24 0 -2
BITMAP
038300
038300
030300
330300
333306
33F3FE
330300
330301
330301
33F303
7703FF
FC01FF
603800
003800
003000
003006
FFFFFF
006000
00C040
018060
03001C
0E000E
180006
E00003
ENDCHAR
STARTCHAR C2865
ENCODING 10341
SWIDTH 400 0
DWIDTH 24 0
BBX 24 24 0 -2
BITMAP
000007
380187
387F87
303337
323337
333337
FFB337
FB3337
333337
333337
33FFF7
333337
733337
663337
663337
E63337
3C7337
1E7337
1F6327
336307
20C307
40C33F
80830E
01020C
ENDCHAR
STARTCHAR C2866
ENCODING 10342
SWIDTH 400 0
DWIDTH 24 0
BBX 24 24 0 -2
BITMAP
000E00
380E00
380C00
300C06
321FFE
3318C0
FF98C0
FB30C0
3360C0
3300C0
3300C2
333FFF
7300C0
6600C0
6610C2
E618C7
3C18C7
1E18C7
1F18C7
3318C7
2198C7
4018C7
803FFF
001006
ENDCHAR
STARTCHAR C2867
ENCODING 10343
SWIDTH 400 0
DWIDTH 24 0
BBX 24 24 0 -2
BITMAP
000800
380C38
380FFC
300C18
320C18
330C18
FF8C18
FB181C
33181F
33300F
3361E0
3341C0
7301C0
6601C7
667FFF
E601C0
3C19C0
1E1DCC
1F19C6
3331C7
21A1C3
4041C3
8081C0
000180
ENDCHAR
STARTCHAR C2868
ENCODING 10344
SWIDTH 400 0
DWIDTH 24 0
BBX 24 24 0 -2
BITMAP
300004
187FFE
800000
620000
62FFFF
263000
0C700C
0C7FFE
18000E
78000C
30000C
3807F8
388070
10C020
00C1C0
0181C2
FFFFFF
030180
030300
07C600
007F00
007BE0
01C078
7E001C
ENDCHAR
STARTCHAR C2869
ENCODING 10345
SWIDTH 400 0
DWIDTH 24 0
BBX 24 24 0 -2
BITMAP
060004
06000E
07F7FF
7E01C6
0601C6
07E186
7E0186
060306
07F30E
7E060C
060CFC
061838
06A010
00C000
00C1C0
0181C2
FFFFFF
030180
030300
07C600
007F00
007BE0
01C078
7E001C
ENDCHAR
STARTCHAR C286a
ENCODING 10346
SWIDTH 400 0
DWIDTH 24 0
BBX 24 24 0 -2
BITMAP
001800
001800
001830
3FFFF8
001800
081860
0E1870
0C0062
FFC7FF
0C0060
0C0060
0C8060
08C000
00C1C0
0181C6
FFFFFF
030180
070300
060700
0FCE00
047F00
0073E0
038078
7E003C
ENDCHAR
STARTCHAR C286b
ENCODING 10347
SWIDTH 400 0
DWIDTH 24 0
BBX 24 24 0 -2
BITMAP
001820
0C1830
061870
071860
0318C0
601806
7FFFFF
E00006
C00024
8FFFF0
000000
008000
00C000
00C1C0
0181C6
FFFFFF
030180
070300
060700
0FCE00
047F00
0073E0
038078
7E003C
ENDCHAR
STARTCHAR C286c
ENCODING 10348
SWIDTH 400 0
DWIDTH 24 0
BBX 24 24 0 -2
BITMAP
0041C0
E0E1C0
FFF180
E0618C
E0618C
E1618C
FF6FFF
E0618C
E0618C
E0618C
FF630C
FB630C
FB630C
FB630C
FB6618
FF6E38
FB6FB0
E060F0
E060F8
E061CC
E06386
E3E703
E1CE01
C0B800
ENDCHAR
STARTCHAR C286d
ENCODING 10349
SWIDTH 400 0
DWIDTH 24 0
BBX 24 24 0 -2
BITMAP
00001E
3830FE
383FC0
303000
323000
333004
FFB3FE
FB3376
333366
333366
333366
333366
733366
663376
6633FE
E63304
3C3300
1E3300
1F7300
336301
21E301
4043FF
80C3FF
0001FE
ENDCHAR
STARTCHAR C286e
ENCODING 10350
SWIDTH 400 0
DWIDTH 24 0
BBX 24 24 0 -2
BITMAP
000180
07FF80
000380
000E00
001804
7FFFFE
001800
001800
001800
01F800
003000
00C00C
3FE3FE
01E01E
018018
030030
060062
07CFFF
FE0060
E60060
060060
3E07E0
0E01E0
0C00C0
ENDCHAR
STARTCHAR C286f
ENCODING 10351
SWIDTH 400 0
DWIDTH 24 0
BBX 24 24 0 -2
BITMAP
038300
038300
330300
33F3FE
330300
330301
330301
337301
37C3FF
FC03FF
E00000
000180
07FFC0
000300
000600
001804
001C0E
7FFFFE
001800
001800
001800
01F800
007800
003000
ENDCHAR
STARTCHAR C2870
ENCODING 10352
SWIDTH 400 0
DWIDTH 24 0
BBX 24 24 0 -2
BITMAP
0C0008
0C001C
0FFFFC
18000C
360E0C
67FF0C
06060C
07FE0C
06060C
07FE1C
060018
0003F8
0000F0
000360
07FF80
000600
001800
00180E
7FFFFE
001800
001800
01F800
007800
003000
ENDCHAR
STARTCHAR C2871
ENCODING 10353
SWIDTH 400 0
DWIDTH 24 0
BBX 24 24 0 -2
BITMAP
003000
201806
3FFFFF
600007
E1C004
C38188
83FFC0
060180
0C0204
1FFFFE
7C0000
1C0000
1CC030
1CFFF0
1CC030
1CC030
18C030
18C7F0
18C0E0
30C042
30C006
20FFFE
607FFE
C03FFC
ENDCHAR
STARTCHAR C2872
ENCODING 10354
SWIDTH 400 0
DWIDTH 24 0
BBX 24 24 0 -2
BITMAP
003000
201806
3FFFFF
600007
E00004
C80068
8FFFF0
0C0060
0C0060
0FFFE0
0C0060
0C0060
0C0060
0FFFE0
080000
0E0000
0C0060
0FFFE0
0C0004
0C000C
0C0008
0FFFF8
07FFFC
03FFF8
ENDCHAR
STARTCHAR C2873
ENCODING 10355
SWIDTH 400 0
DWIDTH 24 0
BBX 24 24 0 -2
BITMAP
003000
201806
3FFFFF
600007
E01004
C01C08
801800
001818
001FF8
001800
001804
7FFFFE
001800
001800
081800
0E1840
0C1820
1C1830
181818
30180C
60180C
C3F804
00F000
006000
ENDCHAR
STARTCHAR C2874
ENCODING 10356
SWIDTH 400 0
DWIDTH 24 0
BBX 24 24 0 -2
BITMAP
1C0000
1C1807
1C1FFF
1C1800
1C1870
1C5862
FFFA66
1F9B64
1F9968
1F9870
1F9870
1F9870
1F98C8
1B98CC
1B918E
1BB307
33E607
33DC00
338000
338001
638001
63FFFF
C1FFFF
80FFFE
ENDCHAR
STARTCHAR C2875
ENCODING 10357
SWIDTH 400 0
DWIDTH 24 0
BBX 24 24 0 -2
BITMAP
1C0000
1C080C
1C0FFE
1C0C0C
1C0C0C
1C4FFC
FFEC0C
1F8C0C
1F8FFC
1F880C
1F8C00
1F8C0C
1F8FFE
1B8C00
1B8C03
1B8C02
338FFE
3387FE
338000
338001
638001
63FFFF
C1FFFF
80FFFE
ENDCHAR
STARTCHAR C2876
ENCODING 10358
SWIDTH 400 0
DWIDTH 24 0
BBX 24 24 0 -2
BITMAP
20000C
3FFFFE
30000E
30000C
3FFFFC
300C00
300C08
3FFFFC
300C00
33FFF8
300C38
300C38
33FFF8
330C30
370C0C
77FFFE
660C0E
601E0C
60337C
406188
C0C0E0
C3007E
86001E
380006
ENDCHAR
STARTCHAR C2877
ENCODING 10359
SWIDTH 400 0
DWIDTH 24 0
BBX 24 24 0 -2
BITMAP
200000
30000C
3FFFFE
30000C
30000C
3FFFFC
30000C
300000
30001C
3FFFFC
300000
320030
33FFF8
330038
330038
73FFF8
630038
630038
630038
43FFF0
C20000
C00006
9FFFFE
000000
ENDCHAR
STARTCHAR C2878
ENCODING 10360
SWIDTH 400 0
DWIDTH 24 0
BBX 24 24 0 -2
BITMAP
200000
30000C
3FFFFE
30000C
30000C
3FFFFC
32000C
330000
33001C
33FFFC
330000
330000
33FFFC
33FFFE
30FFFC
700008
63FFFC
63800C
63800C
43FFFC
C3800C
C3800C
83FFFC
030008
ENDCHAR
STARTCHAR C2879
ENCODING 10361
SWIDTH 400 0
DWIDTH 24 0
BBX 24 24 0 -2
BITMAP
200000
30000C
3FFFFE
30000C
30000C
3FFFFC
30100C
301800
303010
33FFF8
33001C
330018
330018
330018
33FFF8
730018
630018
630018
63FFF8
430018
C30018
C30018
83FFF8
030018
ENDCHAR
STARTCHAR C287a
ENCODING 10362
SWIDTH 400 0
DWIDTH 24 0
BBX 24 24 0 -2
BITMAP
20000C
3FFFFE
30000E
30000C
30000C
3FFFFC
30060C
301C00
303070
30C1E0
318300
31EE00
303860
306038
3183FC
77FF0E
670606
630600
61C670
43861C
C3060E
C67E07
8C1E02
000C00
ENDCHAR
STARTCHAR C287b
ENCODING 10363
SWIDTH 400 0
DWIDTH 24 0
BBX 24 24 0 -2
BITMAP
100000
1C3807
18303F
183637
183367
9931C7
DBB1E7
9BB33F
9BB61F
9BBC0F
9BB007
9BBFFF
9BA336
9B8330
9B8330
9B8730
9B8630
9B8630
FF8C30
010C31
001831
00303F
00603F
01C00E
ENDCHAR
STARTCHAR C287c
ENCODING 10364
SWIDTH 400 0
DWIDTH 24 0
BBX 24 24 0 -2
BITMAP
100800
1C0C38
180FFC
180C18
180C18
990C18
DB8C18
9B981C
9B981F
9BB00F
9BE1E0
9BC1C0
9B81C0
9B81C7
9BFFFF
9B81C0
9B99C0
9B9DCC
FF99C6
0131C7
0021C3
0041C3
0081C0
000180
ENDCHAR
STARTCHAR C287d
ENCODING 10365
SWIDTH 400 0
DWIDTH 24 0
BBX 24 24 0 -2
BITMAP
001800
301818
38181C
301818
301818
3FFFF8
300018
003000
001802
FFFFFF
000000
000000
180030
1FFFF0
1C0030
1C0030
1C0030
1FFFF0
1C0030
1C0030
1C0030
1FFFF0
1C0030
180020
ENDCHAR
STARTCHAR C287e
ENCODING 10366
SWIDTH 400 0
DWIDTH 24 0
BBX 24 24 0 -2
BITMAP
001800
301818
38181C
301818
383818
3FFFF8
007800
00700C
00719C
3FFFF0
007060
0071C2
7FFFFF
000E00
001800
006000
01E038
077FF8
1C6000
706000
806000
007FFC
007FFE
001FFC
ENDCHAR
STARTCHAR C2921
ENCODING 10529
SWIDTH 400 0
DWIDTH 24 0
BBX 24 24 0 -2
BITMAP
1C0300
1C0180
1C00C2
1C3FFF
5F9800
FFD800
DD9800
DD9800
DD9C00
DD9FFE
DD8FFE
DD8000
DD8800
DD8CEE
DD8CCE
DD8CCC
DD8CCC
DF8CCC
5D0CCC
1C18CC
1C18CC
1C18CE
1C30C7
186003
ENDCHAR
STARTCHAR C2922
ENCODING 10530
SWIDTH 400 0
DWIDTH 24 0
BBX 24 24 0 -2
BITMAP
1C01C0
1C01C0
1C0182
1C3FFF
5F8730
FFC610
DD8C1C
DD980F
DDBFF7
DDE002
DD8000
DD8006
DDBFFE
DD8E00
DD8C0C
DD8FFE
DD880E
DF800C
5D000C
1C000C
1C000C
1C07FC
1C01F8
180070
ENDCHAR
STARTCHAR C2923
ENCODING 10531
SWIDTH 400 0
DWIDTH 24 0
BBX 24 24 0 -2
BITMAP
1C01C0
1C01C0
1C038C
1C03FE
5F860C
FFC618
DD8BB0
DD91E0
DD80C0
DD8180
DD83C0
DD8670
DD98E6
DD80FF
DD8187
DD8306
DD87CC
DF8CF8
5D1870
1C0060
1C00C0
1C0180
1C0600
183800
ENDCHAR
STARTCHAR C2924
ENCODING 10532
SWIDTH 400 0
DWIDTH 24 0
BBX 24 24 0 -2
BITMAP
001807
7FFD07
0601C6
0E3186
0FF986
183986
3C6186
66C186
C38186
030106
06007E
1C1C0C
F01808
001818
3FFFFC
30181C
301818
301818
301818
301818
301BF8
301870
301820
001000
ENDCHAR
STARTCHAR C2925
ENCODING 10533
SWIDTH 400 0
DWIDTH 24 0
BBX 24 24 0 -2
BITMAP
038700
038700
230600
330606
33F7FE
330600
330601
330601
33F703
FF07FF
F003FF
601C00
001800
001818
3FFFFC
30181C
301818
301818
301818
301818
301BF8
301870
301820
001000
ENDCHAR
STARTCHAR C2926
ENCODING 10534
SWIDTH 400 0
DWIDTH 24 0
BBX 24 24 0 -2
BITMAP
1C0007
1C01C7
187FC7
181837
181837
FF1837
DB1B37
DA1FB7
DA33B7
DA3337
DA6337
DA7337
DADB37
DB8F37
DA0E37
DA0637
DE0637
DE0C37
180C27
181807
183007
18203F
18400E
18800C
ENDCHAR
STARTCHAR C2927
ENCODING 10535
SWIDTH 400 0
DWIDTH 24 0
BBX 24 24 0 -2
BITMAP
001800
000C00
300C06
3FFFFF
300000
32000C
33FFFE
33000C
33002C
337FFC
33000C
33000C
3300CC
333FEC
3330CC
3330CC
3330CC
633FCC
6330CC
63000C
63000C
C300FC
83003C
030018
ENDCHAR
STARTCHAR C2928
ENCODING 10536
SWIDTH 400 0
DWIDTH 24 0
BBX 24 24 0 -2
BITMAP
001800
000C00
300C06
3FFFFF
301800
301800
303018
33FFFC
338018
338018
338018
338018
33FFF8
338000
338008
33FFFC
33801C
63800C
63800C
63800C
63800C
C3FFFC
83801C
030008
ENDCHAR
STARTCHAR C2929
ENCODING 10537
SWIDTH 400 0
DWIDTH 24 0
BBX 24 24 0 -2
BITMAP
001800
000C00
300C06
3FFFFF
301000
301810
303FF8
307038
30F070
31DCE0
330F80
300600
301800
306800
379C1C
303FFC
307038
60D870
630EE0
600780
600700
C01C00
80F000
0F8000
ENDCHAR
STARTCHAR C292a
ENCODING 10538
SWIDTH 400 0
DWIDTH 24 0
BBX 24 24 0 -2
BITMAP
001800
000C00
300C06
3FFFFF
300020
30C030
306060
303044
37FFFE
300600
300600
33C60E
33860C
33860C
33860C
33860C
33FFFC
600608
600C00
601800
603000
C06000
80C000
070000
ENDCHAR
STARTCHAR C292b
ENCODING 10539
SWIDTH 400 0
DWIDTH 24 0
BBX 24 24 0 -2
BITMAP
0000C0
E070C8
FFF8C6
E030C6
E030C0
E0B0C2
FFF7FF
E030C0
E030C0
E030C0
EFB0C0
EDB0C0
EDB0C0
EDB0C0
EDB0E0
EFB060
ED3060
E03060
E03070
E03031
E03019
E3F01F
E0F00F
C06007
ENDCHAR
STARTCHAR C292c
ENCODING 10540
SWIDTH 400 0
DWIDTH 24 0
BBX 24 24 0 -2
BITMAP
021000
071807
FF9FFF
0318C0
0318C0
0318C0
0318C0
7F18C4
621FFE
601806
601806
E31806
FF9806
039806
039FFE
0398C6
0398C0
0398C0
0398C0
0318C0
0718C0
FE18C2
3C3FFF
181000
ENDCHAR
STARTCHAR C292d
ENCODING 10541
SWIDTH 400 0
DWIDTH 24 0
BBX 24 24 0 -2
BITMAP
020E00
070E00
FF8C00
030C06
031FFF
031800
03180C
7F303E
6278F0
601F80
601D80
E3198E
FF98DC
0398F8
0398E0
039860
039860
039830
039838
03181C
071BDE
FE1F0F
3C1C07
180800
ENDCHAR
STARTCHAR C292e
ENCODING 10542
SWIDTH 400 0
DWIDTH 24 0
BBX 24 24 0 -2
BITMAP
0201C0
0701C0
FF81C0
030340
030320
030630
030618
7F0C0C
62180F
603007
60601A
E34FF8
FF8000
038000
03981C
039FFC
03980C
03980C
03980C
03180C
07180C
FE1FFC
3C1C1C
181808
ENDCHAR
STARTCHAR C292f
ENCODING 10543
SWIDTH 400 0
DWIDTH 24 0
BBX 24 24 0 -2
BITMAP
020006
07080E
FF8C0C
030618
030613
033FFF
030618
7F0618
620618
600618
600618
E30618
FFBFFF
038618
038618
038618
038E18
038E18
038C18
031818
071818
FE3018
3C6018
19C018
ENDCHAR
STARTCHAR C2930
ENCODING 10544
SWIDTH 400 0
DWIDTH 24 0
BBX 24 24 0 -2
BITMAP
004004
7FE3FE
060060
060060
0E7077
FFF7FF
060060
0C0060
0C0060
180060
300060
E00060
0FFFE0
000060
040060
07FFE0
060000
0C0030
0FFFF8
000038
000038
001FF0
0003E0
0001C0
ENDCHAR
STARTCHAR C2931
ENCODING 10545
SWIDTH 400 0
DWIDTH 24 0
BBX 24 24 0 -2
BITMAP
0601C0
0601C0
0C01C0
0C01C0
1801C6
303FFE
6381C0
4381C0
0701C0
0601C2
0C7FFF
1C01E0
1C01C0
3C01C0
6C01C0
CC01C6
0C3FFE
0C01C0
0C01C0
0C01C0
0C01C0
0C01C2
0CFFFF
0C0000
ENDCHAR
STARTCHAR C2932
ENCODING 10546
SWIDTH 400 0
DWIDTH 24 0
BBX 24 24 0 -2
BITMAP
060000
062007
0C7FFF
0C7007
187007
307017
63FFFF
43F007
077007
067037
0C77F7
1C7637
1C7637
3C7637
6C7637
CC77F7
0C7637
0C7627
0C7007
0C7007
0C7007
0C707F
0C701E
0C600C
ENDCHAR
STARTCHAR C2933
ENCODING 10547
SWIDTH 400 0
DWIDTH 24 0
BBX 24 24 0 -2
BITMAP
060E00
060E00
0C0E0C
0C0FFE
181C1E
301C0C
63BE18
43B238
076130
06C1E0
0C01C0
1C01F0
1C033C
3C0E1F
6C1807
CC7FFE
0C1C0C
0C180C
0C180C
0C180C
0C180C
0C1FFC
0C1C0C
0C1800
ENDCHAR
STARTCHAR C2934
ENCODING 10548
SWIDTH 400 0
DWIDTH 24 0
BBX 24 24 0 -2
BITMAP
060180
060180
0C03C0
0C0340
180660
300630
638C18
43980C
07300F
066007
0CC01A
1C9FF8
1C0000
3C0000
6C301C
CC3FFC
0C300C
0C300C
0C300C
0C300C
0C300C
0C3FFC
0C301C
0C3008
ENDCHAR
STARTCHAR C2935
ENCODING 10549
SWIDTH 400 0
DWIDTH 24 0
BBX 24 24 0 -2
BITMAP
000000
008007
FFDFFF
1C0C00
1C1804
1C1FFE
1C1806
1C0006
1C0006
1C0006
1FC00E
FE000C
6007FC
000038
000020
021800
038C00
230608
23000E
630027
E30063
C3FFC1
01FFE0
007FC0
ENDCHAR
STARTCHAR C2936
ENCODING 10550
SWIDTH 400 0
DWIDTH 24 0
BBX 24 24 0 -2
BITMAP
001800
001800
001804
7FFFFE
003800
001800
001800
0C3860
0FFFF0
0C0060
0C0060
0C0060
0FFFE0
0C0060
000000
021800
038C00
230608
23000E
630027
E30063
C3FFC1
01FFE0
007FC0
ENDCHAR
STARTCHAR C2937
ENCODING 10551
SWIDTH 400 0
DWIDTH 24 0
BBX 24 24 0 -2
BITMAP
060000
060000
061106
7FF9FF
0E3987
061987
0E1987
0C1987
0C1987
183987
103187
27F1FF
41E102
80C000
000000
021800
038C00
230608
23000E
630027
E30063
C3FFC1
01FFE0
007FC0
ENDCHAR
STARTCHAR C2938
ENCODING 10552
SWIDTH 400 0
DWIDTH 24 0
BBX 24 24 0 -2
BITMAP
060E60
060E30
0C0E18
0C0E02
1DFFFF
3C0E00
7C0600
DC0600
9C0300
1C0381
1C01C1
1C00F3
1C003F
18000F
003802
039C00
038E00
23000C
230006
630023
E30063
C3FFC1
01FFE0
007FC0
ENDCHAR
STARTCHAR C2939
ENCODING 10553
SWIDTH 400 0
DWIDTH 24 0
BBX 24 24 0 -2
BITMAP
1C0300
1C0180
1C2186
1C7FFF
1CE006
1CC004
3E0018
7F007C
7F87C0
DD3B00
DC0300
9C0300
1C0300
1C0386
1C7FFE
1C0300
1C0300
1C0300
1C0300
1C0301
1C0303
1C03FE
1C01FE
1800FC
ENDCHAR
STARTCHAR C293a
ENCODING 10554
SWIDTH 400 0
DWIDTH 24 0
BBX 24 24 0 -2
BITMAP
1C0300
1C0180
1C01C0
1C0082
1CFFFF
1C0180
3E0380
7F0300
7F8610
DD0C1C
DC1838
9C3C70
1C0FE0
1C01C4
1C038E
1C070C
1C0C18
1C3830
1CE060
1C00F0
1C039C
1C070E
1C1807
18F003
ENDCHAR
STARTCHAR C293b
ENCODING 10555
SWIDTH 400 0
DWIDTH 24 0
BBX 24 24 0 -2
BITMAP
1C01C0
1C01C0
1C01C2
1C7FFF
1C01C0
1C01C0
3E01C6
7F3FFE
7FB1C6
DD31C6
DC31C6
9C31C6
1C3FFE
1C31C6
1C01C4
1C1180
1C0980
1C0700
1C0700
1C0FC0
1C1CF0
1C387F
1C700F
19C007
ENDCHAR
STARTCHAR C293c
ENCODING 10556
SWIDTH 400 0
DWIDTH 24 0
BBX 24 24 0 -2
BITMAP
1C0060
1C006C
180066
180063
184060
187FFF
5C6060
5E6060
DB6060
D96067
D86067
987866
186C66
18666C
18666C
18607C
186078
186038
186078
18C079
18C0CD
18C18F
188307
191C03
ENDCHAR
STARTCHAR C293d
ENCODING 10557
SWIDTH 400 0
DWIDTH 24 0
BBX 24 24 0 -2
BITMAP
1C0007
1C0307
18FF07
183077
183077
183067
5C7667
5E7F67
DB6667
D94667
D8C667
98E667
19B667
191E67
181C67
180C67
181867
181867
183867
183007
186007
18403F
18800E
19000C
ENDCHAR
ENDFONT
